<?xml version="1.0" encoding="UTF-8" standalone="no"?>
<!-- Created with Inkscape (http://www.inkscape.org/) -->

<svg
   width="26.458334mm"
   height="10.583329mm"
   viewBox="0 0 26.458334 10.583329"
   version="1.1"
   id="svg5"
   sodipodi:docname="ancient-sepulchre.svg"
   inkscape:version="1.2 (dc2aedaf03, 2022-05-15)"
   xml:space="preserve"
   xmlns:inkscape="http://www.inkscape.org/namespaces/inkscape"
   xmlns:sodipodi="http://sodipodi.sourceforge.net/DTD/sodipodi-0.dtd"
   xmlns="http://www.w3.org/2000/svg"
   xmlns:svg="http://www.w3.org/2000/svg"><sodipodi:namedview
     id="namedview7"
     pagecolor="#ffffff"
     bordercolor="#666666"
     borderopacity="1.0"
     inkscape:showpageshadow="2"
     inkscape:pageopacity="0.0"
     inkscape:pagecheckerboard="0"
     inkscape:deskcolor="#d1d1d1"
     inkscape:document-units="px"
     showgrid="true"
     inkscape:zoom="10.550996"
     inkscape:cx="23.741834"
     inkscape:cy="23.315334"
     inkscape:window-width="1600"
     inkscape:window-height="840"
     inkscape:window-x="0"
     inkscape:window-y="23"
     inkscape:window-maximized="1"
     inkscape:current-layer="layer1"><inkscape:grid
       type="xygrid"
       id="grid9"
       originx="0"
       originy="-5.9604643e-08" /></sodipodi:namedview><defs
     id="defs2" /><g
     inkscape:label="Layer 1"
     inkscape:groupmode="layer"
     id="layer1"><rect
       style="color:#000000;overflow:visible;fill:#ffffff;stroke:#999999;stroke-width:0.264583;stroke-dasharray:none"
       id="rect63"
       width="2.3812504"
       height="2.3812492"
       x="8.0697918"
       y="-2.5135407"
       transform="scale(1,-1)" /><rect
       style="color:#000000;overflow:visible;fill:#00ffff;stroke:#999999;stroke-width:0.264583;stroke-dasharray:none"
       id="rect1033"
       width="2.3812504"
       height="2.3812492"
       x="10.715625"
       y="-2.5135407"
       transform="scale(1,-1)" /><rect
       style="color:#000000;overflow:visible;fill:#00ffff;stroke:#999999;stroke-width:0.264583;stroke-dasharray:none"
       id="rect1035"
       width="2.3812504"
       height="2.3812492"
       x="13.361459"
       y="-2.5135407"
       transform="scale(1,-1)" /><rect
       style="color:#000000;overflow:visible;fill:#00ffff;stroke:#999999;stroke-width:0.264583;stroke-dasharray:none"
       id="rect1037"
       width="2.3812504"
       height="2.3812492"
       x="16.007292"
       y="-2.5135407"
       transform="scale(1,-1)" /><rect
       style="color:#000000;overflow:visible;fill:#ffffff;stroke:#999999;stroke-width:0.264583;stroke-dasharray:none"
       id="rect1072"
       width="2.3812504"
       height="2.3812492"
       x="8.0697918"
       y="-5.1593728"
       transform="scale(1,-1)" /><rect
       style="color:#000000;overflow:visible;fill:#ffffff;stroke:#999999;stroke-width:0.264583;stroke-dasharray:none"
       id="rect1076"
       width="2.3812504"
       height="2.3812492"
       x="13.361459"
       y="-5.1593728"
       transform="scale(1,-1)" /><rect
       style="color:#000000;overflow:visible;fill:#ffffff;stroke:#999999;stroke-width:0.264583;stroke-dasharray:none"
       id="rect1078"
       width="2.3812504"
       height="2.3812492"
       x="16.007292"
       y="-5.1593728"
       transform="scale(1,-1)" /><rect
       style="color:#000000;overflow:visible;fill:#ff6600;stroke:#999999;stroke-width:0.264583;stroke-dasharray:none"
       id="rect1082"
       width="2.3812504"
       height="2.3812492"
       x="8.0697918"
       y="-7.8052053"
       transform="scale(1,-1)" /><rect
       style="color:#000000;overflow:visible;fill:#ff6600;stroke:#999999;stroke-width:0.264583;stroke-dasharray:none"
       id="rect1084"
       width="2.3812504"
       height="2.3812492"
       x="10.715625"
       y="-7.8052053"
       transform="scale(1,-1)" /><rect
       style="color:#000000;overflow:visible;fill:#ffffff;stroke:#999999;stroke-width:0.264583;stroke-dasharray:none"
       id="rect1086"
       width="2.3812504"
       height="2.3812492"
       x="13.361459"
       y="-7.8052053"
       transform="scale(1,-1)" /><rect
       style="color:#000000;overflow:visible;fill:#ffffff;stroke:#999999;stroke-width:0.264583;stroke-dasharray:none"
       id="rect1088"
       width="2.3812504"
       height="2.3812492"
       x="16.007292"
       y="-7.8052053"
       transform="scale(1,-1)" /><rect
       style="color:#000000;overflow:visible;fill:#ff6600;stroke:#999999;stroke-width:0.264583;stroke-dasharray:none"
       id="rect1092"
       width="2.3812504"
       height="2.3812492"
       x="8.0697918"
       y="-10.451037"
       transform="scale(1,-1)" /><rect
       style="color:#000000;overflow:visible;fill:#ffffff;stroke:#999999;stroke-width:0.264583;stroke-dasharray:none"
       id="rect1094"
       width="2.3812504"
       height="2.3812492"
       x="10.715625"
       y="-10.451037"
       transform="scale(1,-1)" /><rect
       style="color:#000000;overflow:visible;fill:#ffffff;stroke:#999999;stroke-width:0.264583;stroke-dasharray:none"
       id="rect1096"
       width="2.3812504"
       height="2.3812492"
       x="13.361459"
       y="-10.451037"
       transform="scale(1,-1)" /><rect
       style="color:#000000;overflow:visible;fill:#ffffff;stroke:#999999;stroke-width:0.264583;stroke-dasharray:none"
       id="rect1098"
       width="2.3812504"
       height="2.3812492"
       x="16.007292"
       y="-10.451037"
       transform="scale(1,-1)" /><g
       id="g2881"
       transform="matrix(0.02480469,0,0,0.02480469,8.4666669,8.4666627)"
       style="stroke-width:10.6667"><g
         id="g2827"
         style="stroke-width:10.6667">
	<path
   d="m 63,58 h -3 v -3 c 0,-0.553 -0.448,-1 -1,-1 H 56 V 29 c 0,-0.379 -0.214,-0.725 -0.553,-0.895 l -3.66,-1.83 -1.858,-4.646 C 49.777,21.249 49.409,21 49,21 h -2.001 c -0.379,0 -0.725,0.214 -0.894,0.553 l -2,4 C 44.036,25.691 44,25.845 44,26 V 54 H 38 V 22 c 0,-0.315 -0.148,-0.611 -0.4,-0.8 l -4,-3 C 33.427,18.07 33.217,18 33,18 H 31.535 L 29.831,15.445 C 29.646,15.167 29.334,15 28.999,15 H 27 c -0.552,0 -1,0.447 -1,1 V 54 H 20 V 8.976 C 20.844,9.617 21.884,10 23,10 25.757,10 28,7.757 28,5 28,2.243 25.757,0 23,0 H 5 C 2.243,0 0,2.243 0,5 0,7.757 2.243,10 5,10 6.116,10 7.156,9.617 8,8.976 V 54 H 5 c -0.552,0 -1,0.447 -1,1 v 3 H 1 c -0.552,0 -1,0.447 -1,1 v 4 c 0,0.553 0.448,1 1,1 h 62 c 0.552,0 1,-0.447 1,-1 v -4 c 0,-0.553 -0.448,-1 -1,-1 z m -17,-22.586 2,2 V 42 c 0,0.266 0.105,0.52 0.293,0.707 l 2,2 1.414,-1.414 L 50,41.586 v -4.172 l 2.707,-2.707 -1.414,-1.414 -2.293,2.293 -3,-3 v -6.35 L 47.618,23 h 0.705 l 1.749,4.371 c 0.091,0.228 0.262,0.414 0.481,0.523 L 54,29.618 v 22.968 l -2,-2 V 48 h -2 v 2 h -2 v 2 h 2.586 l 2,2 H 46 Z m -18,12 2,-2 1,1 V 50 c 0,0.266 0.105,0.52 0.293,0.707 l 1.5,1.5 1.414,-1.414 L 33,49.586 V 46 c 0,-0.266 -0.106,-0.52 -0.293,-0.707 l -2,-2 c -0.391,-0.391 -1.023,-0.391 -1.414,0 L 28,44.586 V 28.63 l 2,2.25 V 36 c 0,0.266 0.105,0.52 0.293,0.707 l 2,2 1.414,-1.414 L 32,35.586 V 30.5 c 0,-0.025 -0.012,-0.048 -0.013,-0.073 l 1.72,-1.72 C 33.894,28.52 34,28.266 34,28 v -4 h -2 v 3.586 L 30.808,28.779 28,25.62 V 17 h 0.464 l 1.704,2.555 C 30.354,19.833 30.666,20 31,20 h 1.667 L 36,22.5 V 42.586 L 33.707,40.293 32.293,41.707 36,45.414 V 54 H 28 Z M 10,7 h 8 V 9 H 10 Z M 5,8 C 3.346,8 2,6.654 2,5 2,3.346 3.346,2 5,2 h 18 c 1.654,0 3,1.346 3,3 0,1.654 -1.346,3 -3,3 C 21.641,8 20.453,7.074 20.11,5.749 19.996,5.309 19.597,5 19.142,5 H 19 9 8.858 C 8.403,5 8.004,5.309 7.89,5.749 7.547,7.074 6.359,8 5,8 Z M 10,52.414 12.207,50.207 10.793,48.793 10,49.586 V 29.914 l 1.793,1.793 C 11.98,31.895 12.235,32 12.5,32 H 15 V 30 H 12.914 L 10,27.086 V 23.414 L 12.707,20.707 11.293,19.293 10,20.586 V 11 h 8 v 12.796 l -2,-1.75 V 17 c 0,-0.266 -0.106,-0.52 -0.293,-0.707 l -2.5,-2.5 -1.414,1.414 L 14,17.414 V 22.5 c 0,0.288 0.124,0.562 0.341,0.753 L 18,26.454 v 22.132 l -4,-4 V 39.414 L 16.207,37.207 14.793,35.793 14,36.586 12.707,35.293 11.293,36.707 12.586,38 12.293,38.293 C 12.105,38.48 12,38.734 12,39 v 6 c 0,0.266 0.105,0.52 0.293,0.707 L 18,51.414 V 54 H 10 Z M 6,56 h 3 10 8 10 8 10 3 v 2 H 6 Z m 56,6 H 2 v -2 h 3 54 3 z"
   id="path2825"
   style="stroke-width:10.6667" />
</g><g
         id="g2829"
         style="stroke-width:10.6667">
</g><g
         id="g2831"
         style="stroke-width:10.6667">
</g><g
         id="g2833"
         style="stroke-width:10.6667">
</g><g
         id="g2835"
         style="stroke-width:10.6667">
</g><g
         id="g2837"
         style="stroke-width:10.6667">
</g><g
         id="g2839"
         style="stroke-width:10.6667">
</g><g
         id="g2841"
         style="stroke-width:10.6667">
</g><g
         id="g2843"
         style="stroke-width:10.6667">
</g><g
         id="g2845"
         style="stroke-width:10.6667">
</g><g
         id="g2847"
         style="stroke-width:10.6667">
</g><g
         id="g2849"
         style="stroke-width:10.6667">
</g><g
         id="g2851"
         style="stroke-width:10.6667">
</g><g
         id="g2853"
         style="stroke-width:10.6667">
</g><g
         id="g2855"
         style="stroke-width:10.6667">
</g><g
         id="g2857"
         style="stroke-width:10.6667">
</g></g><g
       id="g2917"
       transform="matrix(0.02480469,0,0,0.02480469,16.404167,0.52916607)"
       style="stroke-width:10.6667"><g
         id="g2885"
         style="stroke-width:10.6667">
	<path
   d="m 63,58 h -3 v -3 c 0,-0.553 -0.448,-1 -1,-1 H 56 V 29 c 0,-0.379 -0.214,-0.725 -0.553,-0.895 l -3.66,-1.83 -1.858,-4.646 C 49.777,21.249 49.409,21 49,21 h -2.001 c -0.379,0 -0.725,0.214 -0.894,0.553 l -2,4 C 44.036,25.691 44,25.845 44,26 V 54 H 38 V 22 c 0,-0.315 -0.148,-0.611 -0.4,-0.8 l -4,-3 C 33.427,18.07 33.217,18 33,18 H 31.535 L 29.831,15.445 C 29.646,15.167 29.334,15 28.999,15 H 27 c -0.552,0 -1,0.447 -1,1 V 54 H 20 V 8.976 C 20.844,9.617 21.884,10 23,10 25.757,10 28,7.757 28,5 28,2.243 25.757,0 23,0 H 5 C 2.243,0 0,2.243 0,5 0,7.757 2.243,10 5,10 6.116,10 7.156,9.617 8,8.976 V 54 H 5 c -0.552,0 -1,0.447 -1,1 v 3 H 1 c -0.552,0 -1,0.447 -1,1 v 4 c 0,0.553 0.448,1 1,1 h 62 c 0.552,0 1,-0.447 1,-1 v -4 c 0,-0.553 -0.448,-1 -1,-1 z m -17,-22.586 2,2 V 42 c 0,0.266 0.105,0.52 0.293,0.707 l 2,2 1.414,-1.414 L 50,41.586 v -4.172 l 2.707,-2.707 -1.414,-1.414 -2.293,2.293 -3,-3 v -6.35 L 47.618,23 h 0.705 l 1.749,4.371 c 0.091,0.228 0.262,0.414 0.481,0.523 L 54,29.618 v 22.968 l -2,-2 V 48 h -2 v 2 h -2 v 2 h 2.586 l 2,2 H 46 Z m -18,12 2,-2 1,1 V 50 c 0,0.266 0.105,0.52 0.293,0.707 l 1.5,1.5 1.414,-1.414 L 33,49.586 V 46 c 0,-0.266 -0.106,-0.52 -0.293,-0.707 l -2,-2 c -0.391,-0.391 -1.023,-0.391 -1.414,0 L 28,44.586 V 28.63 l 2,2.25 V 36 c 0,0.266 0.105,0.52 0.293,0.707 l 2,2 1.414,-1.414 L 32,35.586 V 30.5 c 0,-0.025 -0.012,-0.048 -0.013,-0.073 l 1.72,-1.72 C 33.894,28.52 34,28.266 34,28 v -4 h -2 v 3.586 L 30.808,28.779 28,25.62 V 17 h 0.464 l 1.704,2.555 C 30.354,19.833 30.666,20 31,20 h 1.667 L 36,22.5 V 42.586 L 33.707,40.293 32.293,41.707 36,45.414 V 54 H 28 Z M 10,7 h 8 V 9 H 10 Z M 5,8 C 3.346,8 2,6.654 2,5 2,3.346 3.346,2 5,2 h 18 c 1.654,0 3,1.346 3,3 0,1.654 -1.346,3 -3,3 C 21.641,8 20.453,7.074 20.11,5.749 19.996,5.309 19.597,5 19.142,5 H 19 9 8.858 C 8.403,5 8.004,5.309 7.89,5.749 7.547,7.074 6.359,8 5,8 Z M 10,52.414 12.207,50.207 10.793,48.793 10,49.586 V 29.914 l 1.793,1.793 C 11.98,31.895 12.235,32 12.5,32 H 15 V 30 H 12.914 L 10,27.086 V 23.414 L 12.707,20.707 11.293,19.293 10,20.586 V 11 h 8 v 12.796 l -2,-1.75 V 17 c 0,-0.266 -0.106,-0.52 -0.293,-0.707 l -2.5,-2.5 -1.414,1.414 L 14,17.414 V 22.5 c 0,0.288 0.124,0.562 0.341,0.753 L 18,26.454 v 22.132 l -4,-4 V 39.414 L 16.207,37.207 14.793,35.793 14,36.586 12.707,35.293 11.293,36.707 12.586,38 12.293,38.293 C 12.105,38.48 12,38.734 12,39 v 6 c 0,0.266 0.105,0.52 0.293,0.707 L 18,51.414 V 54 H 10 Z M 6,56 h 3 10 8 10 8 10 3 v 2 H 6 Z m 56,6 H 2 v -2 h 3 54 3 z"
   id="path2883"
   style="stroke-width:10.6667" />
</g><g
         id="g2887"
         style="stroke-width:10.6667">
</g><g
         id="g2889"
         style="stroke-width:10.6667">
</g><g
         id="g2891"
         style="stroke-width:10.6667">
</g><g
         id="g2893"
         style="stroke-width:10.6667">
</g><g
         id="g2895"
         style="stroke-width:10.6667">
</g><g
         id="g2897"
         style="stroke-width:10.6667">
</g><g
         id="g2899"
         style="stroke-width:10.6667">
</g><g
         id="g2901"
         style="stroke-width:10.6667">
</g><g
         id="g2903"
         style="stroke-width:10.6667">
</g><g
         id="g2905"
         style="stroke-width:10.6667">
</g><g
         id="g2907"
         style="stroke-width:10.6667">
</g><g
         id="g2909"
         style="stroke-width:10.6667">
</g><g
         id="g2911"
         style="stroke-width:10.6667">
</g><g
         id="g2913"
         style="stroke-width:10.6667">
</g><g
         id="g2915"
         style="stroke-width:10.6667">
</g></g><g
       id="g8016"
       transform="translate(0,-2.6458325)"><rect
         style="color:#000000;overflow:visible;fill:#d38d5f;stroke:#999999;stroke-width:0.264583;stroke-dasharray:none"
         id="rect1830"
         width="2.3812504"
         height="2.3812492"
         x="10.715625"
         y="-7.8052053"
         transform="scale(1,-1)" /><g
         id="g1878"
         transform="matrix(0.00310055,0,0,0.00310055,11.112501,5.4806967)"
         style="stroke-width:85.3341"><g
           id="g1846"
           style="stroke-width:85.3341"><g
             id="g1844"
             style="stroke-width:85.3341"><g
               id="g1842"
               style="stroke-width:85.3341"><path
                 d="m 4.475,425.637 c 1.289,0.7 2.679,1.033 4.053,1.033 3.029,0 5.965,-1.613 7.509,-4.471 L 127.192,216.964 c 0.239,-0.495 5.973,-12.16 17.877,-12.16 1.69,0 3.593,0.853 5.47,2.005 L 77.879,337.18 c -2.295,4.122 -0.811,9.318 3.302,11.614 1.314,0.725 2.739,1.075 4.147,1.075 2.995,0 5.897,-1.579 7.467,-4.378 l 71.552,-128.401 26.803,20.139 c 3.396,2.56 8.149,2.21 11.153,-0.794 l 45.167,-45.167 28.1,28.1 c 3.337,3.337 8.73,3.337 12.066,0 l 25.6,-25.6 c 3.337,-3.337 3.337,-8.73 0,-12.066 -3.337,-3.336 -8.73,-3.337 -12.066,0 l -19.567,19.567 -28.1,-28.1 c -3.337,-3.337 -8.73,-3.337 -12.066,0 l -45.969,45.969 -28.058,-21.043 -0.99,-0.785 c -4.489,-3.584 -12.006,-9.574 -21.35,-9.574 -22.929,0 -32.93,21.129 -33.101,21.538 L 1.036,414.074 c -2.253,4.139 -0.708,9.318 3.439,11.563 z"
                 id="path1832"
                 style="stroke-width:85.3341" /><path
                 d="M 110.937,443.736 H 8.537 c -4.71,0 -8.533,3.823 -8.533,8.533 0,4.71 3.823,8.533 8.533,8.533 h 102.4 c 4.71,0 8.533,-3.823 8.533,-8.533 0,-4.71 -3.823,-8.533 -8.533,-8.533 z"
                 id="path1834"
                 style="stroke-width:85.3341" /><path
                 d="m 173.281,182.582 c 4.147,2.244 9.318,0.691 11.563,-3.456 l 53.282,-98.697 c 0.239,-0.495 5.973,-12.16 17.877,-12.16 11.904,0 17.638,11.665 18.108,12.621 L 418.41,345.449 c 1.553,2.842 4.48,4.446 7.501,4.446 1.382,0 2.782,-0.333 4.079,-1.041 4.139,-2.261 5.666,-7.441 3.405,-11.58 L 394.44,265.867 c 2.099,-0.87 4.318,-1.331 6.63,-1.331 11.904,0 17.638,11.665 18.057,12.518 l 76.8,145.075 c 1.536,2.893 4.489,4.54 7.552,4.54 1.348,0 2.714,-0.316 3.985,-0.99 4.164,-2.21 5.751,-7.373 3.55,-11.537 L 434.419,269.493 c -0.418,-0.896 -10.419,-22.025 -33.348,-22.025 -5.197,0 -10.146,1.271 -14.771,3.473 L 289.352,73.227 c -0.418,-0.896 -10.419,-22.025 -33.348,-22.025 -22.938,0 -32.93,21.129 -33.109,21.547 l -53.069,98.27 c -2.236,4.139 -0.692,9.318 3.455,11.563 z"
                 id="path1836"
                 style="stroke-width:85.3341" /><path
                 d="m 452.27,443.736 h -93.867 c -25.57741,0.43828 -37.58191,0.001 -68.267,0.001 H 153.603 V 426.67 h 17.067 0.171 c 4.71,0 8.533,-3.823 8.533,-8.533 0,-1.647 -0.469,-3.183 -1.271,-4.48 l -25.037,-66.782 c -1.254,-3.328 -4.437,-5.538 -7.996,-5.538 -3.558,0 -6.741,2.21 -7.996,5.538 l -25.591,68.267 c -0.981,2.62 -0.623,5.555 0.973,7.859 1.596,2.295 4.215,3.669 7.014,3.669 h 17.067 v 25.6 c 0,4.71 3.823,8.533 8.533,8.533 h 307.2 c 4.71,0 8.533,-3.823 8.533,-8.533 0,-4.71 -3.822,-8.534 -8.533,-8.534 z m -320.486,-34.133 13.286,-35.43 13.286,35.43 z"
                 id="path1838"
                 style="stroke-width:85.3341"
                 sodipodi:nodetypes="scccccssccscccscssssscccc" /><path
                 d="m 503.47,443.736 h -17.067 c -4.71,0 -8.533,3.823 -8.533,8.533 0,4.71 3.823,8.533 8.533,8.533 h 17.067 c 4.71,0 8.533,-3.823 8.533,-8.533 0,-4.71 -3.822,-8.533 -8.533,-8.533 z"
                 id="path1840"
                 style="stroke-width:85.3341" /></g></g></g><g
           id="g1848"
           style="stroke-width:85.3341" /><g
           id="g1850"
           style="stroke-width:85.3341" /><g
           id="g1852"
           style="stroke-width:85.3341" /><g
           id="g1854"
           style="stroke-width:85.3341" /><g
           id="g1856"
           style="stroke-width:85.3341" /><g
           id="g1858"
           style="stroke-width:85.3341" /><g
           id="g1860"
           style="stroke-width:85.3341" /><g
           id="g1862"
           style="stroke-width:85.3341" /><g
           id="g1864"
           style="stroke-width:85.3341" /><g
           id="g1866"
           style="stroke-width:85.3341" /><g
           id="g1868"
           style="stroke-width:85.3341" /><g
           id="g1870"
           style="stroke-width:85.3341" /><g
           id="g1872"
           style="stroke-width:85.3341" /><g
           id="g1874"
           style="stroke-width:85.3341" /><g
           id="g1876"
           style="stroke-width:85.3341" /></g><path
         d="m 12.604916,6.8201882 v -0.0052 h -4.33e-4 c -0.0026,-0.06402 -0.04585,-0.127609 -0.130419,-0.176273 -0.17346,-0.1001393 -0.454629,-0.1001393 -0.627007,0 -0.0863,0.05018 -0.129122,0.115928 -0.128906,0.181679 v 0 0.13561 0.0024 0.133231 0.0024 0.133231 0.0024 0.1356077 c 4.33e-4,0.06575 0.04412,0.131501 0.130852,0.181463 0.08695,0.05018 0.200495,0.07527 0.313828,0.07527 0.113549,0 0.226666,-0.02509 0.313179,-0.07527 0.0863,-0.05018 0.129122,-0.115929 0.128906,-0.181463 v -0.1356077 -0.0076 -0.12804 -0.008 -0.128041 -0.0076 -0.130203 c 0,2.17e-4 0,0 0,0 z m -0.667669,-0.08132 0.02401,-0.01384 c 0.0061,-0.0035 0.01557,-0.0035 0.02184,0 l 0.02963,0.01709 c 0.0065,-0.0039 0.01319,-0.0076 0.01968,-0.01146 l -0.02963,-0.01709 c -0.0061,-0.0035 -0.0061,-0.0091 0,-0.01254 l 0.02401,-0.01384 c 0.0061,-0.0035 0.01579,-0.0035 0.02184,0 l 0.03785,0.02185 0.005,-0.0015 c 0.04239,-0.01298 0.08738,-0.01882 0.135394,-0.01536 0.03763,0.0028 0.07137,0.01168 0.102302,0.02466 0.01211,0.005 0.02336,0.0106 0.03352,0.01644 0.02682,0.01557 0.04737,0.03374 0.06337,0.05429 l 0.0032,0.0056 c 0.0037,0.0076 -6.49e-4,0.01276 -0.01341,0.01579 -0.01341,0.0035 -0.02704,0.0065 -0.04066,0.0095 -0.0095,0.0019 -0.01622,0.0015 -0.02206,-0.002 -0.0015,-8.66e-4 -0.0028,-0.0019 -0.0043,-0.003 -0.0091,-0.0084 -0.0173,-0.01752 -0.02703,-0.02574 -0.0086,-0.0076 -0.01817,-0.01471 -0.02898,-0.02098 -0.01427,-0.0082 -0.03071,-0.01514 -0.05039,-0.0199 -0.02942,-0.0074 -0.05818,-0.0056 -0.08716,0.0011 l -0.0011,2.16e-4 0.07332,0.04239 c 0.0061,0.0035 0.0061,0.0091 0,0.01254 l -0.02401,0.01384 c -0.0061,0.0035 -0.01579,0.0035 -0.02185,0 l -0.08413,-0.04845 c -0.0063,0.0037 -0.01298,0.0076 -0.01968,0.01146 l 0.08413,0.04845 c 0.0061,0.0035 0.0061,0.0091 0,0.01254 l -0.02401,0.01384 c -0.0061,0.0035 -0.01557,0.0035 -0.02185,0 l -0.07673,-0.04434 c -0.01709,0.02076 -0.02249,0.04131 -0.0032,0.06272 0.0082,0.0091 0.01882,0.01709 0.03115,0.02422 0.01081,0.0063 0.02271,0.01168 0.03547,0.01665 0.01427,0.0052 0.02941,0.0099 0.04412,0.01536 0.0024,8.65e-4 0.0043,0.0017 0.0061,0.0028 0.0058,0.0035 0.0067,0.0074 0.0032,0.01276 -0.005,0.0082 -0.0106,0.01622 -0.01665,0.02401 -0.005,0.0071 -0.01427,0.0097 -0.02768,0.0071 -0.01341,-0.003 -0.0266,-0.0067 -0.03958,-0.01081 -0.02379,-0.0078 -0.0452,-0.01687 -0.0638,-0.02768 -0.01947,-0.01125 -0.0359,-0.02422 -0.0491,-0.03893 -0.03093,-0.03504 -0.03028,-0.07072 -0.005,-0.106628 0.005,-0.0071 0.0119,-0.01341 0.01795,-0.02011 l -0.0359,-0.02076 c -0.0052,-0.0032 -0.0052,-0.0089 8.65e-4,-0.01233 z m -0.08824,0.263001 c 0.173676,0.100356 0.454413,0.100356 0.627007,0 0.02682,-0.01557 0.0491,-0.03287 0.06748,-0.05104 v 0.0076 c 2.17e-4,0.04499 -0.03569,0.09192 -0.09841,0.128256 -0.0744,0.04326 -0.174541,0.06705 -0.28225,0.06705 -0.10771,0 -0.208498,-0.02379 -0.283332,-0.06705 -0.06337,-0.03655 -0.09992,-0.0837 -0.100356,-0.128472 v -0.0089 c 0.01925,0.0186 0.04218,0.03655 0.06986,0.05256 z m 0.596295,0.3557857 c -0.0744,0.04326 -0.174541,0.06705 -0.28225,0.06705 -0.10771,0 -0.208498,-0.02379 -0.283332,-0.06705 -0.06337,-0.03655 -0.09992,-0.0837 -0.100356,-0.1284707 v -0.0065 c 0.01903,0.01882 0.04174,0.03655 0.06964,0.05256 0.08695,0.05018 0.200495,0.07527 0.313828,0.07527 0.113549,0 0.226665,-0.02509 0.313179,-0.07527 0.02682,-0.01557 0.0491,-0.03287 0.06748,-0.05104 v 0.0054 c 4.32e-4,0.04499 -0.03547,0.0917 -0.09819,0.1280377 z m 0,-0.1353917 c -0.0744,0.04326 -0.174541,0.06705 -0.28225,0.06705 -0.10771,0 -0.208498,-0.02379 -0.283332,-0.06705 -0.06337,-0.03655 -0.09992,-0.0837 -0.100356,-0.128473 v -0.0065 c 0.01903,0.01882 0.04174,0.03655 0.06964,0.05256 0.08695,0.05018 0.200495,0.07527 0.313828,0.07527 0.113549,0 0.226665,-0.02509 0.313179,-0.07527 0.02682,-0.01557 0.0491,-0.03287 0.06748,-0.05104 v 0.0054 c 4.32e-4,0.04477 -0.03547,0.09149 -0.09819,0.12804 z m 0,0.2710017 c -0.0744,0.04326 -0.174541,0.06705 -0.28225,0.06705 -0.10771,0 -0.208498,-0.02379 -0.283332,-0.06705 -0.06337,-0.03655 -0.09992,-0.0837 -0.100356,-0.128473 v -0.0065 c 0.01903,0.01882 0.04174,0.03655 0.06964,0.05256 0.08695,0.05018 0.200495,0.07527 0.313828,0.07527 0.113549,0 0.226665,-0.02509 0.313179,-0.07527 0.02682,-0.01557 0.0491,-0.03287 0.06748,-0.05104 v 0.0054 c 4.32e-4,0.04477 -0.03547,0.0917 -0.09819,0.12804 z"
         id="path1880"
         style="fill:#ffcc00;stroke-width:0.264582" /></g></g></svg>
