<?xml version="1.0" encoding="UTF-8" standalone="no"?>
<!-- Created with Inkscape (http://www.inkscape.org/) -->

<svg
   width="26.458334mm"
   height="10.583329mm"
   viewBox="0 0 26.458334 10.583329"
   version="1.1"
   id="svg5"
   sodipodi:docname="dobrik-of-lorkheim.svg"
   inkscape:version="1.2 (dc2aedaf03, 2022-05-15)"
   xml:space="preserve"
   xmlns:inkscape="http://www.inkscape.org/namespaces/inkscape"
   xmlns:sodipodi="http://sodipodi.sourceforge.net/DTD/sodipodi-0.dtd"
   xmlns="http://www.w3.org/2000/svg"
   xmlns:svg="http://www.w3.org/2000/svg"><sodipodi:namedview
     id="namedview7"
     pagecolor="#ffffff"
     bordercolor="#666666"
     borderopacity="1.0"
     inkscape:showpageshadow="2"
     inkscape:pageopacity="0.0"
     inkscape:pagecheckerboard="0"
     inkscape:deskcolor="#d1d1d1"
     inkscape:document-units="px"
     showgrid="true"
     inkscape:zoom="8.2608108"
     inkscape:cx="60.345166"
     inkscape:cy="29.537052"
     inkscape:window-width="1600"
     inkscape:window-height="840"
     inkscape:window-x="0"
     inkscape:window-y="23"
     inkscape:window-maximized="1"
     inkscape:current-layer="layer1"><inkscape:grid
       type="xygrid"
       id="grid9"
       originx="0"
       originy="-5.9604643e-08" /></sodipodi:namedview><defs
     id="defs2" /><g
     inkscape:label="Layer 1"
     inkscape:groupmode="layer"
     id="layer1"><rect
       style="color:#000000;overflow:visible;fill:#ffffff;stroke:#999999;stroke-width:0.264583;stroke-dasharray:none"
       id="rect63"
       width="2.3812504"
       height="2.3812492"
       x="8.0697918"
       y="-2.5135407"
       transform="scale(1,-1)" /><rect
       style="color:#000000;overflow:visible;fill:#ffffff;stroke:#999999;stroke-width:0.264583;stroke-dasharray:none"
       id="rect1033"
       width="2.3812504"
       height="2.3812492"
       x="10.715625"
       y="-2.5135407"
       transform="scale(1,-1)" /><rect
       style="color:#000000;overflow:visible;fill:#ffffff;stroke:#999999;stroke-width:0.264583;stroke-dasharray:none"
       id="rect1035"
       width="2.3812504"
       height="2.3812492"
       x="13.361459"
       y="-2.5135407"
       transform="scale(1,-1)" /><rect
       style="color:#000000;overflow:visible;fill:#ffffff;stroke:#999999;stroke-width:0.264583;stroke-dasharray:none"
       id="rect1037"
       width="2.3812504"
       height="2.3812492"
       x="16.007292"
       y="-2.5135407"
       transform="scale(1,-1)" /><rect
       style="color:#000000;overflow:visible;fill:#ffffff;stroke:#999999;stroke-width:0.264583;stroke-dasharray:none"
       id="rect1072"
       width="2.3812504"
       height="2.3812492"
       x="8.0697918"
       y="-5.1593728"
       transform="scale(1,-1)" /><rect
       style="color:#000000;overflow:visible;fill:#ffff00;stroke:#999999;stroke-width:0.264583;stroke-dasharray:none"
       id="rect1074"
       width="2.3812504"
       height="2.3812492"
       x="10.715625"
       y="-5.1593728"
       transform="scale(1,-1)" /><rect
       style="color:#000000;overflow:visible;fill:#ffffff;stroke:#999999;stroke-width:0.264583;stroke-dasharray:none"
       id="rect1076"
       width="2.3812504"
       height="2.3812492"
       x="13.361459"
       y="-5.1593728"
       transform="scale(1,-1)" /><rect
       style="color:#000000;overflow:visible;fill:#ffffff;stroke:#999999;stroke-width:0.264583;stroke-dasharray:none"
       id="rect1078"
       width="2.3812504"
       height="2.3812492"
       x="16.007292"
       y="-5.1593728"
       transform="scale(1,-1)" /><rect
       style="color:#000000;overflow:visible;fill:#ffffff;stroke:#999999;stroke-width:0.264583;stroke-dasharray:none"
       id="rect1082"
       width="2.3812504"
       height="2.3812492"
       x="8.0697918"
       y="-7.8052053"
       transform="scale(1,-1)" /><rect
       style="color:#000000;overflow:visible;fill:#ffffff;stroke:#999999;stroke-width:0.264583;stroke-dasharray:none"
       id="rect1084"
       width="2.3812504"
       height="2.3812492"
       x="10.715625"
       y="-7.8052053"
       transform="scale(1,-1)" /><rect
       style="color:#000000;overflow:visible;fill:#ffffff;stroke:#999999;stroke-width:0.264583;stroke-dasharray:none"
       id="rect1086"
       width="2.3812504"
       height="2.3812492"
       x="13.361459"
       y="-7.8052053"
       transform="scale(1,-1)" /><rect
       style="color:#000000;overflow:visible;fill:#ffffff;stroke:#999999;stroke-width:0.264583;stroke-dasharray:none"
       id="rect1088"
       width="2.3812504"
       height="2.3812492"
       x="16.007292"
       y="-7.8052053"
       transform="scale(1,-1)" /><rect
       style="color:#000000;overflow:visible;fill:#ffffff;stroke:#999999;stroke-width:0.264583;stroke-dasharray:none"
       id="rect1092"
       width="2.3812504"
       height="2.3812492"
       x="8.0697918"
       y="-10.451037"
       transform="scale(1,-1)" /><rect
       style="color:#000000;overflow:visible;fill:#ffffff;stroke:#999999;stroke-width:0.264583;stroke-dasharray:none"
       id="rect1094"
       width="2.3812504"
       height="2.3812492"
       x="10.715625"
       y="-10.451037"
       transform="scale(1,-1)" /><rect
       style="color:#000000;overflow:visible;fill:#ffffff;stroke:#999999;stroke-width:0.264583;stroke-dasharray:none"
       id="rect1096"
       width="2.3812504"
       height="2.3812492"
       x="13.361459"
       y="-10.451037"
       transform="scale(1,-1)" /><rect
       style="color:#000000;overflow:visible;fill:#ffffff;stroke:#999999;stroke-width:0.264583;stroke-dasharray:none"
       id="rect1098"
       width="2.3812504"
       height="2.3812492"
       x="16.007292"
       y="-10.451037"
       transform="scale(1,-1)" /><g
       id="g3684"
       transform="matrix(0.00514468,0,0,0.00514468,10.980208,0.39687375)"
       style="stroke-width:51.4286"><g
         id="XMLID_796_"
         style="stroke-width:51.4286">
	<path
   id="XMLID_802_"
   d="M 180,0 C 97.157,0 30,67.157 30,150 v 105 0.667 h 0.016 c 0.337,13.559 10.867,27.961 23.701,32.239 L 105,305 v 30 c 0,13.75 11.25,25 25,25 h 100 c 13.75,0 25,-11.25 25,-25 v -30 l 51.283,-17.094 c 12.834,-4.278 23.364,-18.681 23.701,-32.239 H 330 V 255 150 C 330,67.157 262.843,0 180,0 Z m 55,160 c 24.853,0 45,20.146 45,45 0,24.854 -20.147,45 -45,45 -24.853,0 -45,-20.146 -45,-45 0,-24.854 20.146,-45 45,-45 z m -110,0 c 24.854,0 45,20.146 45,45 0,24.854 -20.146,45 -45,45 -24.854,0 -45,-20.146 -45,-45 0,-24.854 20.146,-45 45,-45 z m 75,120 c 0,11.046 -8.954,20 -20,20 -11.046,0 -20,-8.954 -20,-20 0,-11.046 20,-40 20,-40 0,0 20,28.954 20,40 z"
   style="stroke-width:51.4286" />
</g><g
         id="g3632"
         style="stroke-width:51.4286">
</g><g
         id="g3634"
         style="stroke-width:51.4286">
</g><g
         id="g3636"
         style="stroke-width:51.4286">
</g><g
         id="g3638"
         style="stroke-width:51.4286">
</g><g
         id="g3640"
         style="stroke-width:51.4286">
</g><g
         id="g3642"
         style="stroke-width:51.4286">
</g><g
         id="g3644"
         style="stroke-width:51.4286">
</g><g
         id="g3646"
         style="stroke-width:51.4286">
</g><g
         id="g3648"
         style="stroke-width:51.4286">
</g><g
         id="g3650"
         style="stroke-width:51.4286">
</g><g
         id="g3652"
         style="stroke-width:51.4286">
</g><g
         id="g3654"
         style="stroke-width:51.4286">
</g><g
         id="g3656"
         style="stroke-width:51.4286">
</g><g
         id="g3658"
         style="stroke-width:51.4286">
</g><g
         id="g3660"
         style="stroke-width:51.4286">
</g></g><g
       transform="matrix(1.8898893e-4,0,0,-1.8898893e-4,10.961286,3.9895363)"
       id="g3720"
       style="stroke-width:139.999"><path
         d="m 4251.8,4993.3 c -85,-27 -174.1,-78.8 -217.6,-126.4 -82.9,-93.3 -201,-165.8 -273.6,-165.8 -82.9,0 -161.7,72.5 -182.4,165.8 -29,134.7 -107.8,107.8 -167.9,-56 -66.3,-190.7 -10.4,-366.8 151.3,-476.7 184.4,-120.2 304.7,-109.8 538.9,47.7 76.7,53.9 209.3,132.6 294.3,178.2 130.6,70.5 174.1,85 279.8,85 70.5,0 147.1,-10.4 174.1,-24.9 41.5,-22.8 45.6,-20.7 45.6,26.9 0,130.6 -126.4,277.7 -286,331.6 -99.5,35.3 -267.4,41.5 -356.5,14.6 z"
         id="path3686"
         style="stroke-width:139.999" /><path
         d="m 3014.5,4576.7 c -85,-35.2 -116.1,-109.8 -99.5,-246.6 14.5,-120.2 12.4,-124.4 -37.3,-136.8 -26.9,-8.3 -97.4,-4.2 -155.4,6.2 l -105.7,18.7 33.2,-64.3 c 18.6,-35.2 82.9,-116.1 145.1,-180.3 223.8,-234.2 588.6,-323.3 922.3,-221.8 116.1,33.1 277.7,184.5 292.2,269.4 8.3,37.3 18.7,89.1 26.9,114 l 12.4,47.7 -97.4,-43.5 c -126.4,-56 -310.9,-72.5 -414.5,-39.4 -153.4,51.8 -342,273.6 -342,404.1 0,37.3 -14.5,58 -53.9,72.5 -62.1,25 -66.3,25 -126.4,0.1 z"
         id="path3688"
         style="stroke-width:139.999" /><path
         d="m 4513,4506.3 c -124.4,-45.6 -223.8,-138.9 -292.2,-271.5 -56,-109.8 -62.2,-140.9 -62.2,-319.2 0,-225.9 31.1,-310.9 136.8,-364.8 33.2,-18.6 93.3,-82.9 132.6,-145.1 93.3,-143 172,-172 375.1,-138.9 147.2,24.9 188.6,51.8 277.7,180.3 111.9,161.7 159.6,474.6 103.6,677.7 -33.1,120.2 -147.1,269.4 -252.8,333.7 -116.1,72.6 -296.4,93.3 -418.6,47.8 z m 555.4,-356.5 c 49.7,-103.6 62.2,-308.8 29,-420.7 -43.5,-143 -68.4,-145.1 -257,-37.3 -161.7,93.3 -344,159.6 -437.3,159.6 -41.5,0 -47.7,10.4 -47.7,89.1 v 89.1 l 161.7,24.9 c 107.8,16.6 203.1,47.7 294.3,95.3 176.2,93.2 211.4,93.2 257,0 z"
         id="path3690"
         style="stroke-width:139.999" /><path
         d="m 4253.9,3196.4 c -47.7,-68.4 -49.7,-76.7 -18.7,-128.5 39.4,-68.4 252.8,-215.5 371,-252.9 82.9,-29 91.2,-26.9 217.6,39.4 147.1,76.7 298.4,211.4 298.4,265.3 0,20.7 -18.7,60.1 -41.5,89.1 l -39.4,51.8 -47.7,-45.6 c -157.5,-149.2 -480.8,-147.1 -638.3,4.2 l -51.8,49.7 z"
         id="path3692"
         style="stroke-width:139.999" /><path
         d="m 3858,3026.5 c -97.4,-29 -178.2,-53.9 -180.3,-53.9 -6.2,-4.2 217.6,-1900.5 223.8,-1906.7 6.2,-4.2 594.8,-244.6 675.6,-275.7 22.8,-8.3 26.9,170 24.9,918.1 v 930.5 l -167.9,80.8 c -180.3,85 -337.8,223.8 -360.6,310.9 -6.2,29 -18.7,53.9 -26.9,51.8 -6.2,-1.9 -91.1,-26.8 -188.6,-55.8 z"
         id="path3694"
         style="stroke-width:139.999" /><path
         d="m 5230,2983 c -58,-93.3 -252.8,-246.6 -402.1,-315 l -58,-24.9 v -930.6 c 0,-509.8 6.2,-928.5 16.6,-926.4 8.3,0 159.6,64.2 335.8,138.8 269.4,118.1 321.2,147.1 317.1,180.3 -41.5,352.3 -60.1,1268.4 -33.1,1550.2 l 12.4,143 118.1,-14.5 c 111.9,-12.4 120.2,-10.4 130.6,35.2 18.7,66.3 18.7,161.7 -2.1,161.7 -8.3,0 -95.3,22.8 -194.8,49.7 l -178.2,49.7 z"
         id="path3696"
         style="stroke-width:139.999" /><path
         d="m 3447.7,2518.7 -109.8,-240.4 53.9,-232.1 c 29,-126.4 51.8,-234.2 51.8,-238.3 0,-4.1 56,-35.2 126.4,-70.5 l 124.4,-64.3 -10.4,68.4 c -6.2,37.3 -35.2,273.6 -66.3,524.3 -29,250.8 -53.9,464.2 -58,474.6 -2.2,10.4 -51.9,-89 -112,-221.7 z"
         id="path3698"
         style="stroke-width:139.999" /><path
         d="m 6705.7,2688.7 c -18.7,-31.1 -234.2,-134.7 -360.6,-174.1 -68.4,-20.7 -221.8,-41.5 -383.4,-49.7 l -269.4,-12.4 6.2,-362.7 c 31,-1728.6 410.3,-3005.2 986.5,-3307.8 109.8,-56 116.1,-58 182.4,-24.9 335.8,161.7 625.9,713 771,1467.3 95.3,493.3 120.2,791.7 130.6,1556.5 l 10.4,719.2 -213.5,-10.4 c -273.6,-12.4 -470.5,26.9 -688.1,136.8 -87.2,43.5 -165.9,72.5 -172.1,62.2 z m 232.1,-507.8 c 82.9,-26.9 199,-53.9 259.1,-60.1 62.2,-6.2 134.7,-16.6 161.7,-22.8 l 49.7,-10.4 -14.5,-418.6 C 7362.7,757.1 7257,98 7072.5,-364.1 c -74.6,-186.5 -240.4,-447.7 -281.9,-447.7 -47.7,0 -217.6,259.1 -304.7,460.1 -205.1,476.7 -337.7,1168.9 -389.6,2045.6 -22.8,391.7 -22.8,395.8 85,395.8 76.7,0 354.4,74.6 458,122.3 49.7,20.7 103.6,35.2 120.2,29 16.6,-6.2 97.5,-33.2 178.3,-60.1 z"
         id="path3700"
         style="stroke-width:139.999" /><path
         d="m 3165.8,1894.9 c -64.2,-147.1 -66.3,-149.2 -8.3,-325.4 l 43.5,-138.9 172,-45.6 c 93.3,-24.9 180.3,-39.4 190.7,-33.2 31.1,18.7 76.7,163.7 53.9,172 -10.4,4.1 -82.9,41.4 -163.7,85 l -145.1,76.7 -33.2,134.7 c -49.7,207.3 -49.7,207.3 -109.8,74.7 z"
         id="path3702"
         style="stroke-width:139.999" /><path
         d="M 2755.5,1111.5 C 2436.3,585.1 2461.2,616.2 2421.8,694.9 c -39.4,72.5 -82.9,95.3 -116.1,62.2 -31.1,-31.1 -29,-49.8 20.7,-172 L 2372,477.3 2303.6,367.4 c -138.9,-225.9 -39.4,-416.6 199,-383.4 80.8,10.4 89.1,6.2 111.9,-51.8 14.5,-33.2 22.8,-64.3 18.7,-66.3 -4.1,-4.1 -99.5,-47.7 -209.3,-97.4 -169.9,-74.6 -203.1,-97.4 -203.1,-134.7 0,-26.9 14.5,-58 31.1,-72.5 26.9,-22.8 62.2,-12.4 201,49.7 93.3,41.5 176.2,68.4 184.4,60.1 8.3,-8.3 385.5,-851.8 837.3,-1871.5 451.8,-1019.7 845.6,-1894.3 872.5,-1941.9 72.5,-126.4 298.4,-420.7 321.2,-420.7 31.1,0 20.7,124.3 -31.1,352.3 -43.5,190.7 -157.5,464.3 -880.8,2093.2 -456,1032.1 -831.1,1888.1 -835.2,1904.6 -4.1,18.6 58,56 170,107.8 147.1,64.2 178.2,87 182.4,130.6 12.4,101.5 -51.8,101.5 -275.6,0 -114,-49.7 -215.5,-89.1 -228,-82.9 -12.4,4.2 -37.3,45.6 -56,91.2 l -31.1,82.9 402.1,530.5 c 456,603.1 439.4,534.7 153.4,603.1 -143,35.2 -153.4,41.4 -180.3,111.9 -16.6,41.4 -37.3,91.2 -45.6,111.9 -10.4,27 -72.6,-60 -257,-362.6 z"
         id="path3704"
         style="stroke-width:139.999" /><path
         d="M 3810.4,879.4 C 3804.2,864.9 3708.8,730.2 3599,581 3371,272.2 3373.1,282.5 3551.3,147.8 3713,25.5 3789.7,-7.7 3940.9,-18 c 74.6,-4.1 209.3,-29 300.5,-51.8 230,-62.2 574.1,-62.2 824.8,0 101.6,24.9 221.8,45.6 269.4,45.6 89.1,0 211.4,29 261.2,60.1 22.8,14.5 20.7,47.7 -14.5,201 -24.9,101.5 -60.1,288.1 -78.8,412.4 -20.7,126.4 -37.3,230 -39.4,234.2 -6.2,6.2 -654.9,-263.2 -669.4,-275.6 -4.2,-4.2 26.9,-22.8 68.4,-43.5 43.5,-18.7 105.7,-74.6 138.9,-120.2 78.7,-105.7 147.1,-263.2 126.4,-283.9 -8.3,-8.3 -95.3,-31.1 -192.7,-51.8 -263.2,-51.8 -725.4,-12.4 -725.4,62.2 0,82.9 215.5,346.1 339.9,416.6 29,16.6 -35.2,49.7 -333.7,172 -203.1,82.9 -375.1,149.2 -381.3,149.2 -8.2,-0.1 -18.6,-12.6 -24.8,-29.1 z"
         id="path3706"
         style="stroke-width:139.999" /><path
         d="m 3495.4,-154.8 c -89.1,-540.9 -114,-708.8 -103.6,-739.9 10.4,-33.2 33.2,-39.4 155.4,-37.3 178.2,2.1 290.2,-49.7 420.7,-188.6 l 93.3,-99.5 157.5,416.6 c 87,232.1 157.5,429 157.5,441.4 0,47.7 -217.6,116.1 -416.6,130.6 -161.7,12.4 -223.8,26.9 -327.5,78.7 l -124.4,62.2 z"
         id="path3708"
         style="stroke-width:139.999" /><path
         d="m 5578.2,-194.2 c -76.7,-26.9 -161.7,-41.4 -259.1,-41.4 -118.1,2.1 -176.2,-10.4 -304.7,-64.2 -89.1,-37.3 -161.7,-76.7 -161.7,-87.1 0,-18.6 184.5,-493.3 302.6,-775.1 l 29,-70.5 82.9,95.3 c 47.7,51.8 134.7,120.2 196.9,151.3 97.4,47.7 132.6,53.9 259.1,45.6 78.8,-4.1 145.1,-2.1 145.1,4.2 0,16.6 -122.3,686 -134.7,742 -12.4,53.8 -10.3,53.8 -155.4,-0.1 z"
         id="path3710"
         style="stroke-width:139.999" /><path
         d="m 3514,-1097.8 c -16.6,-10.4 24.9,-126.4 134.7,-371 87.1,-194.8 161.7,-360.6 170,-366.8 6.2,-6.2 45.6,85 89.1,203.1 l 78.8,215.5 -64.2,93.3 c -82.9,120.2 -172,194.8 -267.4,221.8 -91.3,24.8 -109.9,24.8 -141,4.1 z"
         id="path3712"
         style="stroke-width:139.999" /><path
         d="m 5520.2,-1137.2 c -68.4,-33.2 -182.4,-157.5 -230,-250.8 -26.9,-49.8 2.1,-145.1 126.4,-439.4 l 41.5,-93.3 29,72.5 c 43.5,103.6 128.5,184.5 217.6,207.3 74.6,20.7 124.3,12.4 275.7,-51.8 31.1,-14.5 35.2,-8.3 26.9,22.8 -6.2,20.7 -26.9,124.4 -45.6,225.9 -53.9,308.8 -49.7,296.4 -118.1,319.2 -93.4,33.2 -244.6,27 -323.4,-12.4 z"
         id="path3714"
         style="stroke-width:139.999" /><path
         d="m 3124.4,-2339.3 c -6.2,-20.7 -91.2,-451.8 -188.6,-957.5 l -178.2,-918.1 -163.7,-184.4 c -176.2,-194.8 -199,-252.9 -132.6,-346.1 53.9,-78.8 130.6,-58 385.5,101.5 128.5,80.8 244.6,159.6 259.1,172 20.7,20.7 441.4,1566.8 447.7,1651.8 0,18.6 -33.1,114 -78.8,211.4 -60.1,134.7 -89.1,180.3 -118.1,180.3 -49.7,0 -116.1,33.2 -176.2,87.1 -41.6,39.4 -43.7,39.4 -56.1,2 z"
         id="path3716"
         style="stroke-width:139.999" /><path
         d="m 6098.4,-2343.4 c -53.9,-99.5 -275.6,-138.9 -429,-74.6 -74.6,31.1 -74.6,31.1 -62.2,-18.6 39.4,-157.5 555.4,-1956.5 569.9,-1991.7 10.4,-22.8 140.9,-116.1 290.2,-205.2 246.6,-147.1 277.7,-161.7 323.3,-140.9 66.3,31.1 103.6,109.8 85,182.4 -8.3,31.1 -87,130.6 -172,219.7 l -157.5,161.7 -203.1,944.9 c -111.9,520.2 -207.2,951.3 -213.5,955.4 -4.1,6.3 -18.6,-10.3 -31.1,-33.1 z"
         id="path3718"
         style="stroke-width:139.999" /></g><g
       id="g3800"
       transform="matrix(0.00514468,0,0,0.00514468,8.3343746,3.0427058)"
       style="stroke-width:51.4286"><g
         id="g3768"
         style="stroke-width:51.4286">
	<path
   id="path3766"
   d="M 180,0 C 97.157,0 30,67.157 30,150 v 105 0.667 h 0.016 c 0.337,13.559 10.867,27.961 23.701,32.239 L 105,305 v 30 c 0,13.75 11.25,25 25,25 h 100 c 13.75,0 25,-11.25 25,-25 v -30 l 51.283,-17.094 c 12.834,-4.278 23.364,-18.681 23.701,-32.239 H 330 V 255 150 C 330,67.157 262.843,0 180,0 Z m 55,160 c 24.853,0 45,20.146 45,45 0,24.854 -20.147,45 -45,45 -24.853,0 -45,-20.146 -45,-45 0,-24.854 20.146,-45 45,-45 z m -110,0 c 24.854,0 45,20.146 45,45 0,24.854 -20.146,45 -45,45 -24.854,0 -45,-20.146 -45,-45 0,-24.854 20.146,-45 45,-45 z m 75,120 c 0,11.046 -8.954,20 -20,20 -11.046,0 -20,-8.954 -20,-20 0,-11.046 20,-40 20,-40 0,0 20,28.954 20,40 z"
   style="stroke-width:51.4286" />
</g><g
         id="g3770"
         style="stroke-width:51.4286">
</g><g
         id="g3772"
         style="stroke-width:51.4286">
</g><g
         id="g3774"
         style="stroke-width:51.4286">
</g><g
         id="g3776"
         style="stroke-width:51.4286">
</g><g
         id="g3778"
         style="stroke-width:51.4286">
</g><g
         id="g3780"
         style="stroke-width:51.4286">
</g><g
         id="g3782"
         style="stroke-width:51.4286">
</g><g
         id="g3784"
         style="stroke-width:51.4286">
</g><g
         id="g3786"
         style="stroke-width:51.4286">
</g><g
         id="g3788"
         style="stroke-width:51.4286">
</g><g
         id="g3790"
         style="stroke-width:51.4286">
</g><g
         id="g3792"
         style="stroke-width:51.4286">
</g><g
         id="g3794"
         style="stroke-width:51.4286">
</g><g
         id="g3796"
         style="stroke-width:51.4286">
</g><g
         id="g3798"
         style="stroke-width:51.4286">
</g></g><g
       id="g3836"
       transform="matrix(0.00514468,0,0,0.00514468,13.626042,3.0427058)"
       style="stroke-width:51.4286"><g
         id="g3804"
         style="stroke-width:51.4286">
	<path
   id="path3802"
   d="M 180,0 C 97.157,0 30,67.157 30,150 v 105 0.667 h 0.016 c 0.337,13.559 10.867,27.961 23.701,32.239 L 105,305 v 30 c 0,13.75 11.25,25 25,25 h 100 c 13.75,0 25,-11.25 25,-25 v -30 l 51.283,-17.094 c 12.834,-4.278 23.364,-18.681 23.701,-32.239 H 330 V 255 150 C 330,67.157 262.843,0 180,0 Z m 55,160 c 24.853,0 45,20.146 45,45 0,24.854 -20.147,45 -45,45 -24.853,0 -45,-20.146 -45,-45 0,-24.854 20.146,-45 45,-45 z m -110,0 c 24.854,0 45,20.146 45,45 0,24.854 -20.146,45 -45,45 -24.854,0 -45,-20.146 -45,-45 0,-24.854 20.146,-45 45,-45 z m 75,120 c 0,11.046 -8.954,20 -20,20 -11.046,0 -20,-8.954 -20,-20 0,-11.046 20,-40 20,-40 0,0 20,28.954 20,40 z"
   style="stroke-width:51.4286" />
</g><g
         id="g3806"
         style="stroke-width:51.4286">
</g><g
         id="g3808"
         style="stroke-width:51.4286">
</g><g
         id="g3810"
         style="stroke-width:51.4286">
</g><g
         id="g3812"
         style="stroke-width:51.4286">
</g><g
         id="g3814"
         style="stroke-width:51.4286">
</g><g
         id="g3816"
         style="stroke-width:51.4286">
</g><g
         id="g3818"
         style="stroke-width:51.4286">
</g><g
         id="g3820"
         style="stroke-width:51.4286">
</g><g
         id="g3822"
         style="stroke-width:51.4286">
</g><g
         id="g3824"
         style="stroke-width:51.4286">
</g><g
         id="g3826"
         style="stroke-width:51.4286">
</g><g
         id="g3828"
         style="stroke-width:51.4286">
</g><g
         id="g3830"
         style="stroke-width:51.4286">
</g><g
         id="g3832"
         style="stroke-width:51.4286">
</g><g
         id="g3834"
         style="stroke-width:51.4286">
</g></g><g
       id="g3872"
       transform="matrix(0.00514468,0,0,0.00514468,10.980208,5.6885384)"
       style="stroke-width:51.4286"><g
         id="g3840"
         style="stroke-width:51.4286">
	<path
   id="path3838"
   d="M 180,0 C 97.157,0 30,67.157 30,150 v 105 0.667 h 0.016 c 0.337,13.559 10.867,27.961 23.701,32.239 L 105,305 v 30 c 0,13.75 11.25,25 25,25 h 100 c 13.75,0 25,-11.25 25,-25 v -30 l 51.283,-17.094 c 12.834,-4.278 23.364,-18.681 23.701,-32.239 H 330 V 255 150 C 330,67.157 262.843,0 180,0 Z m 55,160 c 24.853,0 45,20.146 45,45 0,24.854 -20.147,45 -45,45 -24.853,0 -45,-20.146 -45,-45 0,-24.854 20.146,-45 45,-45 z m -110,0 c 24.854,0 45,20.146 45,45 0,24.854 -20.146,45 -45,45 -24.854,0 -45,-20.146 -45,-45 0,-24.854 20.146,-45 45,-45 z m 75,120 c 0,11.046 -8.954,20 -20,20 -11.046,0 -20,-8.954 -20,-20 0,-11.046 20,-40 20,-40 0,0 20,28.954 20,40 z"
   style="stroke-width:51.4286" />
</g><g
         id="g3842"
         style="stroke-width:51.4286">
</g><g
         id="g3844"
         style="stroke-width:51.4286">
</g><g
         id="g3846"
         style="stroke-width:51.4286">
</g><g
         id="g3848"
         style="stroke-width:51.4286">
</g><g
         id="g3850"
         style="stroke-width:51.4286">
</g><g
         id="g3852"
         style="stroke-width:51.4286">
</g><g
         id="g3854"
         style="stroke-width:51.4286">
</g><g
         id="g3856"
         style="stroke-width:51.4286">
</g><g
         id="g3858"
         style="stroke-width:51.4286">
</g><g
         id="g3860"
         style="stroke-width:51.4286">
</g><g
         id="g3862"
         style="stroke-width:51.4286">
</g><g
         id="g3864"
         style="stroke-width:51.4286">
</g><g
         id="g3866"
         style="stroke-width:51.4286">
</g><g
         id="g3868"
         style="stroke-width:51.4286">
</g><g
         id="g3870"
         style="stroke-width:51.4286">
</g></g></g></svg>
