<?xml version="1.0" encoding="UTF-8" standalone="no"?>
<!-- Created with Inkscape (http://www.inkscape.org/) -->

<svg
   width="26.458334mm"
   height="10.583329mm"
   viewBox="0 0 26.458334 10.583329"
   version="1.1"
   id="svg5"
   sodipodi:docname="dragon-inferno.svg"
   inkscape:version="1.2 (dc2aedaf03, 2022-05-15)"
   xml:space="preserve"
   xmlns:inkscape="http://www.inkscape.org/namespaces/inkscape"
   xmlns:sodipodi="http://sodipodi.sourceforge.net/DTD/sodipodi-0.dtd"
   xmlns="http://www.w3.org/2000/svg"
   xmlns:svg="http://www.w3.org/2000/svg"><sodipodi:namedview
     id="namedview7"
     pagecolor="#ffffff"
     bordercolor="#666666"
     borderopacity="1.0"
     inkscape:showpageshadow="2"
     inkscape:pageopacity="0.0"
     inkscape:pagecheckerboard="0"
     inkscape:deskcolor="#d1d1d1"
     inkscape:document-units="px"
     showgrid="true"
     inkscape:zoom="16.385032"
     inkscape:cx="63.991329"
     inkscape:cy="15.013702"
     inkscape:window-width="1600"
     inkscape:window-height="840"
     inkscape:window-x="0"
     inkscape:window-y="23"
     inkscape:window-maximized="1"
     inkscape:current-layer="layer1"><inkscape:grid
       type="xygrid"
       id="grid9"
       originx="0"
       originy="-5.9604643e-08" /></sodipodi:namedview><defs
     id="defs2" /><g
     inkscape:label="Layer 1"
     inkscape:groupmode="layer"
     id="layer1"><rect
       style="color:#000000;overflow:visible;fill:#ffffff;stroke:#000000;stroke-width:0.264583;stroke-dasharray:none"
       id="rect63"
       width="2.3812504"
       height="2.3812492"
       x="0.1322915"
       y="-2.5135407"
       transform="scale(1,-1)" /><rect
       style="color:#000000;overflow:visible;fill:#ffffff;stroke:#000000;stroke-width:0.264583;stroke-dasharray:none"
       id="rect1033"
       width="2.3812504"
       height="2.3812492"
       x="2.7781248"
       y="-2.5135407"
       transform="scale(1,-1)" /><rect
       style="color:#000000;overflow:visible;fill:#ffffff;stroke:#000000;stroke-width:0.264583;stroke-dasharray:none"
       id="rect1035"
       width="2.3812504"
       height="2.3812492"
       x="5.4239583"
       y="-2.5135407"
       transform="scale(1,-1)" /><rect
       style="color:#000000;overflow:visible;fill:#ffffff;stroke:#000000;stroke-width:0.264583;stroke-dasharray:none"
       id="rect1037"
       width="2.3812504"
       height="2.3812492"
       x="8.0697918"
       y="-2.5135407"
       transform="scale(1,-1)" /><rect
       style="color:#000000;overflow:visible;fill:#ffffff;stroke:#000000;stroke-width:0.264583;stroke-dasharray:none"
       id="rect1072"
       width="2.3812504"
       height="2.3812492"
       x="0.1322915"
       y="-5.1593728"
       transform="scale(1,-1)" /><rect
       style="color:#000000;overflow:visible;fill:#800080;stroke:#000000;stroke-width:0.264583;stroke-dasharray:none"
       id="rect1074"
       width="2.3812504"
       height="2.3812492"
       x="2.7781248"
       y="-5.1593728"
       transform="scale(1,-1)" /><rect
       style="color:#000000;overflow:visible;fill:#ffffff;stroke:#000000;stroke-width:0.264583;stroke-dasharray:none"
       id="rect1076"
       width="2.3812504"
       height="2.3812492"
       x="5.4239583"
       y="-5.1593728"
       transform="scale(1,-1)" /><rect
       style="color:#000000;overflow:visible;fill:#ffffff;stroke:#000000;stroke-width:0.264583;stroke-dasharray:none"
       id="rect1078"
       width="2.3812504"
       height="2.3812492"
       x="8.0697918"
       y="-5.1593728"
       transform="scale(1,-1)" /><rect
       style="color:#000000;overflow:visible;fill:#ffffff;stroke:#000000;stroke-width:0.264583;stroke-dasharray:none"
       id="rect1082"
       width="2.3812504"
       height="2.3812492"
       x="0.1322915"
       y="-7.8052053"
       transform="scale(1,-1)" /><rect
       style="color:#000000;overflow:visible;fill:#ffffff;stroke:#000000;stroke-width:0.264583;stroke-dasharray:none"
       id="rect1084"
       width="2.3812504"
       height="2.3812492"
       x="2.7781248"
       y="-7.8052053"
       transform="scale(1,-1)" /><rect
       style="color:#000000;overflow:visible;fill:#ffffff;stroke:#000000;stroke-width:0.264583;stroke-dasharray:none"
       id="rect1086"
       width="2.3812504"
       height="2.3812492"
       x="5.4239583"
       y="-7.8052053"
       transform="scale(1,-1)" /><rect
       style="color:#000000;overflow:visible;fill:#ffffff;stroke:#000000;stroke-width:0.264583;stroke-dasharray:none"
       id="rect1088"
       width="2.3812504"
       height="2.3812492"
       x="8.0697918"
       y="-7.8052053"
       transform="scale(1,-1)" /><rect
       style="color:#000000;overflow:visible;fill:#ffffff;stroke:#000000;stroke-width:0.264583;stroke-dasharray:none"
       id="rect1092"
       width="2.3812504"
       height="2.3812492"
       x="0.1322915"
       y="-10.451037"
       transform="scale(1,-1)" /><rect
       style="color:#000000;overflow:visible;fill:#ffffff;stroke:#000000;stroke-width:0.264583;stroke-dasharray:none"
       id="rect1094"
       width="2.3812504"
       height="2.3812492"
       x="2.7781248"
       y="-10.451037"
       transform="scale(1,-1)" /><rect
       style="color:#000000;overflow:visible;fill:#ffffff;stroke:#000000;stroke-width:0.264583;stroke-dasharray:none"
       id="rect1096"
       width="2.3812504"
       height="2.3812492"
       x="5.4239583"
       y="-10.451037"
       transform="scale(1,-1)" /><rect
       style="color:#000000;overflow:visible;fill:#ffffff;stroke:#000000;stroke-width:0.264583;stroke-dasharray:none"
       id="rect1098"
       width="2.3812504"
       height="2.3812492"
       x="8.0697918"
       y="-10.451037"
       transform="scale(1,-1)" /><rect
       style="color:#000000;overflow:visible;fill:#ffffff;stroke:#000000;stroke-width:0.264583;stroke-dasharray:none"
       id="rect1124"
       width="2.3812504"
       height="2.3812492"
       x="16.007292"
       y="-2.5135407"
       transform="scale(1,-1)" /><rect
       style="color:#000000;overflow:visible;fill:#ffffff;stroke:#000000;stroke-width:0.264583;stroke-dasharray:none"
       id="rect1126"
       width="2.3812504"
       height="2.3812492"
       x="18.653126"
       y="-2.5135407"
       transform="scale(1,-1)" /><rect
       style="color:#000000;overflow:visible;fill:#800080;stroke:#000000;stroke-width:0.264583;stroke-dasharray:none"
       id="rect1128"
       width="2.3812504"
       height="2.3812492"
       x="21.298958"
       y="-2.5135407"
       transform="scale(1,-1)" /><rect
       style="color:#000000;overflow:visible;fill:#ffffff;stroke:#000000;stroke-width:0.264583;stroke-dasharray:none"
       id="rect1130"
       width="2.3812504"
       height="2.3812492"
       x="23.944792"
       y="-2.5135407"
       transform="scale(1,-1)" /><rect
       style="color:#000000;overflow:visible;fill:#800080;stroke:#000000;stroke-width:0.264583;stroke-dasharray:none"
       id="rect1134"
       width="2.3812504"
       height="2.3812492"
       x="16.007292"
       y="-5.1593728"
       transform="scale(1,-1)" /><rect
       style="color:#000000;overflow:visible;fill:#800080;stroke:#000000;stroke-width:0.264583;stroke-dasharray:none"
       id="rect1136"
       width="2.3812504"
       height="2.3812492"
       x="18.653126"
       y="-5.1593728"
       transform="scale(1,-1)" /><rect
       style="color:#000000;overflow:visible;fill:#800080;stroke:#000000;stroke-width:0.264583;stroke-dasharray:none"
       id="rect1138"
       width="2.3812504"
       height="2.3812492"
       x="21.298958"
       y="-5.1593728"
       transform="scale(1,-1)" /><rect
       style="color:#000000;overflow:visible;fill:#ffffff;stroke:#000000;stroke-width:0.264583;stroke-dasharray:none"
       id="rect1140"
       width="2.3812504"
       height="2.3812492"
       x="23.944792"
       y="-5.1593728"
       transform="scale(1,-1)" /><rect
       style="color:#000000;overflow:visible;fill:#800080;stroke:#000000;stroke-width:0.264583;stroke-dasharray:none"
       id="rect1144"
       width="2.3812504"
       height="2.3812492"
       x="16.007292"
       y="-7.8052053"
       transform="scale(1,-1)" /><rect
       style="color:#000000;overflow:visible;fill:#ffffff;stroke:#000000;stroke-width:0.264583;stroke-dasharray:none"
       id="rect1146"
       width="2.3812504"
       height="2.3812492"
       x="18.653126"
       y="-7.8052053"
       transform="scale(1,-1)" /><rect
       style="color:#000000;overflow:visible;fill:#ffffff;stroke:#000000;stroke-width:0.264583;stroke-dasharray:none"
       id="rect1148"
       width="2.3812504"
       height="2.3812492"
       x="21.298958"
       y="-7.8052053"
       transform="scale(1,-1)" /><rect
       style="color:#000000;overflow:visible;fill:#ffffff;stroke:#000000;stroke-width:0.264583;stroke-dasharray:none"
       id="rect1150"
       width="2.3812504"
       height="2.3812492"
       x="23.944792"
       y="-7.8052053"
       transform="scale(1,-1)" /><rect
       style="color:#000000;overflow:visible;fill:#ffffff;stroke:#000000;stroke-width:0.264583;stroke-dasharray:none"
       id="rect1154"
       width="2.3812504"
       height="2.3812492"
       x="16.007292"
       y="-10.451037"
       transform="scale(1,-1)" /><rect
       style="color:#000000;overflow:visible;fill:#ffffff;stroke:#000000;stroke-width:0.264583;stroke-dasharray:none"
       id="rect1156"
       width="2.3812504"
       height="2.3812492"
       x="18.653126"
       y="-10.451037"
       transform="scale(1,-1)" /><rect
       style="color:#000000;overflow:visible;fill:#ffffff;stroke:#000000;stroke-width:0.264583;stroke-dasharray:none"
       id="rect1158"
       width="2.3812504"
       height="2.3812492"
       x="21.298958"
       y="-10.451037"
       transform="scale(1,-1)" /><rect
       style="color:#000000;overflow:visible;fill:#ffffff;stroke:#000000;stroke-width:0.264583;stroke-dasharray:none"
       id="rect1160"
       width="2.3812504"
       height="2.3812492"
       x="23.944792"
       y="-10.451037"
       transform="scale(1,-1)" /><path
       fill="#000000"
       d="m 22.270265,0.39417278 c -0.02745,3.42e-4 -0.05758,0.003 -0.08987,0.0075 0.108434,0.0805 0.20097,0.17797 0.265849,0.277385 0.0065,0 0.01303,4.7e-5 0.0195,1.85e-4 0.07105,0.0015 0.139571,0.01143 0.209304,0.02832 -0.06173,-0.111922 -0.117735,-0.197398 -0.186622,-0.248645 -0.05434,-0.04042 -0.118239,-0.06359 -0.206563,-0.06471 -0.0038,-5.1e-5 -0.0077,-5.1e-5 -0.01159,0 z m -0.360501,0.0903 c -0.0029,-8e-6 -0.0057,2.4e-5 -0.0086,8.6e-5 -0.05524,0.0012 -0.115473,0.01542 -0.184301,0.04377 0.220957,0.07397 0.420774,0.198491 0.526659,0.328741 0.07228,-0.02018 0.115788,-0.05789 0.143374,-0.113338 -0.136684,-0.115575 -0.245715,-0.202062 -0.353747,-0.238364 -0.03999,-0.01344 -0.08036,-0.02087 -0.123352,-0.0209 z m -7.98e-4,0.207608 c -0.15504,0.02658 -0.293915,0.125283 -0.345406,0.291791 V 2.2516628 h 0.836672 c -0.525609,-0.190307 -0.679635,-1.118855 -0.184369,-1.02598 0.02296,-0.05571 0.03902,-0.110231 0.04333,-0.163083 l 0.07326,0.006 c -0.0066,0.08099 -0.03472,0.159248 -0.07092,0.235757 -0.0029,0.008 -0.0058,0.0162 -0.0086,0.02385 0.129168,0.335251 0.44746,0.631997 0.666628,0.661523 0.0036,1.33e-4 0.0075,-8e-6 0.01161,-3.54e-4 0.06692,0.0041 0.141038,-0.0166 0.205343,-0.08772 l 0.0314,-0.03473 -0.04119,-0.02225 c -0.02559,-0.01382 -0.0562,-0.0279 -0.07145,-0.04297 -0.0076,-0.0075 -0.01098,-0.01365 -0.01209,-0.02043 -0.0011,-0.0068 -5.12e-4,-0.01662 0.0088,-0.03374 l 0.04198,-0.07731 -0.0845,0.02447 c -0.02479,0.0072 -0.06806,-0.01192 -0.09134,-0.04212 -0.01164,-0.0151 -0.01734,-0.0311 -0.01725,-0.04264 7.8e-5,-0.01156 0.0028,-0.02016 0.01867,-0.03166 l 0.07651,-0.05555 -0.09394,-0.0107 c -0.03923,-0.0045 -0.06438,-0.02619 -0.0754,-0.04835 -0.01102,-0.02216 -0.0091,-0.03966 0.0054,-0.05235 l 0.048,-0.04199 -0.0604,-0.02047 c -0.02642,-0.009 -0.04049,-0.02971 -0.04073,-0.04182 -1.1e-4,-0.0054 9.36e-4,-0.01049 0.0072,-0.01761 0.04299,-0.0094 0.08361,-0.0018 0.110471,0.02507 0.0242,0.02417 0.03284,0.0595 0.02744,0.09766 0.03363,-0.0089 0.0668,-0.0064 0.09483,0.0098 0.03674,0.02119 0.05761,0.06172 0.06163,0.109987 0.05983,-0.03985 0.126454,-0.05005 0.178016,-0.02031 0.06083,0.03508 0.08401,0.116076 0.06609,0.203534 0.09436,-0.131186 0.136035,-0.297797 0.02209,-0.473654 -0.183775,-0.01747 -0.321301,-0.120649 -0.366924,-0.26603002 -0.01977,-0.06299 -0.08371,-0.112759 -0.165187,-0.149077 l -3.15e-4,8.53e-4 c -0.116968,-0.04257 -0.218577,-0.06824 -0.324883,-0.07368 l 3.15e-4,6.1e-4 c -0.009,-3.66e-4 -0.01793,-6.29e-4 -0.0266,-6.77e-4 -0.03751,0.08996 -0.112729,0.156928 -0.225898,0.181132 l -0.02323,0.005 -0.01407,-0.01913 c -0.05591,-0.07603 -0.162158,-0.159099 -0.291051,-0.228406 z m 0.614397,0.25667 c 0.109837,-2.88e-4 0.17649,0.04569 0.165541,0.17482202 -0.140975,0.01333 -0.204254,-0.06561 -0.248072,-0.16767202 0.02953,-0.0045 0.05718,-0.0071 0.08253,-0.0071 z m 0.190386,0.26100702 c 0.01458,2.75e-4 0.02808,0.0039 0.03938,0.01106 -0.0059,0.0043 -0.0114,0.009 -0.01636,0.01394 -0.02063,0.02061 -0.03181,0.04768 -0.03129,0.07371 7.19e-4,0.03666 0.02073,0.06758 0.04987,0.08873 -0.01235,0.03187 -0.0096,0.06865 0.0055,0.09919 0.015,0.03016 0.04145,0.05614 0.07591,0.07236 -0.0057,0.01324 -0.0093,0.02699 -0.0094,0.04063 -2.44e-4,0.03306 0.01329,0.06309 0.03254,0.08806 0.02671,0.03465 0.06632,0.06268 0.110227,0.07044 -7.2e-4,0.0086 -8.03e-4,0.01704 5.23e-4,0.0252 0.0041,0.02535 0.01776,0.04586 0.03296,0.06088 0.01341,0.01325 0.02828,0.02317 0.04247,0.03144 -0.02495,0.01885 -0.04883,0.02775 -0.07323,0.03064 -0.02562,-0.03122 -0.03819,-0.07506 -0.03701,-0.123709 -0.04628,0.02429 -0.09522,0.02814 -0.134195,0.0057 -0.05769,-0.03327 -0.07627,-0.1142 -0.05186,-0.197949 -0.04458,0.01089 -0.08704,0.0036 -0.114793,-0.02412 -0.0349,-0.03487 -0.0375,-0.09292 -0.01217,-0.149258 -0.01446,-0.0024 -0.02738,-0.0085 -0.03746,-0.01858 -0.03464,-0.0346 -0.02271,-0.102613 0.02665,-0.151917 0.03085,-0.03082 0.06901,-0.04703 0.101748,-0.04641 z"
       id="path6885"
       style="stroke-width:0.264583" /><path
       fill="#000000"
       d="m 22.270265,3.0400048 c -0.02745,3.42e-4 -0.05758,0.003 -0.08987,0.0075 0.108434,0.0805 0.20097,0.17797 0.265849,0.277385 0.0065,0 0.01303,4.7e-5 0.0195,1.85e-4 0.07105,0.0015 0.139571,0.01143 0.209304,0.02832 -0.06173,-0.111922 -0.117735,-0.197398 -0.186622,-0.248645 -0.05434,-0.04042 -0.118239,-0.06359 -0.206563,-0.06471 -0.0038,-5.1e-5 -0.0077,-5.1e-5 -0.01159,0 z m -0.360501,0.0903 c -0.0029,-8e-6 -0.0057,2.4e-5 -0.0086,8.6e-5 -0.05524,0.0012 -0.115473,0.01542 -0.184301,0.04377 0.220957,0.07397 0.420774,0.198491 0.526659,0.328741 0.07228,-0.02018 0.115788,-0.05789 0.143374,-0.113338 -0.136684,-0.115575 -0.245715,-0.202062 -0.353747,-0.238364 -0.03999,-0.01344 -0.08036,-0.02087 -0.123352,-0.0209 z m -7.98e-4,0.207608 c -0.15504,0.02658 -0.293915,0.125283 -0.345406,0.291791 v 1.2677911 h 0.836672 c -0.525609,-0.190307 -0.679635,-1.118855 -0.184369,-1.02598 0.02296,-0.05571 0.03902,-0.110231 0.04333,-0.163083 l 0.07326,0.006 c -0.0066,0.08099 -0.03472,0.159248 -0.07092,0.235757 -0.0029,0.008 -0.0058,0.0162 -0.0086,0.02385 0.129168,0.335251 0.44746,0.631997 0.666628,0.661523 0.0036,1.33e-4 0.0075,-8e-6 0.01161,-3.54e-4 0.06692,0.0041 0.141038,-0.0166 0.205343,-0.08772 l 0.0314,-0.03473 -0.04119,-0.02225 c -0.02559,-0.01382 -0.0562,-0.0279 -0.07145,-0.04297 -0.0076,-0.0075 -0.01098,-0.01365 -0.01209,-0.02043 -0.0011,-0.0068 -5.12e-4,-0.01662 0.0088,-0.03374 l 0.04198,-0.07731 -0.0845,0.02447 c -0.02479,0.0072 -0.06806,-0.01192 -0.09134,-0.04212 -0.01164,-0.0151 -0.01734,-0.0311 -0.01725,-0.04264 7.8e-5,-0.01156 0.0028,-0.02016 0.01867,-0.03166 l 0.07651,-0.05555 -0.09394,-0.0107 c -0.03923,-0.0045 -0.06438,-0.02619 -0.0754,-0.04835 -0.01102,-0.02216 -0.0091,-0.03966 0.0054,-0.05235 l 0.048,-0.04199 -0.0604,-0.02047 c -0.02642,-0.009 -0.04049,-0.02971 -0.04073,-0.04182 -1.1e-4,-0.0054 9.36e-4,-0.01049 0.0072,-0.01761 0.04299,-0.0094 0.08361,-0.0018 0.110471,0.02507 0.0242,0.02417 0.03284,0.0595 0.02744,0.09766 0.03363,-0.0089 0.0668,-0.0064 0.09483,0.0098 0.03674,0.02119 0.05761,0.06172 0.06163,0.109987 0.05983,-0.03985 0.126454,-0.05005 0.178016,-0.02031 0.06083,0.03508 0.08401,0.116076 0.06609,0.203534 0.09436,-0.131186 0.136035,-0.297797 0.02209,-0.473654 -0.183775,-0.01747 -0.321301,-0.120649 -0.366924,-0.2660301 -0.01977,-0.06299 -0.08371,-0.112759 -0.165187,-0.149077 l -3.15e-4,8.53e-4 c -0.116968,-0.04257 -0.218577,-0.06824 -0.324883,-0.07368 l 3.15e-4,6.1e-4 c -0.009,-3.66e-4 -0.01793,-6.29e-4 -0.0266,-6.77e-4 -0.03751,0.08996 -0.112729,0.156928 -0.225898,0.181132 l -0.02323,0.005 -0.01407,-0.01913 c -0.05591,-0.07603 -0.162158,-0.159099 -0.291051,-0.228406 z m 0.614397,0.25667 c 0.109837,-2.88e-4 0.17649,0.04569 0.165541,0.1748221 -0.140975,0.01333 -0.204254,-0.06561 -0.248072,-0.1676721 0.02953,-0.0045 0.05718,-0.0071 0.08253,-0.0071 z m 0.190386,0.2610071 c 0.01458,2.75e-4 0.02808,0.0039 0.03938,0.01106 -0.0059,0.0043 -0.0114,0.009 -0.01636,0.01394 -0.02063,0.02061 -0.03181,0.04768 -0.03129,0.07371 7.19e-4,0.03666 0.02073,0.06758 0.04987,0.08873 -0.01235,0.03187 -0.0096,0.06865 0.0055,0.09919 0.015,0.03016 0.04145,0.05614 0.07591,0.07236 -0.0057,0.01324 -0.0093,0.02699 -0.0094,0.04063 -2.44e-4,0.03306 0.01329,0.06309 0.03254,0.08806 0.02671,0.03465 0.06632,0.06268 0.110227,0.07044 -7.2e-4,0.0086 -8.03e-4,0.01704 5.23e-4,0.0252 0.0041,0.02535 0.01776,0.04586 0.03296,0.06088 0.01341,0.01325 0.02828,0.02317 0.04247,0.03144 -0.02495,0.01885 -0.04883,0.02775 -0.07323,0.03064 -0.02562,-0.03122 -0.03819,-0.07506 -0.03701,-0.123709 -0.04628,0.02429 -0.09522,0.02814 -0.134195,0.0057 -0.05769,-0.03327 -0.07627,-0.1142 -0.05186,-0.197949 -0.04458,0.01089 -0.08704,0.0036 -0.114793,-0.02412 -0.0349,-0.03487 -0.0375,-0.09292 -0.01217,-0.149258 -0.01446,-0.0024 -0.02738,-0.0085 -0.03746,-0.01858 -0.03464,-0.0346 -0.02271,-0.102613 0.02665,-0.151917 0.03085,-0.03082 0.06901,-0.04703 0.101748,-0.04641 z"
       id="path6894"
       style="stroke-width:0.264583" /><path
       fill="#000000"
       d="m 19.624433,3.0400048 c -0.02745,3.42e-4 -0.05758,0.003 -0.08987,0.0075 0.108434,0.0805 0.20097,0.17797 0.265849,0.277385 0.0065,0 0.01303,4.7e-5 0.0195,1.85e-4 0.07105,0.0015 0.139571,0.01143 0.209304,0.02832 -0.06173,-0.111922 -0.117735,-0.197398 -0.186622,-0.248645 -0.05434,-0.04042 -0.118239,-0.06359 -0.206563,-0.06471 -0.0038,-5.1e-5 -0.0077,-5.1e-5 -0.01159,0 z m -0.360501,0.0903 c -0.0029,-8e-6 -0.0057,2.4e-5 -0.0086,8.6e-5 -0.05524,0.0012 -0.115473,0.01542 -0.184301,0.04377 0.220957,0.07397 0.420774,0.198491 0.526659,0.328741 0.07228,-0.02018 0.115788,-0.05789 0.143374,-0.113338 -0.136684,-0.115575 -0.245715,-0.202062 -0.353747,-0.238364 -0.03999,-0.01344 -0.08036,-0.02087 -0.123352,-0.0209 z m -7.98e-4,0.207608 c -0.15504,0.02658 -0.293915,0.125283 -0.345406,0.291791 V 4.8974949 H 19.7544 c -0.525609,-0.190307 -0.679635,-1.118855 -0.184369,-1.02598 0.02296,-0.05571 0.03902,-0.110231 0.04333,-0.163083 l 0.07326,0.006 c -0.0066,0.08099 -0.03472,0.159248 -0.07092,0.235757 -0.0029,0.008 -0.0058,0.0162 -0.0086,0.02385 0.129168,0.335251 0.44746,0.631997 0.666628,0.661523 0.0036,1.33e-4 0.0075,-8e-6 0.01161,-3.54e-4 0.06692,0.0041 0.141038,-0.0166 0.205343,-0.08772 l 0.0314,-0.03473 -0.04119,-0.02225 c -0.02559,-0.01382 -0.0562,-0.0279 -0.07145,-0.04297 -0.0076,-0.0075 -0.01098,-0.01365 -0.01209,-0.02043 -0.0011,-0.0068 -5.12e-4,-0.01662 0.0088,-0.03374 l 0.04198,-0.07731 -0.0845,0.02447 c -0.02479,0.0072 -0.06806,-0.01192 -0.09134,-0.04212 -0.01164,-0.0151 -0.01734,-0.0311 -0.01725,-0.04264 7.8e-5,-0.01156 0.0028,-0.02016 0.01867,-0.03166 l 0.07651,-0.05555 -0.09394,-0.0107 c -0.03923,-0.0045 -0.06438,-0.02619 -0.0754,-0.04835 -0.01102,-0.02216 -0.0091,-0.03966 0.0054,-0.05235 l 0.048,-0.04199 -0.0604,-0.02047 c -0.02642,-0.009 -0.04049,-0.02971 -0.04073,-0.04182 -1.1e-4,-0.0054 9.36e-4,-0.01049 0.0072,-0.01761 0.04299,-0.0094 0.08361,-0.0018 0.110471,0.02507 0.0242,0.02417 0.03284,0.0595 0.02744,0.09766 0.03363,-0.0089 0.0668,-0.0064 0.09483,0.0098 0.03674,0.02119 0.05761,0.06172 0.06163,0.109987 0.05983,-0.03985 0.126454,-0.05005 0.178016,-0.02031 0.06083,0.03508 0.08401,0.116076 0.06609,0.203534 0.09436,-0.131186 0.136035,-0.297797 0.02209,-0.473654 -0.183775,-0.01747 -0.321301,-0.120649 -0.366924,-0.2660301 -0.01977,-0.06299 -0.08371,-0.112759 -0.165187,-0.149077 l -3.15e-4,8.53e-4 c -0.116968,-0.04257 -0.218577,-0.06824 -0.324883,-0.07368 l 3.15e-4,6.1e-4 c -0.009,-3.66e-4 -0.01793,-6.29e-4 -0.0266,-6.77e-4 -0.03751,0.08996 -0.112729,0.156928 -0.225898,0.181132 l -0.02323,0.005 -0.01407,-0.01913 c -0.05591,-0.07603 -0.162158,-0.159099 -0.291051,-0.228406 z m 0.614397,0.25667 c 0.109837,-2.88e-4 0.17649,0.04569 0.165541,0.1748221 -0.140975,0.01333 -0.204254,-0.06561 -0.248072,-0.1676721 0.02953,-0.0045 0.05718,-0.0071 0.08253,-0.0071 z m 0.190386,0.2610071 c 0.01458,2.75e-4 0.02808,0.0039 0.03938,0.01106 -0.0059,0.0043 -0.0114,0.009 -0.01636,0.01394 -0.02063,0.02061 -0.03181,0.04768 -0.03129,0.07371 7.19e-4,0.03666 0.02073,0.06758 0.04987,0.08873 -0.01235,0.03187 -0.0096,0.06865 0.0055,0.09919 0.015,0.03016 0.04145,0.05614 0.07591,0.07236 -0.0057,0.01324 -0.0093,0.02699 -0.0094,0.04063 -2.44e-4,0.03306 0.01329,0.06309 0.03254,0.08806 0.02671,0.03465 0.06632,0.06268 0.110227,0.07044 -7.2e-4,0.0086 -8.03e-4,0.01704 5.23e-4,0.0252 0.0041,0.02535 0.01776,0.04586 0.03296,0.06088 0.01341,0.01325 0.02828,0.02317 0.04247,0.03144 -0.02495,0.01885 -0.04883,0.02775 -0.07323,0.03064 -0.02562,-0.03122 -0.03819,-0.07506 -0.03701,-0.123709 -0.04628,0.02429 -0.09522,0.02814 -0.134195,0.0057 -0.05769,-0.03327 -0.07627,-0.1142 -0.05186,-0.197949 -0.04458,0.01089 -0.08704,0.0036 -0.114793,-0.02412 -0.0349,-0.03487 -0.0375,-0.09292 -0.01217,-0.149258 -0.01446,-0.0024 -0.02738,-0.0085 -0.03746,-0.01858 -0.03464,-0.0346 -0.02271,-0.102613 0.02665,-0.151917 0.03085,-0.03082 0.06901,-0.04703 0.101748,-0.04641 z"
       id="path6896"
       style="stroke-width:0.264583" /><path
       fill="#000000"
       d="m 16.978599,3.0400048 c -0.02745,3.42e-4 -0.05758,0.003 -0.08987,0.0075 0.108434,0.0805 0.20097,0.17797 0.265849,0.277385 0.0065,0 0.01303,4.7e-5 0.0195,1.85e-4 0.07105,0.0015 0.139571,0.01143 0.209304,0.02832 -0.06173,-0.111922 -0.117735,-0.197398 -0.186622,-0.248645 -0.05434,-0.04042 -0.118239,-0.06359 -0.206563,-0.06471 -0.0038,-5.1e-5 -0.0077,-5.1e-5 -0.01159,0 z m -0.360501,0.0903 c -0.0029,-8e-6 -0.0057,2.4e-5 -0.0086,8.6e-5 -0.05524,0.0012 -0.115473,0.01542 -0.184301,0.04377 0.220957,0.07397 0.420774,0.198491 0.526659,0.328741 0.07228,-0.02018 0.115788,-0.05789 0.143374,-0.113338 -0.136684,-0.115575 -0.245715,-0.202062 -0.353747,-0.238364 -0.03999,-0.01344 -0.08036,-0.02087 -0.123352,-0.0209 z m -7.98e-4,0.207608 c -0.15504,0.02658 -0.293915,0.125283 -0.345406,0.291791 v 1.2677911 h 0.836672 c -0.525609,-0.190307 -0.679635,-1.118855 -0.184369,-1.02598 0.02296,-0.05571 0.03902,-0.110231 0.04333,-0.163083 l 0.07326,0.006 c -0.0066,0.08099 -0.03472,0.159248 -0.07092,0.235757 -0.0029,0.008 -0.0058,0.0162 -0.0086,0.02385 0.129168,0.335251 0.44746,0.631997 0.666628,0.661523 0.0036,1.33e-4 0.0075,-8e-6 0.01161,-3.54e-4 0.06692,0.0041 0.141038,-0.0166 0.205343,-0.08772 l 0.0314,-0.03473 -0.04119,-0.02225 c -0.02559,-0.01382 -0.0562,-0.0279 -0.07145,-0.04297 -0.0076,-0.0075 -0.01098,-0.01365 -0.01209,-0.02043 -0.0011,-0.0068 -5.12e-4,-0.01662 0.0088,-0.03374 l 0.04198,-0.07731 -0.0845,0.02447 c -0.02479,0.0072 -0.06806,-0.01192 -0.09134,-0.04212 -0.01164,-0.0151 -0.01734,-0.0311 -0.01725,-0.04264 7.8e-5,-0.01156 0.0028,-0.02016 0.01867,-0.03166 l 0.07651,-0.05555 -0.09394,-0.0107 c -0.03923,-0.0045 -0.06438,-0.02619 -0.0754,-0.04835 -0.01102,-0.02216 -0.0091,-0.03966 0.0054,-0.05235 l 0.048,-0.04199 -0.0604,-0.02047 c -0.02642,-0.009 -0.04049,-0.02971 -0.04073,-0.04182 -1.1e-4,-0.0054 9.36e-4,-0.01049 0.0072,-0.01761 0.04299,-0.0094 0.08361,-0.0018 0.110471,0.02507 0.0242,0.02417 0.03284,0.0595 0.02744,0.09766 0.03363,-0.0089 0.0668,-0.0064 0.09483,0.0098 0.03674,0.02119 0.05761,0.06172 0.06163,0.109987 0.05983,-0.03985 0.126454,-0.05005 0.178016,-0.02031 0.06083,0.03508 0.08401,0.116076 0.06609,0.203534 0.09436,-0.131186 0.136035,-0.297797 0.02209,-0.473654 -0.183775,-0.01747 -0.321301,-0.120649 -0.366924,-0.2660301 -0.01977,-0.06299 -0.08371,-0.112759 -0.165187,-0.149077 l -3.15e-4,8.53e-4 c -0.116968,-0.04257 -0.218577,-0.06824 -0.324883,-0.07368 l 3.15e-4,6.1e-4 c -0.009,-3.66e-4 -0.01793,-6.29e-4 -0.0266,-6.77e-4 -0.03751,0.08996 -0.112729,0.156928 -0.225898,0.181132 l -0.02323,0.005 -0.01407,-0.01913 c -0.05591,-0.07603 -0.162158,-0.159099 -0.291051,-0.228406 z m 0.614397,0.25667 c 0.109837,-2.88e-4 0.17649,0.04569 0.165541,0.1748221 -0.140975,0.01333 -0.204254,-0.06561 -0.248072,-0.1676721 0.02953,-0.0045 0.05718,-0.0071 0.08253,-0.0071 z m 0.190386,0.2610071 c 0.01458,2.75e-4 0.02808,0.0039 0.03938,0.01106 -0.0059,0.0043 -0.0114,0.009 -0.01636,0.01394 -0.02063,0.02061 -0.03181,0.04768 -0.03129,0.07371 7.19e-4,0.03666 0.02073,0.06758 0.04987,0.08873 -0.01235,0.03187 -0.0096,0.06865 0.0055,0.09919 0.015,0.03016 0.04145,0.05614 0.07591,0.07236 -0.0057,0.01324 -0.0093,0.02699 -0.0094,0.04063 -2.44e-4,0.03306 0.01329,0.06309 0.03254,0.08806 0.02671,0.03465 0.06632,0.06268 0.110227,0.07044 -7.2e-4,0.0086 -8.03e-4,0.01704 5.23e-4,0.0252 0.0041,0.02535 0.01776,0.04586 0.03296,0.06088 0.01341,0.01325 0.02828,0.02317 0.04247,0.03144 -0.02495,0.01885 -0.04883,0.02775 -0.07323,0.03064 -0.02562,-0.03122 -0.03819,-0.07506 -0.03701,-0.123709 -0.04628,0.02429 -0.09522,0.02814 -0.134195,0.0057 -0.05769,-0.03327 -0.07627,-0.1142 -0.05186,-0.197949 -0.04458,0.01089 -0.08704,0.0036 -0.114793,-0.02412 -0.0349,-0.03487 -0.0375,-0.09292 -0.01217,-0.149258 -0.01446,-0.0024 -0.02738,-0.0085 -0.03746,-0.01858 -0.03464,-0.0346 -0.02271,-0.102613 0.02665,-0.151917 0.03085,-0.03082 0.06901,-0.04703 0.101748,-0.04641 z"
       id="path6898"
       style="stroke-width:0.264583" /><path
       fill="#000000"
       d="m 16.978599,5.6858373 c -0.02745,3.42e-4 -0.05758,0.003 -0.08987,0.0075 0.108434,0.0805 0.20097,0.17797 0.265849,0.277385 0.0065,0 0.01303,4.7e-5 0.0195,1.85e-4 0.07105,0.0015 0.139571,0.01143 0.209304,0.02832 -0.06173,-0.111922 -0.117735,-0.197398 -0.186622,-0.248645 -0.05434,-0.04042 -0.118239,-0.06359 -0.206563,-0.06471 -0.0038,-5.1e-5 -0.0077,-5.1e-5 -0.01159,0 z m -0.360501,0.0903 c -0.0029,-8e-6 -0.0057,2.4e-5 -0.0086,8.6e-5 -0.05524,0.0012 -0.115473,0.01542 -0.184301,0.04377 0.220957,0.07397 0.420774,0.198491 0.526659,0.328741 0.07228,-0.02018 0.115788,-0.05789 0.143374,-0.113338 -0.136684,-0.115575 -0.245715,-0.202062 -0.353747,-0.238364 -0.03999,-0.01344 -0.08036,-0.02087 -0.123352,-0.0209 z m -7.98e-4,0.207608 c -0.15504,0.02658 -0.293915,0.125283 -0.345406,0.291791 v 1.2677911 h 0.836672 c -0.525609,-0.190307 -0.679635,-1.118855 -0.184369,-1.02598 0.02296,-0.05571 0.03902,-0.110231 0.04333,-0.163083 l 0.07326,0.006 c -0.0066,0.08099 -0.03472,0.159248 -0.07092,0.235757 -0.0029,0.008 -0.0058,0.0162 -0.0086,0.02385 0.129168,0.335251 0.44746,0.631997 0.666628,0.661523 0.0036,1.33e-4 0.0075,-8e-6 0.01161,-3.54e-4 0.06692,0.0041 0.141038,-0.0166 0.205343,-0.08772 l 0.0314,-0.03473 -0.04119,-0.02225 c -0.02559,-0.01382 -0.0562,-0.0279 -0.07145,-0.04297 -0.0076,-0.0075 -0.01098,-0.01365 -0.01209,-0.02043 -0.0011,-0.0068 -5.12e-4,-0.01662 0.0088,-0.03374 l 0.04198,-0.07731 -0.0845,0.02447 c -0.02479,0.0072 -0.06806,-0.01192 -0.09134,-0.04212 -0.01164,-0.0151 -0.01734,-0.0311 -0.01725,-0.04264 7.8e-5,-0.01156 0.0028,-0.02016 0.01867,-0.03166 l 0.07651,-0.05555 -0.09394,-0.0107 c -0.03923,-0.0045 -0.06438,-0.02619 -0.0754,-0.04835 -0.01102,-0.02216 -0.0091,-0.03966 0.0054,-0.05235 l 0.048,-0.04199 -0.0604,-0.02047 c -0.02642,-0.009 -0.04049,-0.02971 -0.04073,-0.04182 -1.1e-4,-0.0054 9.36e-4,-0.01049 0.0072,-0.01761 0.04299,-0.0094 0.08361,-0.0018 0.110471,0.02507 0.0242,0.02417 0.03284,0.0595 0.02744,0.09766 0.03363,-0.0089 0.0668,-0.0064 0.09483,0.0098 0.03674,0.02119 0.05761,0.06172 0.06163,0.109987 0.05983,-0.03985 0.126454,-0.05005 0.178016,-0.02031 0.06083,0.03508 0.08401,0.116076 0.06609,0.203534 0.09436,-0.131186 0.136035,-0.297797 0.02209,-0.473654 -0.183775,-0.01747 -0.321301,-0.120649 -0.366924,-0.2660301 -0.01977,-0.06299 -0.08371,-0.112759 -0.165187,-0.149077 l -3.15e-4,8.53e-4 c -0.116968,-0.04257 -0.218577,-0.06824 -0.324883,-0.07368 l 3.15e-4,6.1e-4 c -0.009,-3.66e-4 -0.01793,-6.29e-4 -0.0266,-6.77e-4 -0.03751,0.08996 -0.112729,0.156928 -0.225898,0.181132 l -0.02323,0.005 -0.01407,-0.01913 c -0.05591,-0.07603 -0.162158,-0.159099 -0.291051,-0.228406 z m 0.614397,0.25667 c 0.109837,-2.88e-4 0.17649,0.04569 0.165541,0.1748221 -0.140975,0.01333 -0.204254,-0.06561 -0.248072,-0.1676721 0.02953,-0.0045 0.05718,-0.0071 0.08253,-0.0071 z m 0.190386,0.2610071 c 0.01458,2.75e-4 0.02808,0.0039 0.03938,0.01106 -0.0059,0.0043 -0.0114,0.009 -0.01636,0.01394 -0.02063,0.02061 -0.03181,0.04768 -0.03129,0.07371 7.19e-4,0.03666 0.02073,0.06758 0.04987,0.08873 -0.01235,0.03187 -0.0096,0.06865 0.0055,0.09919 0.015,0.03016 0.04145,0.05614 0.07591,0.07236 -0.0057,0.01324 -0.0093,0.02699 -0.0094,0.04063 -2.44e-4,0.03306 0.01329,0.06309 0.03254,0.08806 0.02671,0.03465 0.06632,0.06268 0.110227,0.07044 -7.2e-4,0.0086 -8.03e-4,0.01704 5.23e-4,0.0252 0.0041,0.02535 0.01776,0.04586 0.03296,0.06088 0.01341,0.01325 0.02828,0.02317 0.04247,0.03144 -0.02495,0.01885 -0.04883,0.02775 -0.07323,0.03064 -0.02562,-0.03122 -0.03819,-0.07506 -0.03701,-0.123709 -0.04628,0.02429 -0.09522,0.02814 -0.134195,0.0057 -0.05769,-0.03327 -0.07627,-0.1142 -0.05186,-0.197949 -0.04458,0.01089 -0.08704,0.0036 -0.114793,-0.02412 -0.0349,-0.03487 -0.0375,-0.09292 -0.01217,-0.149258 -0.01446,-0.0024 -0.02738,-0.0085 -0.03746,-0.01858 -0.03464,-0.0346 -0.02271,-0.102613 0.02665,-0.151917 0.03085,-0.03082 0.06901,-0.04703 0.101748,-0.04641 z"
       id="path6900"
       style="stroke-width:0.264583" /></g></svg>
