<?xml version="1.0" encoding="UTF-8" standalone="no"?>
<!-- Created with Inkscape (http://www.inkscape.org/) -->

<svg
   width="26.458334mm"
   height="10.583329mm"
   viewBox="0 0 26.458334 10.583329"
   version="1.1"
   id="svg5"
   sodipodi:docname="giant-troll-ravage.svg"
   inkscape:version="1.2 (dc2aedaf03, 2022-05-15)"
   xml:space="preserve"
   xmlns:inkscape="http://www.inkscape.org/namespaces/inkscape"
   xmlns:sodipodi="http://sodipodi.sourceforge.net/DTD/sodipodi-0.dtd"
   xmlns="http://www.w3.org/2000/svg"
   xmlns:svg="http://www.w3.org/2000/svg"><sodipodi:namedview
     id="namedview7"
     pagecolor="#ffffff"
     bordercolor="#666666"
     borderopacity="1.0"
     inkscape:showpageshadow="2"
     inkscape:pageopacity="0.0"
     inkscape:pagecheckerboard="0"
     inkscape:deskcolor="#d1d1d1"
     inkscape:document-units="px"
     showgrid="true"
     inkscape:zoom="10.550996"
     inkscape:cx="51.322169"
     inkscape:cy="12.131556"
     inkscape:window-width="1600"
     inkscape:window-height="840"
     inkscape:window-x="0"
     inkscape:window-y="23"
     inkscape:window-maximized="1"
     inkscape:current-layer="layer1"><inkscape:grid
       type="xygrid"
       id="grid9"
       originx="0"
       originy="-5.9604643e-08" /></sodipodi:namedview><defs
     id="defs2" /><g
     inkscape:label="Layer 1"
     inkscape:groupmode="layer"
     id="layer1"><rect
       style="color:#000000;overflow:visible;fill:#ffffff;stroke:#999999;stroke-width:0.264583;stroke-dasharray:none"
       id="rect63"
       width="2.3812504"
       height="2.3812492"
       x="0.1322915"
       y="-2.5135407"
       transform="scale(1,-1)" /><rect
       style="color:#000000;overflow:visible;fill:#ffffff;stroke:#999999;stroke-width:0.264583;stroke-dasharray:none"
       id="rect1033"
       width="2.3812504"
       height="2.3812492"
       x="2.7781248"
       y="-2.5135407"
       transform="scale(1,-1)" /><rect
       style="color:#000000;overflow:visible;fill:#ffffff;stroke:#999999;stroke-width:0.264583;stroke-dasharray:none"
       id="rect1035"
       width="2.3812504"
       height="2.3812492"
       x="5.4239583"
       y="-2.5135407"
       transform="scale(1,-1)" /><rect
       style="color:#000000;overflow:visible;fill:#ffffff;stroke:#999999;stroke-width:0.264583;stroke-dasharray:none"
       id="rect1037"
       width="2.3812504"
       height="2.3812492"
       x="8.0697918"
       y="-2.5135407"
       transform="scale(1,-1)" /><rect
       style="color:#000000;overflow:visible;fill:#ffffff;stroke:#999999;stroke-width:0.264583;stroke-dasharray:none"
       id="rect1072"
       width="2.3812504"
       height="2.3812492"
       x="0.1322915"
       y="-5.1593728"
       transform="scale(1,-1)" /><rect
       style="color:#000000;overflow:visible;fill:#800080;stroke:#000000;stroke-width:0.264583;stroke-dasharray:none"
       id="rect1074"
       width="2.3812504"
       height="2.3812492"
       x="2.7781248"
       y="-5.1593728"
       transform="scale(1,-1)" /><rect
       style="color:#000000;overflow:visible;fill:#ffffff;stroke:#999999;stroke-width:0.264583;stroke-dasharray:none"
       id="rect1076"
       width="2.3812504"
       height="2.3812492"
       x="5.4239583"
       y="-5.1593728"
       transform="scale(1,-1)" /><rect
       style="color:#000000;overflow:visible;fill:#ffffff;stroke:#999999;stroke-width:0.264583;stroke-dasharray:none"
       id="rect1078"
       width="2.3812504"
       height="2.3812492"
       x="8.0697918"
       y="-5.1593728"
       transform="scale(1,-1)" /><rect
       style="color:#000000;overflow:visible;fill:#ffffff;stroke:#999999;stroke-width:0.264583;stroke-dasharray:none"
       id="rect1082"
       width="2.3812504"
       height="2.3812492"
       x="0.1322915"
       y="-7.8052053"
       transform="scale(1,-1)" /><rect
       style="color:#000000;overflow:visible;fill:#ffffff;stroke:#999999;stroke-width:0.264583;stroke-dasharray:none"
       id="rect1084"
       width="2.3812504"
       height="2.3812492"
       x="2.7781248"
       y="-7.8052053"
       transform="scale(1,-1)" /><rect
       style="color:#000000;overflow:visible;fill:#ffffff;stroke:#999999;stroke-width:0.264583;stroke-dasharray:none"
       id="rect1086"
       width="2.3812504"
       height="2.3812492"
       x="5.4239583"
       y="-7.8052053"
       transform="scale(1,-1)" /><rect
       style="color:#000000;overflow:visible;fill:#ffffff;stroke:#999999;stroke-width:0.264583;stroke-dasharray:none"
       id="rect1088"
       width="2.3812504"
       height="2.3812492"
       x="8.0697918"
       y="-7.8052053"
       transform="scale(1,-1)" /><rect
       style="color:#000000;overflow:visible;fill:#ffffff;stroke:#999999;stroke-width:0.264583;stroke-dasharray:none"
       id="rect1092"
       width="2.3812504"
       height="2.3812492"
       x="0.1322915"
       y="-10.451037"
       transform="scale(1,-1)" /><rect
       style="color:#000000;overflow:visible;fill:#ffffff;stroke:#999999;stroke-width:0.264583;stroke-dasharray:none"
       id="rect1094"
       width="2.3812504"
       height="2.3812492"
       x="2.7781248"
       y="-10.451037"
       transform="scale(1,-1)" /><rect
       style="color:#000000;overflow:visible;fill:#ffffff;stroke:#999999;stroke-width:0.264583;stroke-dasharray:none"
       id="rect1096"
       width="2.3812504"
       height="2.3812492"
       x="5.4239583"
       y="-10.451037"
       transform="scale(1,-1)" /><rect
       style="color:#000000;overflow:visible;fill:#ffffff;stroke:#999999;stroke-width:0.264583;stroke-dasharray:none"
       id="rect1098"
       width="2.3812504"
       height="2.3812492"
       x="8.0697918"
       y="-10.451037"
       transform="scale(1,-1)" /><rect
       style="color:#000000;overflow:visible;fill:#ffffff;stroke:#999999;stroke-width:0.264583;stroke-dasharray:none"
       id="rect1124"
       width="2.3812504"
       height="2.3812492"
       x="16.007292"
       y="-2.5135407"
       transform="scale(1,-1)" /><rect
       style="color:#000000;overflow:visible;fill:#ffffff;stroke:#999999;stroke-width:0.264583;stroke-dasharray:none"
       id="rect1126"
       width="2.3812504"
       height="2.3812492"
       x="18.653126"
       y="-2.5135407"
       transform="scale(1,-1)" /><rect
       style="color:#000000;overflow:visible;fill:#ffffff;stroke:#999999;stroke-width:0.264583;stroke-dasharray:none"
       id="rect1128"
       width="2.3812504"
       height="2.3812492"
       x="21.298958"
       y="-2.5135407"
       transform="scale(1,-1)" /><rect
       style="color:#000000;overflow:visible;fill:#ffffff;stroke:#999999;stroke-width:0.264583;stroke-dasharray:none"
       id="rect1130"
       width="2.3812504"
       height="2.3812492"
       x="23.944792"
       y="-2.5135407"
       transform="scale(1,-1)" /><rect
       style="color:#000000;overflow:visible;fill:#ffffff;stroke:#999999;stroke-width:0.264583;stroke-dasharray:none"
       id="rect1134"
       width="2.3812504"
       height="2.3812492"
       x="16.007292"
       y="-5.1593728"
       transform="scale(1,-1)" /><rect
       style="color:#000000;overflow:visible;fill:#800080;stroke:#000000;stroke-width:0.264583;stroke-dasharray:none"
       id="rect1136"
       width="2.3812504"
       height="2.3812492"
       x="18.653126"
       y="-5.1593728"
       transform="scale(1,-1)" /><rect
       style="color:#000000;overflow:visible;fill:#800080;stroke:#000000;stroke-width:0.264583;stroke-dasharray:none"
       id="rect1138"
       width="2.3812504"
       height="2.3812492"
       x="21.298958"
       y="-5.1593728"
       transform="scale(1,-1)" /><rect
       style="color:#000000;overflow:visible;fill:#800080;stroke:#000000;stroke-width:0.264583;stroke-dasharray:none"
       id="rect1140"
       width="2.3812504"
       height="2.3812492"
       x="23.944792"
       y="-5.1593728"
       transform="scale(1,-1)" /><rect
       style="color:#000000;overflow:visible;fill:#ffffff;stroke:#999999;stroke-width:0.264583;stroke-dasharray:none"
       id="rect1144"
       width="2.3812504"
       height="2.3812492"
       x="16.007292"
       y="-7.8052053"
       transform="scale(1,-1)" /><rect
       style="color:#000000;overflow:visible;fill:#ffffff;stroke:#999999;stroke-width:0.264583;stroke-dasharray:none"
       id="rect1146"
       width="2.3812504"
       height="2.3812492"
       x="18.653126"
       y="-7.8052053"
       transform="scale(1,-1)" /><rect
       style="color:#000000;overflow:visible;fill:#800080;stroke:#000000;stroke-width:0.264583;stroke-dasharray:none"
       id="rect1148"
       width="2.3812504"
       height="2.3812492"
       x="21.298958"
       y="-7.8052053"
       transform="scale(1,-1)" /><rect
       style="color:#000000;overflow:visible;fill:#ffffff;stroke:#999999;stroke-width:0.264583;stroke-dasharray:none"
       id="rect1150"
       width="2.3812504"
       height="2.3812492"
       x="23.944792"
       y="-7.8052053"
       transform="scale(1,-1)" /><rect
       style="color:#000000;overflow:visible;fill:#ffffff;stroke:#999999;stroke-width:0.264583;stroke-dasharray:none"
       id="rect1154"
       width="2.3812504"
       height="2.3812492"
       x="16.007292"
       y="-10.451037"
       transform="scale(1,-1)" /><rect
       style="color:#000000;overflow:visible;fill:#ffffff;stroke:#999999;stroke-width:0.264583;stroke-dasharray:none"
       id="rect1156"
       width="2.3812504"
       height="2.3812492"
       x="18.653126"
       y="-10.451037"
       transform="scale(1,-1)" /><rect
       style="color:#000000;overflow:visible;fill:#ffffff;stroke:#999999;stroke-width:0.264583;stroke-dasharray:none"
       id="rect1158"
       width="2.3812504"
       height="2.3812492"
       x="21.298958"
       y="-10.451037"
       transform="scale(1,-1)" /><rect
       style="color:#000000;overflow:visible;fill:#ffffff;stroke:#999999;stroke-width:0.264583;stroke-dasharray:none"
       id="rect1160"
       width="2.3812504"
       height="2.3812492"
       x="23.944792"
       y="-10.451037"
       transform="scale(1,-1)" /><path
       fill="#000000"
       d="m 20.227607,3.0681879 a 0.24252696,0.24252696 0 0 0 -0.0078,1.11e-5 c -0.0097,1.74e-4 -0.01999,9.429e-4 -0.03093,0.00231 -0.01758,0.013106 -0.01711,0.049937 -0.03374,0.07146 -0.03728,-0.00823 -0.06479,0.0219 -0.06326,0.051943 l 0.05127,0.033668 c -0.05099,0.08424 -0.127501,0.1487863 -0.147112,0.2375087 -0.06245,-0.010877 -0.143373,-0.01848 -0.204454,-0.012274 -0.0012,0.00266 -0.0024,0.0054 -0.0037,0.00806 -0.03002,0.063582 -0.07433,0.1135631 -0.124557,0.1435004 -0.05023,0.02994 -0.109125,0.039908 -0.160277,0.015454 -0.04568,-0.021848 -0.07406,-0.065888 -0.08579,-0.1164363 -0.106005,-0.013637 -0.226626,0.1297022 -0.338199,0.2288722 -0.07198,0.1022943 0.01537,0.303559 -0.0081,0.3708152 -0.01411,0.040551 0.01842,0.1247873 0.07745,0.1367109 0.05781,0.011683 0.09848,-0.035425 0.127151,-0.082182 0.0075,-0.012326 -0.0972,-0.072985 -0.103019,-0.1059294 -0.0069,-0.039317 -0.0027,-0.1572909 0.0095,-0.2272205 0.07156,-0.0072 0.132363,-0.065117 0.168775,-0.094656 0.03043,0.1387089 0.05556,0.3018626 0.112186,0.4413327 -0.03259,0.192797 -0.07157,0.3714195 -0.06341,0.5687027 l -0.16925,0.02922 c -0.01742,0.029228 -0.0258,0.063754 -7.5e-5,0.095626 0,0 0.280479,0.00154 0.291069,0.00154 0.0063,-0.0012 0.0094,-0.077339 0.0055,-0.1154025 0.0089,-0.1190865 0.08349,-0.2637483 0.143467,-0.386043 0.103848,-0.1411939 0.240442,-0.173766 0.351567,-0.326892 0.110271,0.084677 0.177012,0.1707539 0.224483,0.2903196 0.106559,-0.1328282 0.12651,-0.1370959 0.239914,-0.2104866 -0.007,-0.032108 -0.0093,-0.065991 -0.05481,-0.083665 -0.07743,0.02814 -0.04392,0.00634 -0.148761,0.071014 -0.05549,-0.082568 -0.10963,-0.1913192 -0.218093,-0.2341684 -0.01455,-0.00343 -0.17003,0.042206 -0.288917,0.1438552 0.01774,-0.087773 0.03662,-0.2119188 0.04303,-0.3314691 0.07894,-0.018583 0.173088,-0.076071 0.248028,-0.1082402 C 20.203567,3.4645375 20.18071,3.3708762 20.2284,3.2603663 l 0.02809,-0.00754 c 0.03356,-0.053991 0.0549,-0.1073275 0.06369,-0.1613177 -0.02556,-0.013157 -0.05459,-0.022843 -0.09276,-0.023374 z m -0.558648,0.124093 c -0.01952,-1.662e-4 -0.04119,0.00626 -0.06404,0.019903 -0.03654,0.02178 -0.07329,0.061817 -0.09805,0.1142831 -0.02477,0.052465 -0.0324,0.1064231 -0.0261,0.1486955 0.0063,0.042274 0.02485,0.070654 0.05133,0.083314 0.02648,0.01266 0.06005,0.00921 0.0966,-0.012583 0.03654,-0.02178 0.07329,-0.061817 0.09805,-0.1142831 0.02476,-0.052465 0.0324,-0.1064231 0.0261,-0.1486955 -0.0063,-0.042274 -0.02486,-0.070645 -0.05134,-0.083305 -0.0099,-0.00471 -0.02086,-0.0072 -0.03256,-0.00737 z m 0.907372,1.0810356 c -0.01425,5.203e-4 -0.02967,0.00746 -0.04497,0.021977 -0.01516,0.0147 -0.02647,0.034028 -0.0341,0.0567 -0.0076,0.02268 -0.01218,0.045325 -0.0072,0.065957 0.0147,0.060377 -0.01112,0.00471 -0.01455,-0.020211 -0.0021,-0.016483 -0.0021,-0.03732 -0.0045,-0.06714 l -0.06763,0.00566 c 0.0015,0.01746 0.0019,0.03228 0.0027,0.046937 l -0.06181,0.0042 c 0.01918,0.079808 0.0149,0.1864712 0.124565,0.1776419 -0.02996,0.08442 -0.07975,0.173129 -0.138148,0.2690265 l 0.05796,0.035297 c 0.03118,-0.051206 0.06083,-0.1012881 0.0867,-0.1508444 0.01881,0.0555 0.0496,0.1033726 0.0743,0.1492689 l 0.05976,-0.032151 c -0.0337,-0.062657 -0.06874,-0.1170054 -0.07978,-0.1781322 0.01927,-0.060514 0.03772,-0.1234176 0.04354,-0.1880278 0.02833,-0.014554 0.04712,-0.046688 0.05591,-0.072188 0.0076,-0.022671 0.01031,-0.044957 0.0071,-0.065948 -0.0098,-0.036754 -0.03275,-0.059031 -0.05996,-0.058028 z"
       id="path6331"
       style="stroke-width:0.264584" /><path
       fill="#000000"
       d="m 25.519273,3.0681879 a 0.24252696,0.24252696 0 0 0 -0.0078,1.11e-5 c -0.0097,1.74e-4 -0.01999,9.429e-4 -0.03093,0.00231 -0.01758,0.013106 -0.01711,0.049937 -0.03374,0.07146 -0.03728,-0.00823 -0.06479,0.0219 -0.06326,0.051943 l 0.05127,0.033668 c -0.05099,0.08424 -0.127501,0.1487863 -0.147112,0.2375087 -0.06245,-0.010877 -0.143373,-0.01848 -0.204454,-0.012274 -0.0012,0.00266 -0.0024,0.0054 -0.0037,0.00806 -0.03002,0.063582 -0.07433,0.1135631 -0.124557,0.1435004 -0.05023,0.02994 -0.109125,0.039908 -0.160277,0.015454 -0.04568,-0.021848 -0.07406,-0.065888 -0.08579,-0.1164363 -0.106005,-0.013637 -0.226626,0.1297022 -0.338199,0.2288722 -0.07198,0.1022943 0.01537,0.303559 -0.0081,0.3708152 -0.01411,0.040551 0.01842,0.1247873 0.07745,0.1367109 0.05781,0.011683 0.09848,-0.035425 0.127151,-0.082182 0.0075,-0.012326 -0.0972,-0.072985 -0.103019,-0.1059294 -0.0069,-0.039317 -0.0027,-0.1572909 0.0095,-0.2272205 0.07156,-0.0072 0.132363,-0.065117 0.168775,-0.094656 0.03043,0.1387089 0.05556,0.3018626 0.112186,0.4413327 -0.03259,0.192797 -0.07157,0.3714195 -0.06341,0.5687027 l -0.16925,0.02922 c -0.01742,0.029228 -0.0258,0.063754 -7.5e-5,0.095626 0,0 0.280479,0.00154 0.291069,0.00154 0.0063,-0.0012 0.0094,-0.077339 0.0055,-0.1154025 0.0089,-0.1190865 0.08349,-0.2637483 0.143467,-0.386043 0.103848,-0.1411939 0.240442,-0.173766 0.351567,-0.326892 0.110271,0.084677 0.177012,0.1707539 0.224483,0.2903196 0.106559,-0.1328282 0.12651,-0.1370959 0.239914,-0.2104866 -0.007,-0.032108 -0.0093,-0.065991 -0.05481,-0.083665 -0.07743,0.02814 -0.04392,0.00634 -0.148761,0.071014 -0.05549,-0.082568 -0.10963,-0.1913192 -0.218093,-0.2341684 -0.01455,-0.00343 -0.17003,0.042206 -0.288917,0.1438552 0.01774,-0.087773 0.03662,-0.2119188 0.04303,-0.3314691 0.07894,-0.018583 0.173088,-0.076071 0.248028,-0.1082402 0.136824,-0.1105091 0.113967,-0.2041704 0.161657,-0.3146803 l 0.02809,-0.00754 c 0.03356,-0.053991 0.0549,-0.1073275 0.06369,-0.1613177 -0.02556,-0.013157 -0.05459,-0.022843 -0.09276,-0.023374 z m -0.558648,0.124093 c -0.01952,-1.662e-4 -0.04119,0.00626 -0.06404,0.019903 -0.03654,0.02178 -0.07329,0.061817 -0.09805,0.1142831 -0.02477,0.052465 -0.0324,0.1064231 -0.0261,0.1486955 0.0063,0.042274 0.02485,0.070654 0.05133,0.083314 0.02648,0.01266 0.06005,0.00921 0.0966,-0.012583 0.03654,-0.02178 0.07329,-0.061817 0.09805,-0.1142831 0.02476,-0.052465 0.0324,-0.1064231 0.0261,-0.1486955 -0.0063,-0.042274 -0.02486,-0.070645 -0.05134,-0.083305 -0.0099,-0.00471 -0.02086,-0.0072 -0.03256,-0.00737 z m 0.907372,1.0810356 c -0.01425,5.203e-4 -0.02967,0.00746 -0.04497,0.021977 -0.01516,0.0147 -0.02647,0.034028 -0.0341,0.0567 -0.0076,0.02268 -0.01218,0.045325 -0.0072,0.065957 0.0147,0.060377 -0.01112,0.00471 -0.01455,-0.020211 -0.0021,-0.016483 -0.0021,-0.03732 -0.0045,-0.06714 l -0.06763,0.00566 c 0.0015,0.01746 0.0019,0.03228 0.0027,0.046937 l -0.06181,0.0042 c 0.01918,0.079808 0.0149,0.1864712 0.124565,0.1776419 -0.02996,0.08442 -0.07975,0.173129 -0.138148,0.2690265 l 0.05796,0.035297 c 0.03118,-0.051206 0.06083,-0.1012881 0.0867,-0.1508444 0.01881,0.0555 0.0496,0.1033726 0.0743,0.1492689 l 0.05976,-0.032151 c -0.0337,-0.062657 -0.06874,-0.1170054 -0.07978,-0.1781322 0.01927,-0.060514 0.03772,-0.1234176 0.04354,-0.1880278 0.02833,-0.014554 0.04712,-0.046688 0.05591,-0.072188 0.0076,-0.022671 0.01031,-0.044957 0.0071,-0.065948 -0.0098,-0.036754 -0.03275,-0.059031 -0.05996,-0.058028 z"
       id="path6340"
       style="stroke-width:0.264584" /><path
       fill="#000000"
       d="m 22.873439,3.0681879 a 0.24252696,0.24252696 0 0 0 -0.0078,1.11e-5 c -0.0097,1.74e-4 -0.01999,9.429e-4 -0.03093,0.00231 -0.01758,0.013106 -0.01711,0.049937 -0.03374,0.07146 -0.03728,-0.00823 -0.06479,0.0219 -0.06326,0.051943 l 0.05127,0.033668 c -0.05099,0.08424 -0.127501,0.1487863 -0.147112,0.2375087 -0.06245,-0.010877 -0.143373,-0.01848 -0.204454,-0.012274 -0.0012,0.00266 -0.0024,0.0054 -0.0037,0.00806 -0.03002,0.063582 -0.07433,0.1135631 -0.124557,0.1435004 -0.05023,0.02994 -0.109125,0.039908 -0.160277,0.015454 -0.04568,-0.021848 -0.07406,-0.065888 -0.08579,-0.1164363 -0.106005,-0.013637 -0.226626,0.1297022 -0.338199,0.2288722 -0.07198,0.1022943 0.01537,0.303559 -0.0081,0.3708152 -0.01411,0.040551 0.01842,0.1247873 0.07745,0.1367109 0.05781,0.011683 0.09848,-0.035425 0.127151,-0.082182 0.0075,-0.012326 -0.0972,-0.072985 -0.103019,-0.1059294 -0.0069,-0.039317 -0.0027,-0.1572909 0.0095,-0.2272205 0.07156,-0.0072 0.132363,-0.065117 0.168775,-0.094656 0.03043,0.1387089 0.05556,0.3018626 0.112186,0.4413327 -0.03259,0.192797 -0.07157,0.3714195 -0.06341,0.5687027 l -0.16925,0.02922 c -0.01742,0.029228 -0.0258,0.063754 -7.5e-5,0.095626 0,0 0.280479,0.00154 0.291069,0.00154 0.0063,-0.0012 0.0094,-0.077339 0.0055,-0.1154025 0.0089,-0.1190865 0.08349,-0.2637483 0.143467,-0.386043 0.103848,-0.1411939 0.240442,-0.173766 0.351567,-0.326892 0.110271,0.084677 0.177012,0.1707539 0.224483,0.2903196 0.106559,-0.1328282 0.12651,-0.1370959 0.239914,-0.2104866 -0.007,-0.032108 -0.0093,-0.065991 -0.05481,-0.083665 -0.07743,0.02814 -0.04392,0.00634 -0.148761,0.071014 -0.05549,-0.082568 -0.10963,-0.1913192 -0.218093,-0.2341684 -0.01455,-0.00343 -0.17003,0.042206 -0.288917,0.1438552 0.01774,-0.087773 0.03662,-0.2119188 0.04303,-0.3314691 0.07894,-0.018583 0.173088,-0.076071 0.248028,-0.1082402 0.136824,-0.1105091 0.113967,-0.2041704 0.161657,-0.3146803 l 0.02809,-0.00754 c 0.03356,-0.053991 0.0549,-0.1073275 0.06369,-0.1613177 -0.02556,-0.013157 -0.05459,-0.022843 -0.09276,-0.023374 z m -0.558648,0.124093 c -0.01952,-1.662e-4 -0.04119,0.00626 -0.06404,0.019903 -0.03654,0.02178 -0.07329,0.061817 -0.09805,0.1142831 -0.02477,0.052465 -0.0324,0.1064231 -0.0261,0.1486955 0.0063,0.042274 0.02485,0.070654 0.05133,0.083314 0.02648,0.01266 0.06005,0.00921 0.0966,-0.012583 0.03654,-0.02178 0.07329,-0.061817 0.09805,-0.1142831 0.02476,-0.052465 0.0324,-0.1064231 0.0261,-0.1486955 -0.0063,-0.042274 -0.02486,-0.070645 -0.05134,-0.083305 -0.0099,-0.00471 -0.02086,-0.0072 -0.03256,-0.00737 z m 0.907372,1.0810356 c -0.01425,5.203e-4 -0.02967,0.00746 -0.04497,0.021977 -0.01516,0.0147 -0.02647,0.034028 -0.0341,0.0567 -0.0076,0.02268 -0.01218,0.045325 -0.0072,0.065957 0.0147,0.060377 -0.01112,0.00471 -0.01455,-0.020211 -0.0021,-0.016483 -0.0021,-0.03732 -0.0045,-0.06714 l -0.06763,0.00566 c 0.0015,0.01746 0.0019,0.03228 0.0027,0.046937 l -0.06181,0.0042 c 0.01918,0.079808 0.0149,0.1864712 0.124565,0.1776419 -0.02996,0.08442 -0.07975,0.173129 -0.138148,0.2690265 l 0.05796,0.035297 c 0.03118,-0.051206 0.06083,-0.1012881 0.0867,-0.1508444 0.01881,0.0555 0.0496,0.1033726 0.0743,0.1492689 l 0.05976,-0.032151 C 23.22154,4.7729784 23.1865,4.71863 23.17546,4.6575032 23.19473,4.5969892 23.21318,4.5340856 23.219,4.4694754 c 0.02833,-0.014554 0.04712,-0.046688 0.05591,-0.072188 0.0076,-0.022671 0.01031,-0.044957 0.0071,-0.065948 -0.0098,-0.036754 -0.03275,-0.059031 -0.05996,-0.058028 z"
       id="path6342"
       style="stroke-width:0.264584" /><path
       fill="#000000"
       d="m 22.873439,5.7140204 a 0.24252696,0.24252696 0 0 0 -0.0078,1.11e-5 c -0.0097,1.74e-4 -0.01999,9.429e-4 -0.03093,0.00231 -0.01758,0.013106 -0.01711,0.049937 -0.03374,0.07146 -0.03728,-0.00823 -0.06479,0.0219 -0.06326,0.051943 l 0.05127,0.033668 c -0.05099,0.08424 -0.127501,0.1487863 -0.147112,0.2375087 -0.06245,-0.010877 -0.143373,-0.01848 -0.204454,-0.012274 -0.0012,0.00266 -0.0024,0.0054 -0.0037,0.00806 -0.03002,0.063582 -0.07433,0.1135631 -0.124557,0.1435004 -0.05023,0.02994 -0.109125,0.039908 -0.160277,0.015454 -0.04568,-0.021848 -0.07406,-0.065888 -0.08579,-0.1164363 -0.106005,-0.013637 -0.226626,0.1297022 -0.338199,0.2288722 -0.07198,0.1022943 0.01537,0.303559 -0.0081,0.3708152 -0.01411,0.040551 0.01842,0.1247873 0.07745,0.1367109 0.05781,0.011683 0.09848,-0.035425 0.127151,-0.082182 0.0075,-0.012326 -0.0972,-0.072985 -0.103019,-0.1059294 -0.0069,-0.039317 -0.0027,-0.1572909 0.0095,-0.2272205 0.07156,-0.0072 0.132363,-0.065117 0.168775,-0.094656 0.03043,0.1387089 0.05556,0.3018626 0.112186,0.4413327 -0.03259,0.192797 -0.07157,0.3714195 -0.06341,0.5687027 l -0.16925,0.02922 c -0.01742,0.029228 -0.0258,0.063754 -7.5e-5,0.095626 0,0 0.280479,0.00154 0.291069,0.00154 0.0063,-0.0012 0.0094,-0.077339 0.0055,-0.1154025 0.0089,-0.1190865 0.08349,-0.2637483 0.143467,-0.386043 0.103848,-0.1411939 0.240442,-0.173766 0.351567,-0.326892 0.110271,0.084677 0.177012,0.1707539 0.224483,0.2903196 0.106559,-0.1328282 0.12651,-0.1370959 0.239914,-0.2104866 -0.007,-0.032108 -0.0093,-0.065991 -0.05481,-0.083665 -0.07743,0.02814 -0.04392,0.00634 -0.148761,0.071014 -0.05549,-0.082568 -0.10963,-0.1913192 -0.218093,-0.2341684 -0.01455,-0.00343 -0.17003,0.042206 -0.288917,0.1438552 0.01774,-0.087773 0.03662,-0.2119188 0.04303,-0.3314691 0.07894,-0.018583 0.173088,-0.076071 0.248028,-0.1082402 0.136824,-0.1105091 0.113967,-0.2041704 0.161657,-0.3146803 l 0.02809,-0.00754 c 0.03356,-0.053991 0.0549,-0.1073275 0.06369,-0.1613177 -0.02556,-0.013157 -0.05459,-0.022843 -0.09276,-0.023374 z m -0.558648,0.124093 c -0.01952,-1.662e-4 -0.04119,0.00626 -0.06404,0.019903 -0.03654,0.02178 -0.07329,0.061817 -0.09805,0.1142831 -0.02477,0.052465 -0.0324,0.1064231 -0.0261,0.1486955 0.0063,0.042274 0.02485,0.070654 0.05133,0.083314 0.02648,0.01266 0.06005,0.00921 0.0966,-0.012583 0.03654,-0.02178 0.07329,-0.061817 0.09805,-0.1142831 0.02476,-0.052465 0.0324,-0.1064231 0.0261,-0.1486955 -0.0063,-0.042274 -0.02486,-0.070645 -0.05134,-0.083305 -0.0099,-0.00471 -0.02086,-0.0072 -0.03256,-0.00737 z m 0.907372,1.0810356 c -0.01425,5.203e-4 -0.02967,0.00746 -0.04497,0.021977 -0.01516,0.0147 -0.02647,0.034028 -0.0341,0.0567 -0.0076,0.02268 -0.01218,0.045325 -0.0072,0.065957 0.0147,0.060377 -0.01112,0.00471 -0.01455,-0.020211 -0.0021,-0.016483 -0.0021,-0.03732 -0.0045,-0.06714 l -0.06763,0.00566 c 0.0015,0.01746 0.0019,0.03228 0.0027,0.046937 l -0.06181,0.0042 c 0.01918,0.079808 0.0149,0.1864712 0.124565,0.1776419 -0.02996,0.08442 -0.07975,0.173129 -0.138148,0.2690265 l 0.05796,0.035297 c 0.03118,-0.051206 0.06083,-0.1012881 0.0867,-0.1508444 0.01881,0.0555 0.0496,0.1033726 0.0743,0.1492689 l 0.05976,-0.032151 C 23.22154,7.4188109 23.1865,7.3644625 23.17546,7.3033357 23.19473,7.2428217 23.21318,7.1799181 23.219,7.1153079 c 0.02833,-0.014554 0.04712,-0.046688 0.05591,-0.072188 0.0076,-0.022671 0.01031,-0.044957 0.0071,-0.065948 -0.0098,-0.036754 -0.03275,-0.059031 -0.05996,-0.058028 z"
       id="path6344"
       style="stroke-width:0.264584" /></g></svg>
