<?xml version="1.0" encoding="UTF-8" standalone="no"?>
<!-- Created with Inkscape (http://www.inkscape.org/) -->

<svg
   width="26.458334mm"
   height="10.583329mm"
   viewBox="0 0 26.458334 10.583329"
   version="1.1"
   id="svg5"
   sodipodi:docname="gorgon-gaze.svg"
   inkscape:version="1.2 (dc2aedaf03, 2022-05-15)"
   xml:space="preserve"
   xmlns:inkscape="http://www.inkscape.org/namespaces/inkscape"
   xmlns:sodipodi="http://sodipodi.sourceforge.net/DTD/sodipodi-0.dtd"
   xmlns="http://www.w3.org/2000/svg"
   xmlns:svg="http://www.w3.org/2000/svg"><sodipodi:namedview
     id="namedview7"
     pagecolor="#ffffff"
     bordercolor="#666666"
     borderopacity="1.0"
     inkscape:showpageshadow="2"
     inkscape:pageopacity="0.0"
     inkscape:pagecheckerboard="0"
     inkscape:deskcolor="#d1d1d1"
     inkscape:document-units="px"
     showgrid="true"
     inkscape:zoom="22.539144"
     inkscape:cx="76.289499"
     inkscape:cy="16.548987"
     inkscape:window-width="1600"
     inkscape:window-height="840"
     inkscape:window-x="0"
     inkscape:window-y="23"
     inkscape:window-maximized="1"
     inkscape:current-layer="layer1"><inkscape:grid
       type="xygrid"
       id="grid9"
       originx="0"
       originy="-5.9604643e-08" /></sodipodi:namedview><defs
     id="defs2" /><g
     inkscape:label="Layer 1"
     inkscape:groupmode="layer"
     id="layer1"><rect
       style="color:#000000;overflow:visible;fill:#ffffff;stroke:#999999;stroke-width:0.264583;stroke-dasharray:none"
       id="rect63"
       width="2.3812504"
       height="2.3812492"
       x="0.1322915"
       y="-2.5135407"
       transform="scale(1,-1)" /><rect
       style="color:#000000;overflow:visible;fill:#ffffff;stroke:#999999;stroke-width:0.264583;stroke-dasharray:none"
       id="rect1033"
       width="2.3812504"
       height="2.3812492"
       x="2.7781248"
       y="-2.5135407"
       transform="scale(1,-1)" /><rect
       style="color:#000000;overflow:visible;fill:#ffffff;stroke:#999999;stroke-width:0.264583;stroke-dasharray:none"
       id="rect1035"
       width="2.3812504"
       height="2.3812492"
       x="5.4239583"
       y="-2.5135407"
       transform="scale(1,-1)" /><rect
       style="color:#000000;overflow:visible;fill:#ffffff;stroke:#999999;stroke-width:0.264583;stroke-dasharray:none"
       id="rect1037"
       width="2.3812504"
       height="2.3812492"
       x="8.0697918"
       y="-2.5135407"
       transform="scale(1,-1)" /><rect
       style="color:#000000;overflow:visible;fill:#ffffff;stroke:#999999;stroke-width:0.264583;stroke-dasharray:none"
       id="rect1072"
       width="2.3812504"
       height="2.3812492"
       x="0.1322915"
       y="-5.1593728"
       transform="scale(1,-1)" /><rect
       style="color:#000000;overflow:visible;fill:#800080;stroke:#000000;stroke-width:0.264583;stroke-dasharray:none"
       id="rect1074"
       width="2.3812504"
       height="2.3812492"
       x="2.7781248"
       y="-5.1593728"
       transform="scale(1,-1)" /><rect
       style="color:#000000;overflow:visible;fill:#ffffff;stroke:#999999;stroke-width:0.264583;stroke-dasharray:none"
       id="rect1076"
       width="2.3812504"
       height="2.3812492"
       x="5.4239583"
       y="-5.1593728"
       transform="scale(1,-1)" /><rect
       style="color:#000000;overflow:visible;fill:#ffffff;stroke:#999999;stroke-width:0.264583;stroke-dasharray:none"
       id="rect1078"
       width="2.3812504"
       height="2.3812492"
       x="8.0697918"
       y="-5.1593728"
       transform="scale(1,-1)" /><rect
       style="color:#000000;overflow:visible;fill:#ffffff;stroke:#999999;stroke-width:0.264583;stroke-dasharray:none"
       id="rect1082"
       width="2.3812504"
       height="2.3812492"
       x="0.1322915"
       y="-7.8052053"
       transform="scale(1,-1)" /><rect
       style="color:#000000;overflow:visible;fill:#ffffff;stroke:#999999;stroke-width:0.264583;stroke-dasharray:none"
       id="rect1084"
       width="2.3812504"
       height="2.3812492"
       x="2.7781248"
       y="-7.8052053"
       transform="scale(1,-1)" /><rect
       style="color:#000000;overflow:visible;fill:#ffffff;stroke:#999999;stroke-width:0.264583;stroke-dasharray:none"
       id="rect1086"
       width="2.3812504"
       height="2.3812492"
       x="5.4239583"
       y="-7.8052053"
       transform="scale(1,-1)" /><rect
       style="color:#000000;overflow:visible;fill:#ffffff;stroke:#999999;stroke-width:0.264583;stroke-dasharray:none"
       id="rect1088"
       width="2.3812504"
       height="2.3812492"
       x="8.0697918"
       y="-7.8052053"
       transform="scale(1,-1)" /><rect
       style="color:#000000;overflow:visible;fill:#ffffff;stroke:#999999;stroke-width:0.264583;stroke-dasharray:none"
       id="rect1092"
       width="2.3812504"
       height="2.3812492"
       x="0.1322915"
       y="-10.451037"
       transform="scale(1,-1)" /><rect
       style="color:#000000;overflow:visible;fill:#ffffff;stroke:#999999;stroke-width:0.264583;stroke-dasharray:none"
       id="rect1094"
       width="2.3812504"
       height="2.3812492"
       x="2.7781248"
       y="-10.451037"
       transform="scale(1,-1)" /><rect
       style="color:#000000;overflow:visible;fill:#ffffff;stroke:#999999;stroke-width:0.264583;stroke-dasharray:none"
       id="rect1096"
       width="2.3812504"
       height="2.3812492"
       x="5.4239583"
       y="-10.451037"
       transform="scale(1,-1)" /><rect
       style="color:#000000;overflow:visible;fill:#ffffff;stroke:#999999;stroke-width:0.264583;stroke-dasharray:none"
       id="rect1098"
       width="2.3812504"
       height="2.3812492"
       x="8.0697918"
       y="-10.451037"
       transform="scale(1,-1)" /><rect
       style="color:#000000;overflow:visible;fill:#ffffff;stroke:#999999;stroke-width:0.264583;stroke-dasharray:none"
       id="rect1124"
       width="2.3812504"
       height="2.3812492"
       x="16.007292"
       y="-2.5135407"
       transform="scale(1,-1)" /><rect
       style="color:#000000;overflow:visible;fill:#ffffff;stroke:#999999;stroke-width:0.264583;stroke-dasharray:none"
       id="rect1126"
       width="2.3812504"
       height="2.3812492"
       x="18.653126"
       y="-2.5135407"
       transform="scale(1,-1)" /><rect
       style="color:#000000;overflow:visible;fill:#ffffff;stroke:#999999;stroke-width:0.264583;stroke-dasharray:none"
       id="rect1128"
       width="2.3812504"
       height="2.3812492"
       x="21.298958"
       y="-2.5135407"
       transform="scale(1,-1)" /><rect
       style="color:#000000;overflow:visible;fill:#ffffff;stroke:#999999;stroke-width:0.264583;stroke-dasharray:none"
       id="rect1130"
       width="2.3812504"
       height="2.3812492"
       x="23.944792"
       y="-2.5135407"
       transform="scale(1,-1)" /><rect
       style="color:#000000;overflow:visible;fill:#ffffff;stroke:#999999;stroke-width:0.264583;stroke-dasharray:none"
       id="rect1134"
       width="2.3812504"
       height="2.3812492"
       x="16.007292"
       y="-5.1593728"
       transform="scale(1,-1)" /><rect
       style="color:#000000;overflow:visible;fill:#800080;stroke:#000000;stroke-width:0.264583;stroke-dasharray:none"
       id="rect1136"
       width="2.3812504"
       height="2.3812492"
       x="18.653126"
       y="-5.1593728"
       transform="scale(1,-1)" /><rect
       style="color:#000000;overflow:visible;fill:#ffffff;stroke:#999999;stroke-width:0.264583;stroke-dasharray:none"
       id="rect1138"
       width="2.3812504"
       height="2.3812492"
       x="21.298958"
       y="-5.1593728"
       transform="scale(1,-1)" /><rect
       style="color:#000000;overflow:visible;fill:#800080;stroke:#000000;stroke-width:0.264583;stroke-dasharray:none"
       id="rect1140"
       width="2.3812504"
       height="2.3812492"
       x="23.944792"
       y="-5.1593728"
       transform="scale(1,-1)" /><rect
       style="color:#000000;overflow:visible;fill:#ffffff;stroke:#999999;stroke-width:0.264583;stroke-dasharray:none"
       id="rect1144"
       width="2.3812504"
       height="2.3812492"
       x="16.007292"
       y="-7.8052053"
       transform="scale(1,-1)" /><rect
       style="color:#000000;overflow:visible;fill:#ffffff;stroke:#999999;stroke-width:0.264583;stroke-dasharray:none"
       id="rect1146"
       width="2.3812504"
       height="2.3812492"
       x="18.653126"
       y="-7.8052053"
       transform="scale(1,-1)" /><rect
       style="color:#000000;overflow:visible;fill:#800080;stroke:#000000;stroke-width:0.264583;stroke-dasharray:none"
       id="rect1148"
       width="2.3812504"
       height="2.3812492"
       x="21.298958"
       y="-7.8052053"
       transform="scale(1,-1)" /><rect
       style="color:#000000;overflow:visible;fill:#ffffff;stroke:#999999;stroke-width:0.264583;stroke-dasharray:none"
       id="rect1150"
       width="2.3812504"
       height="2.3812492"
       x="23.944792"
       y="-7.8052053"
       transform="scale(1,-1)" /><rect
       style="color:#000000;overflow:visible;fill:#ffffff;stroke:#999999;stroke-width:0.264583;stroke-dasharray:none"
       id="rect1154"
       width="2.3812504"
       height="2.3812492"
       x="16.007292"
       y="-10.451037"
       transform="scale(1,-1)" /><rect
       style="color:#000000;overflow:visible;fill:#ffffff;stroke:#999999;stroke-width:0.264583;stroke-dasharray:none"
       id="rect1156"
       width="2.3812504"
       height="2.3812492"
       x="18.653126"
       y="-10.451037"
       transform="scale(1,-1)" /><rect
       style="color:#000000;overflow:visible;fill:#ffffff;stroke:#999999;stroke-width:0.264583;stroke-dasharray:none"
       id="rect1158"
       width="2.3812504"
       height="2.3812492"
       x="21.298958"
       y="-10.451037"
       transform="scale(1,-1)" /><rect
       style="color:#000000;overflow:visible;fill:#ffffff;stroke:#999999;stroke-width:0.264583;stroke-dasharray:none"
       id="rect1160"
       width="2.3812504"
       height="2.3812492"
       x="23.944792"
       y="-10.451037"
       transform="scale(1,-1)" /><path
       fill="#000000"
       d="m 20.198609,3.0312306 c -0.01156,-8.6e-5 -0.02264,0.0011 -0.03272,0.004 -0.02977,0.0085 -0.06671,0.05105 -0.08285,0.07115 -0.08812,0.03701 -0.216167,0.106908 -0.230459,0.191508 0.0015,0.09744 0.08707,0.137893 0.15678,0.176075 0.125878,0.07905 -0.147743,0.215081 -0.231954,0.266263 0.02014,0.01761 0.04028,0.0348 0.06298,0.05116 0.09312,-0.04685 0.290706,-0.109635 0.336873,-0.200216 0.0076,-0.02158 0.0074,-0.04489 3.45e-4,-0.06456 -0.0071,-0.01966 -0.01958,-0.03537 -0.03377,-0.04876 -0.0497,-0.0509 -0.240089,-0.115122 -0.221045,-0.172245 0.028,-0.084 0.126435,-0.111712 0.203395,-0.139997 0.0731,0.01411 0.172041,0.01602 0.187144,-0.01567 0.0085,-0.01778 -0.101909,0.0081 -0.112304,-0.02912 -0.0046,-0.01641 0.166732,-0.03461 0.129543,-0.05343 -0.02307,-0.01167 -0.08188,-0.03576 -0.131956,-0.03613 z m -0.602822,0.0057 c -0.0085,1.41e-4 -0.01605,0.0025 -0.0222,0.008 -0.02134,0.01982 -0.0043,0.07577 0.02209,0.121828 l 0.03516,-0.02613 -0.0063,0.06769 c 0.01589,0.01813 0.0407,0.02952 0.05987,0.03662 0.02803,0.05718 -0.06081,0.09252 -0.09474,0.119305 -0.0255,-0.176742 -0.34234,-0.139906 -0.331168,0.0065 -0.04766,-0.0157 -0.08526,-0.06118 -0.109981,-0.09329 -2.94e-4,-0.03805 -0.0039,-0.114058 -0.02727,-0.144663 -0.01745,-0.02218 -0.178096,-0.123872 -0.197461,-0.08351 -0.01412,0.02943 0.08571,0.143521 0.127306,0.211027 0.06437,0.09153 0.110405,0.172398 0.214414,0.186804 0.0082,0.06585 0.163227,0.339781 0.260694,0.330751 0.05505,-0.01103 0.145977,-0.06021 0.187898,-0.08755 -0.161312,-0.04661 -0.302152,-0.0763 -0.369679,-0.229588 0.06338,0.0069 0.149391,0.0027 0.198902,-0.02838 -0.02993,0.140805 0.187361,0.210843 0.244692,0.208484 0.06833,-0.0028 0.107332,-0.0581 0.0784,-0.0749 -0.07232,-0.02825 -0.250566,-0.03701 -0.246536,-0.111884 0.01689,-0.09397 0.186316,-0.0886 0.137952,-0.221383 -0.0021,-0.02879 -0.0071,-0.07085 -0.01974,-0.101191 l -0.06598,-0.01691 0.03546,-0.02366 c -0.02213,-0.01309 -0.07513,-0.05466 -0.111814,-0.05404 z m 0.585976,0.01816 0.06133,0.02137 -0.07555,0.01501 z m 0.425103,0.04641 c -0.03244,-4.99e-4 -0.07012,0.02078 -0.09149,0.03341 l 0.02687,0.03467 -0.06789,-0.0049 c -0.01284,0.01131 -0.02209,0.02802 -0.02788,0.04134 a 1.3238188,1.3238188 0 0 0 -0.0512,0.03645 c -0.05718,0.04291 -0.121514,0.09602 -0.151353,0.15731 -0.02668,0.05479 -0.01437,0.111911 -0.007,0.160064 0.0074,0.04816 0.0102,0.08553 -0.006,0.110283 -0.163235,0.04309 -0.200314,0.166391 -0.0269,0.100112 0.03131,-0.01264 0.0648,-0.02903 0.086,-0.06145 0.03392,-0.05186 0.02426,-0.110444 0.01669,-0.159672 -0.0076,-0.04922 -0.01274,-0.09091 6.59e-4,-0.11843 0.01775,-0.03645 0.07566,-0.09062 0.129166,-0.130908 0.02647,-0.0017 0.08046,-0.007 0.116951,-0.02311 l 0.01557,-0.06632 0.02438,0.03498 c 0.03515,-0.04183 0.0653,-0.112162 0.04326,-0.134938 -0.0088,-0.0061 -0.01908,-0.0087 -0.02989,-0.0089 z m -1.577375,0.01365 0.0596,0.02581 -0.01418,0.03641 z m 0.39595,0.193211 c 0.04667,-3.33e-4 0.093,0.01549 0.0956,0.03656 -0.0054,0.06122 -0.159801,0.05005 -0.192375,0.0427 -0.0094,-0.05775 0.04388,-0.07888 0.09677,-0.07925 z m 1.215141,0.03217 c -0.01295,-6.2e-5 -0.026,0.0021 -0.03903,0.0057 -0.02708,0.0075 -0.05284,0.02068 -0.07626,0.03474 -0.02373,-0.003 -0.04648,-0.0032 -0.06209,0.0027 -0.07031,0.02632 -0.158703,0.143685 -0.13716,0.164781 0.0935,0.03797 0.297126,-0.152048 0.326353,-0.134943 0.09989,0.136779 -0.198866,0.149109 -0.230757,0.181098 -0.05728,0.04767 0.0098,0.206652 -0.03611,0.227355 -0.122209,0.05512 -0.302451,0.02717 -0.419017,-0.01162 a 0.73538647,0.73538647 0 0 1 -0.05094,0.02571 c 0.12503,0.04677 0.217517,0.069 0.338196,0.07769 0.06204,0.0043 0.13546,0.0065 0.185512,-0.03803 0.06784,-0.05484 0.0034,-0.189539 0.04063,-0.221987 0.06132,-0.05349 0.176409,-0.02585 0.223518,-0.09057 0.02041,-0.03091 0.03735,-0.06439 0.03688,-0.10351 -4.72e-4,-0.03912 -0.0126,-0.08235 -0.05048,-0.106029 -0.01609,-0.0092 -0.03259,-0.01298 -0.04924,-0.01306 z m -0.178963,0.07627 0.03073,0.02412 -0.07271,0.02544 z m -1.330623,0.01871 a 0.07903162,0.07903162 0 0 0 -0.0092,4.7e-4 c -0.06298,0.0068 -0.114365,0.07822 -0.137007,0.134888 -0.01636,0.01347 -0.03272,0.02891 -0.04424,0.04448 l 0.01944,0.06528 -0.03853,-0.01825 c -0.0097,0.05376 -9.5e-4,0.129782 0.02949,0.1386 0.02797,0.0081 0.06718,-0.03531 0.09312,-0.08161 l -0.0405,-0.01672 0.06127,-0.02943 c 0.0092,-0.03147 0.0018,-0.0687 -0.0055,-0.09671 0.01254,-0.01988 0.02991,-0.07417 0.0585,-0.07001 0.08179,0.01189 0.07666,0.216003 0.09532,0.284282 0.01321,0.04519 0.04986,0.115471 0.09753,0.129457 0.165511,0.04856 0.309534,-0.05054 0.451265,-0.100846 -0.01853,-0.01511 -0.03309,-0.02779 -0.04967,-0.04236 -0.111935,0.02809 -0.255797,0.117735 -0.363149,0.06385 -0.02103,-0.01326 -0.05738,-0.03294 -0.06818,-0.06991 -0.02538,-0.08676 -0.01977,-0.181423 -0.05446,-0.258846 -0.01692,-0.03667 -0.05046,-0.07625 -0.09552,-0.0766 z m 1.574718,0.260855 c -0.0012,0 -0.0027,4.79e-4 -0.0046,0.0015 -0.0263,0.01792 -0.0952,0.07417 -0.107701,0.12866 -0.0063,0.02738 0.009,0.0731 0.01927,0.09924 -0.0098,0.04559 -0.05037,0.180525 -0.08708,0.182683 -0.08198,0.0048 -0.12204,-0.16121 -0.202445,-0.173151 -0.08721,-0.01295 -0.101564,0.03684 -0.08504,0.08995 0.01031,0.03313 0.06374,-0.02484 0.07575,-0.01993 0.08479,0.03467 0.08416,0.122718 0.148449,0.164063 -0.05821,-0.0078 -0.110334,-0.01084 -0.162066,-8.28e-4 -0.117507,-0.201339 -0.241584,-0.157742 -0.137026,0.01175 0.0083,0.01344 0.03503,0.01991 0.05122,0.02642 -0.02222,0.01948 -0.03838,0.04787 -0.03744,0.08045 0.0069,0.05398 0.05865,0.07762 0.102859,0.08436 0.04852,0.0062 0.106524,-0.0068 0.123908,-0.04936 0.0079,-0.02064 0.0067,-0.04374 -8.44e-4,-0.0624 -0.004,-0.0099 -0.0095,-0.01856 -0.01578,-0.02661 0.04451,0.0016 0.08965,0.01001 0.1169,0.02195 0.07137,0.05923 0.102478,0.137795 0.129075,0.225507 -0.0095,0.02092 -0.02822,0.04225 -0.03698,0.06218 l 0.03393,0.0591 -0.04169,-0.0089 c 0.0029,0.05456 0.02888,0.126536 0.06053,0.128126 0.02908,0.0015 0.05727,-0.0498 0.07187,-0.100815 l -0.04325,-0.007 0.05288,-0.04272 c 0.0018,-0.02807 -0.01025,-0.0579 -0.02079,-0.07964 -0.03481,-0.109468 -0.09075,-0.266762 -0.187454,-0.304747 0.102537,-0.0092 0.152314,-0.182165 0.162607,-0.258442 l 9.11e-4,-2.59e-4 c 0.04846,-0.05714 0.100194,-0.145624 0.07936,-0.174694 -0.01148,-0.01601 -0.04213,0.09315 -0.07975,0.08427 -0.02453,-0.03352 0.03789,-0.140739 0.02041,-0.140719 z m -0.03887,0.08249 -0.02335,0.07341 -0.02498,-0.03003 z m -1.61797,0.07521 c -0.01587,4e-6 -0.03124,0.003 -0.0452,0.0096 -0.05202,0.02638 -0.06966,0.08778 -0.06387,0.147833 0.0058,0.06006 0.03558,0.124964 0.09324,0.171339 0.156937,0.10619 0.37655,0.06523 0.477435,-0.06013 0.01871,0.129809 -0.114969,0.267538 -0.226202,0.264406 -0.114639,-0.0032 -0.2544,-0.176557 -0.333494,-0.09056 -0.05914,0.0643 0.0077,0.16161 0.04602,0.21601 0.01165,0.04837 0.0086,0.08113 0.04026,0.115632 0.03963,0.03942 0.12791,0.05025 0.159715,0.05139 0.04165,0.0015 -0.09955,-0.0972 -0.08761,-0.109353 0.02709,-0.02758 0.111225,0.04842 0.112394,0.02876 0.002,-0.03365 -0.07866,-0.07754 -0.147774,-0.101313 -0.01715,-0.02672 -0.09306,-0.12875 -0.07172,-0.152581 0.03448,-0.02524 0.19847,0.121883 0.290506,0.116252 0.104158,-0.0094 0.194675,-0.07049 0.248969,-0.156404 0.01221,-0.02487 0.036,-0.08394 0.037,-0.150274 0.0018,-0.115957 0.0016,-0.177558 -0.096,-0.149814 -0.06293,0.01789 -0.07709,0.140432 -0.209155,0.163156 -0.09266,0.01439 -0.154523,-0.0068 -0.196092,-0.04022 -0.04157,-0.03343 -0.06319,-0.08154 -0.06719,-0.123064 -0.004,-0.04153 0.01022,-0.07032 0.02552,-0.07808 0.0055,-0.0028 0.01253,-0.0045 0.02299,-0.003 0.05844,0.108341 0.214245,0.193914 0.237896,0.18109 0.02651,-0.01437 -0.02626,-0.151498 -0.08664,-0.196104 -0.01338,-0.0099 -0.03525,-0.01593 -0.05883,-0.01961 -0.02997,-0.02072 -0.06727,-0.03495 -0.102172,-0.03494 z m 0.783543,0.01517 c -0.07426,0.02663 -0.127365,0.04503 -0.190308,0.06963 0.03432,0.03665 0.08045,0.06756 0.140849,0.09312 -0.056,-0.0098 -0.109542,0.02572 -0.136442,-0.02804 0.008,0.05352 0.0074,0.107991 0.0023,0.15793 -0.0072,0.07001 -0.02194,0.129448 -0.04148,0.169702 0.05545,0.08082 0.157051,0.149968 0.238417,0.15169 0.08876,0.002 0.239799,-0.112579 0.280928,-0.236137 -0.02954,-0.02149 -0.05804,-0.04847 -0.06879,-0.07825 -0.0101,-0.02938 -0.0076,-0.05868 -0.0019,-0.08522 0.0095,-0.04382 0.02692,-0.0843 0.03351,-0.12111 a 1.1520722,1.1520722 0 0 1 -0.03093,-0.0064 c -0.0037,0.02323 -0.01127,0.05271 -0.02612,0.06475 -0.03222,0.02611 -0.123932,0.01111 -0.123932,0.01111 0.05356,-0.02266 0.09587,-0.04954 0.128707,-0.08089 -0.08957,-0.02205 -0.153841,-0.05077 -0.204819,-0.08186 z m -0.630134,0.07171 0.02676,0.05918 -0.06294,-0.04442 z m 0.580675,0.153825 c 0.06279,0.01754 0.06279,0.01785 0.125571,0 l -0.06279,0.06279 z m -0.125572,0.125572 c 0,0 0.03669,0.01882 0.08071,0.03586 l 0.04486,0.08972 v -0.07425 c 0.02267,0.0068 0.0448,0.01146 0.06279,0.01146 0.01798,0 0.04011,-0.0047 0.06279,-0.01146 v 0.07425 l 0.04486,-0.08972 c 0.04402,-0.01704 0.08071,-0.03586 0.08071,-0.03586 l -0.125572,0.188357 c -0.06279,-0.03073 -0.06279,-0.03056 -0.125571,0 z m 0.63015,0.02315 c 0.0012,4e-6 0.0024,1.57e-4 0.0035,4.63e-4 0.02092,0.0058 0.06456,0.03779 0.04671,0.05303 -0.02314,0.01975 -0.06963,0.0056 -0.09017,-0.01249 -0.01047,-0.0092 0.0213,-0.04108 0.03993,-0.041 z m -0.13621,0.113772 c -0.01318,0.02173 -0.02657,0.04099 -0.04144,0.05924 0.01822,0.0091 0.03283,0.01581 0.04457,0.03093 -0.04478,0.09785 -0.242342,0.07953 -0.19364,0.195947 0.0248,0.04751 0.06397,0.06249 0.112254,0.05632 0.07988,-0.0088 0.272584,-0.131034 0.313972,-0.07588 0.01864,0.02484 -0.001,0.06556 -0.01091,0.09646 -0.07144,0.02252 -0.162211,0.06971 -0.160088,0.105378 0.0012,0.01966 0.0853,-0.05634 0.112386,-0.02876 0.01194,0.01215 -0.12926,0.11084 -0.08761,0.109353 0.0318,-0.0011 0.12009,-0.01196 0.159724,-0.05139 0.02029,-0.02019 0.03178,-0.06848 0.03693,-0.0958 0.019,-0.0563 0.04287,-0.139801 -3.15e-4,-0.184999 -0.0356,-0.03586 -0.08645,-0.03817 -0.131442,-0.02883 -0.08311,0.0048 -0.211364,0.106163 -0.268719,0.08298 -0.04093,-0.02226 0.117558,-0.0833 0.145427,-0.101764 0.02604,-0.0187 0.05113,-0.04971 0.04707,-0.08829 -0.01222,-0.03953 -0.04673,-0.06666 -0.07818,-0.0809 z m -0.581856,0.04374 c -0.03062,0.09775 -0.02982,0.142956 -0.123138,0.138922 -0.09088,-0.0039 -0.177253,0.05578 -0.177802,0.148456 0.01428,0.150443 0.219625,0.146802 0.310303,0.123948 0.03154,-0.01 0.08157,0.0146 0.121004,0.0087 0.07395,-0.0129 0.182479,-0.111947 0.165197,-0.136653 -0.01558,-0.02227 -0.196766,-0.01508 -0.296898,0.05776 -0.05396,0.005 -0.241486,0.01993 -0.228988,-0.05478 0.01983,-0.118492 0.167403,-0.05517 0.226182,-0.109149 0.03062,-0.0296 0.04917,-0.07067 0.06176,-0.113744 -0.02083,-0.0188 -0.04012,-0.0401 -0.05762,-0.06347 z m -0.499877,0.188412 0.05891,0.04963 -0.06402,-0.01091 z m 0.688297,0.158378 -0.05039,0.04096 -0.02575,-0.02937 z m 0.610117,0.06831 0.0051,0.03873 -0.06403,0.01091 z"
       id="path6671"
       style="stroke-width:0.264583" /><path
       fill="#000000"
       d="m 22.844453,5.6770631 c -0.01156,-8.6e-5 -0.02264,0.0011 -0.03272,0.004 -0.02977,0.0085 -0.06671,0.05105 -0.08285,0.07115 -0.08812,0.03701 -0.216167,0.106908 -0.230459,0.191508 0.0015,0.09744 0.08707,0.137893 0.15678,0.176075 0.125878,0.07905 -0.147743,0.215081 -0.231954,0.266263 0.02014,0.01761 0.04028,0.0348 0.06298,0.05116 0.09312,-0.04685 0.290706,-0.109635 0.336873,-0.200216 0.0076,-0.02158 0.0074,-0.04489 3.45e-4,-0.06456 -0.0071,-0.01966 -0.01958,-0.03537 -0.03377,-0.04876 -0.0497,-0.0509 -0.240089,-0.115122 -0.221045,-0.172245 0.028,-0.084 0.126435,-0.111712 0.203395,-0.139997 0.0731,0.01411 0.172041,0.01602 0.187144,-0.01567 0.0085,-0.01778 -0.101909,0.0081 -0.112304,-0.02912 -0.0046,-0.01641 0.166732,-0.03461 0.129543,-0.05343 -0.02307,-0.01167 -0.08188,-0.03576 -0.131956,-0.03613 z m -0.602822,0.0057 c -0.0085,1.41e-4 -0.01605,0.0025 -0.0222,0.008 -0.02134,0.01982 -0.0043,0.07577 0.02209,0.121828 l 0.03516,-0.02613 -0.0063,0.06769 c 0.01589,0.01813 0.0407,0.02952 0.05987,0.03662 0.02803,0.05718 -0.06081,0.09252 -0.09474,0.119305 -0.0255,-0.176742 -0.34234,-0.139906 -0.331168,0.0065 -0.04766,-0.0157 -0.08526,-0.06118 -0.109981,-0.09329 -2.94e-4,-0.03805 -0.0039,-0.114058 -0.02727,-0.144663 -0.01745,-0.02218 -0.178096,-0.123872 -0.197461,-0.08351 -0.01412,0.02943 0.08571,0.143521 0.127306,0.211027 0.06437,0.09153 0.110405,0.172398 0.214414,0.186804 0.0082,0.06585 0.163227,0.339781 0.260694,0.330751 0.05505,-0.01103 0.145977,-0.06021 0.187898,-0.08755 -0.161312,-0.04661 -0.302152,-0.0763 -0.369679,-0.229588 0.06338,0.0069 0.149391,0.0027 0.198902,-0.02838 -0.02993,0.140805 0.187361,0.210843 0.244692,0.208484 0.06833,-0.0028 0.107332,-0.0581 0.0784,-0.0749 -0.07232,-0.02825 -0.250566,-0.03701 -0.246536,-0.111884 0.01689,-0.09397 0.186316,-0.0886 0.137952,-0.221383 -0.0021,-0.02879 -0.0071,-0.07085 -0.01974,-0.101191 l -0.06598,-0.01691 0.03546,-0.02366 c -0.02213,-0.01309 -0.07513,-0.05466 -0.111814,-0.05404 z m 0.585976,0.01816 0.06133,0.02137 -0.07555,0.01501 z m 0.425103,0.04641 c -0.03244,-4.99e-4 -0.07012,0.02078 -0.09149,0.03341 l 0.02687,0.03467 -0.06789,-0.0049 c -0.01284,0.01131 -0.02209,0.02802 -0.02788,0.04134 a 1.3238188,1.3238188 0 0 0 -0.0512,0.03645 c -0.05718,0.04291 -0.121514,0.09602 -0.151353,0.15731 -0.02668,0.05479 -0.01437,0.111911 -0.007,0.160064 0.0074,0.04816 0.0102,0.08553 -0.006,0.110283 -0.163235,0.04309 -0.200314,0.166391 -0.0269,0.100112 0.03131,-0.01264 0.0648,-0.02903 0.086,-0.06145 0.03392,-0.05186 0.02426,-0.110444 0.01669,-0.159672 -0.0076,-0.04922 -0.01274,-0.09091 6.59e-4,-0.11843 0.01775,-0.03645 0.07566,-0.09062 0.129166,-0.130908 0.02647,-0.0017 0.08046,-0.007 0.116951,-0.02311 l 0.01557,-0.06632 0.02438,0.03498 c 0.03515,-0.04183 0.0653,-0.112162 0.04326,-0.134938 -0.0088,-0.0061 -0.01908,-0.0087 -0.02989,-0.0089 z m -1.577375,0.01365 0.0596,0.02581 -0.01418,0.03641 z m 0.39595,0.193211 c 0.04667,-3.33e-4 0.093,0.01549 0.0956,0.03656 -0.0054,0.06122 -0.159801,0.05005 -0.192375,0.0427 -0.0094,-0.05775 0.04388,-0.07888 0.09677,-0.07925 z m 1.215141,0.03217 c -0.01295,-6.2e-5 -0.026,0.0021 -0.03903,0.0057 -0.02708,0.0075 -0.05284,0.02068 -0.07626,0.03474 -0.02373,-0.003 -0.04648,-0.0032 -0.06209,0.0027 -0.07031,0.02632 -0.158703,0.143685 -0.13716,0.164781 0.0935,0.03797 0.297126,-0.152048 0.326353,-0.134943 0.09989,0.136779 -0.198866,0.149109 -0.230757,0.181098 -0.05728,0.04767 0.0098,0.206652 -0.03611,0.227355 -0.122209,0.05512 -0.302451,0.02717 -0.419017,-0.01162 a 0.73538647,0.73538647 0 0 1 -0.05094,0.02571 c 0.12503,0.04677 0.217517,0.069 0.338196,0.07769 0.06204,0.0043 0.13546,0.0065 0.185512,-0.03803 0.06784,-0.05484 0.0034,-0.189539 0.04063,-0.221987 0.06132,-0.05349 0.176409,-0.02585 0.223518,-0.09057 0.02041,-0.03091 0.03735,-0.06439 0.03688,-0.10351 -4.72e-4,-0.03912 -0.0126,-0.08235 -0.05048,-0.106029 -0.01609,-0.0092 -0.03259,-0.01298 -0.04924,-0.01306 z m -0.178963,0.07627 0.03073,0.02412 -0.07271,0.02544 z m -1.330623,0.01871 a 0.07903162,0.07903162 0 0 0 -0.0092,4.7e-4 c -0.06298,0.0068 -0.114365,0.07822 -0.137007,0.134888 -0.01636,0.01347 -0.03272,0.02891 -0.04424,0.04448 l 0.01944,0.06528 -0.03853,-0.01825 c -0.0097,0.05376 -9.5e-4,0.129782 0.02949,0.1386 0.02797,0.0081 0.06718,-0.03531 0.09312,-0.08161 l -0.0405,-0.01672 0.06127,-0.02943 c 0.0092,-0.03147 0.0018,-0.0687 -0.0055,-0.09671 0.01254,-0.01988 0.02991,-0.07417 0.0585,-0.07001 0.08179,0.01189 0.07666,0.216003 0.09532,0.284282 0.01321,0.04519 0.04986,0.115471 0.09753,0.129457 0.165511,0.04856 0.309534,-0.05054 0.451265,-0.100846 -0.01853,-0.01511 -0.03309,-0.02779 -0.04967,-0.04236 -0.111935,0.02809 -0.255797,0.117735 -0.363149,0.06385 -0.02103,-0.01326 -0.05738,-0.03294 -0.06818,-0.06991 -0.02538,-0.08676 -0.01977,-0.181423 -0.05446,-0.258846 -0.01692,-0.03667 -0.05046,-0.07625 -0.09552,-0.0766 z m 1.574718,0.260855 c -0.0012,0 -0.0027,4.79e-4 -0.0046,0.0015 -0.0263,0.01792 -0.0952,0.07417 -0.107701,0.12866 -0.0063,0.02738 0.009,0.0731 0.01927,0.09924 -0.0098,0.04559 -0.05037,0.180525 -0.08708,0.182683 -0.08198,0.0048 -0.12204,-0.16121 -0.202445,-0.173151 -0.08721,-0.01295 -0.101564,0.03684 -0.08504,0.08995 0.01031,0.03313 0.06374,-0.02484 0.07575,-0.01993 0.08479,0.03467 0.08416,0.122718 0.148449,0.164063 -0.05821,-0.0078 -0.110334,-0.01084 -0.162066,-8.28e-4 -0.117507,-0.201339 -0.241584,-0.157742 -0.137026,0.01175 0.0083,0.01344 0.03503,0.01991 0.05122,0.02642 -0.02222,0.01948 -0.03838,0.04787 -0.03744,0.08045 0.0069,0.05398 0.05865,0.07762 0.102859,0.08436 0.04852,0.0062 0.106524,-0.0068 0.123908,-0.04936 0.0079,-0.02064 0.0067,-0.04374 -8.44e-4,-0.0624 -0.004,-0.0099 -0.0095,-0.01856 -0.01578,-0.02661 0.04451,0.0016 0.08965,0.01001 0.1169,0.02195 0.07137,0.05923 0.102478,0.137795 0.129075,0.225507 -0.0095,0.02092 -0.02822,0.04225 -0.03698,0.06218 l 0.03393,0.0591 -0.04169,-0.0089 c 0.0029,0.05456 0.02888,0.126536 0.06053,0.128126 0.02908,0.0015 0.05727,-0.0498 0.07187,-0.100815 l -0.04325,-0.007 0.05288,-0.04272 c 0.0018,-0.02807 -0.01025,-0.0579 -0.02079,-0.07964 -0.03481,-0.109468 -0.09075,-0.266762 -0.187454,-0.304747 0.102537,-0.0092 0.152314,-0.182165 0.162607,-0.258442 l 9.11e-4,-2.59e-4 c 0.04846,-0.05714 0.100194,-0.145624 0.07936,-0.174694 -0.01148,-0.01601 -0.04213,0.09315 -0.07975,0.08427 -0.02453,-0.03352 0.03789,-0.140739 0.02041,-0.140719 z m -0.03887,0.08249 -0.02335,0.07341 -0.02498,-0.03003 z m -1.61797,0.07521 c -0.01587,4e-6 -0.03124,0.003 -0.0452,0.0096 -0.05202,0.02638 -0.06966,0.08778 -0.06387,0.147833 0.0058,0.06006 0.03558,0.124964 0.09324,0.171339 0.156937,0.10619 0.37655,0.06523 0.477435,-0.06013 0.01871,0.129809 -0.114969,0.267538 -0.226202,0.264406 -0.114639,-0.0032 -0.2544,-0.176557 -0.333494,-0.09056 -0.05914,0.0643 0.0077,0.16161 0.04602,0.21601 0.01165,0.04837 0.0086,0.08113 0.04026,0.115632 0.03963,0.03942 0.12791,0.05025 0.159715,0.05139 0.04165,0.0015 -0.09955,-0.0972 -0.08761,-0.109353 0.02709,-0.02758 0.111225,0.04842 0.112394,0.02876 0.002,-0.03365 -0.07866,-0.07754 -0.147774,-0.101313 -0.01715,-0.02672 -0.09306,-0.12875 -0.07172,-0.152581 0.03448,-0.02524 0.19847,0.121883 0.290506,0.116252 0.104158,-0.0094 0.194675,-0.07049 0.248969,-0.156404 0.01221,-0.02487 0.036,-0.08394 0.037,-0.150274 0.0018,-0.115957 0.0016,-0.177558 -0.096,-0.149814 -0.06293,0.01789 -0.07709,0.140432 -0.209155,0.163156 -0.09266,0.01439 -0.154523,-0.0068 -0.196092,-0.04022 -0.04157,-0.03343 -0.06319,-0.08154 -0.06719,-0.123064 -0.004,-0.04153 0.01022,-0.07032 0.02552,-0.07808 0.0055,-0.0028 0.01253,-0.0045 0.02299,-0.003 0.05844,0.108341 0.214245,0.193914 0.237896,0.18109 0.02651,-0.01437 -0.02626,-0.151498 -0.08664,-0.196104 -0.01338,-0.0099 -0.03525,-0.01593 -0.05883,-0.01961 -0.02997,-0.02072 -0.06727,-0.03495 -0.102172,-0.03494 z m 0.783543,0.01517 c -0.07426,0.02663 -0.127365,0.04503 -0.190308,0.06963 0.03432,0.03665 0.08045,0.06756 0.140849,0.09312 -0.056,-0.0098 -0.109542,0.02572 -0.136442,-0.02804 0.008,0.05352 0.0074,0.107991 0.0023,0.15793 -0.0072,0.07001 -0.02194,0.129448 -0.04148,0.169702 0.05545,0.08082 0.157051,0.149968 0.238417,0.15169 0.08876,0.002 0.239799,-0.112579 0.280928,-0.236137 -0.02954,-0.02149 -0.05804,-0.04847 -0.06879,-0.07825 -0.0101,-0.02938 -0.0076,-0.05868 -0.0019,-0.08522 0.0095,-0.04382 0.02692,-0.0843 0.03351,-0.12111 a 1.1520722,1.1520722 0 0 1 -0.03093,-0.0064 c -0.0037,0.02323 -0.01127,0.05271 -0.02612,0.06475 -0.03222,0.02611 -0.123932,0.01111 -0.123932,0.01111 0.05356,-0.02266 0.09587,-0.04954 0.128707,-0.08089 -0.08957,-0.02205 -0.153841,-0.05077 -0.204819,-0.08186 z m -0.630134,0.07171 0.02676,0.05918 -0.06294,-0.04442 z m 0.580675,0.153825 c 0.06279,0.01754 0.06279,0.01785 0.125571,0 l -0.06279,0.06279 z m -0.125572,0.125572 c 0,0 0.03669,0.01882 0.08071,0.03586 l 0.04486,0.08972 v -0.07425 c 0.02267,0.0068 0.0448,0.01146 0.06279,0.01146 0.01798,0 0.04011,-0.0047 0.06279,-0.01146 v 0.07425 l 0.04486,-0.08972 c 0.04402,-0.01704 0.08071,-0.03586 0.08071,-0.03586 l -0.125572,0.188357 c -0.06279,-0.03073 -0.06279,-0.03056 -0.125571,0 z m 0.63015,0.02315 c 0.0012,4e-6 0.0024,1.57e-4 0.0035,4.63e-4 0.02092,0.0058 0.06456,0.03779 0.04671,0.05303 -0.02314,0.01975 -0.06963,0.0056 -0.09017,-0.01249 -0.01047,-0.0092 0.0213,-0.04108 0.03993,-0.041 z m -0.13621,0.113772 c -0.01318,0.02173 -0.02657,0.04099 -0.04144,0.05924 0.01822,0.0091 0.03283,0.01581 0.04457,0.03093 -0.04478,0.09785 -0.242342,0.07953 -0.19364,0.195947 0.0248,0.04751 0.06397,0.06249 0.112254,0.05632 0.07988,-0.0088 0.272584,-0.131034 0.313972,-0.07588 0.01864,0.02484 -0.001,0.06556 -0.01091,0.09646 -0.07144,0.02252 -0.162211,0.06971 -0.160088,0.105378 0.0012,0.01966 0.0853,-0.05634 0.112386,-0.02876 0.01194,0.01215 -0.12926,0.11084 -0.08761,0.109353 0.0318,-0.0011 0.12009,-0.01196 0.159724,-0.05139 0.02029,-0.02019 0.03178,-0.06848 0.03693,-0.0958 0.019,-0.0563 0.04287,-0.139801 -3.15e-4,-0.184999 -0.0356,-0.03586 -0.08645,-0.03817 -0.131442,-0.02883 -0.08311,0.0048 -0.211364,0.106163 -0.268719,0.08298 -0.04093,-0.02226 0.117558,-0.0833 0.145427,-0.101764 0.02604,-0.0187 0.05113,-0.04971 0.04707,-0.08829 -0.01222,-0.03953 -0.04673,-0.06666 -0.07818,-0.0809 z m -0.581856,0.04374 c -0.03062,0.09775 -0.02982,0.142956 -0.123138,0.138922 -0.09088,-0.0039 -0.177253,0.05578 -0.177802,0.148456 0.01428,0.150443 0.219625,0.146802 0.310303,0.123948 0.03154,-0.01 0.08157,0.0146 0.121004,0.0087 0.07395,-0.0129 0.182479,-0.111947 0.165197,-0.136653 -0.01558,-0.02227 -0.196766,-0.01508 -0.296898,0.05776 -0.05396,0.005 -0.241486,0.01993 -0.228988,-0.05478 0.01983,-0.118492 0.167403,-0.05517 0.226182,-0.109149 0.03062,-0.0296 0.04917,-0.07067 0.06176,-0.113744 -0.02083,-0.0188 -0.04012,-0.0401 -0.05762,-0.06347 z m -0.499877,0.188412 0.05891,0.04963 -0.06402,-0.01091 z m 0.688297,0.158378 -0.05039,0.04096 -0.02575,-0.02937 z m 0.610117,0.06831 0.0051,0.03873 -0.06403,0.01091 z"
       id="path6680"
       style="stroke-width:0.264583" /><path
       fill="#000000"
       d="m 25.490287,3.0312306 c -0.01156,-8.6e-5 -0.02264,0.0011 -0.03272,0.004 -0.02977,0.0085 -0.06671,0.05105 -0.08285,0.07115 -0.08812,0.03701 -0.216167,0.106908 -0.230459,0.191508 0.0015,0.09744 0.08707,0.137893 0.15678,0.176075 0.125878,0.07905 -0.147743,0.215081 -0.231954,0.266263 0.02014,0.01761 0.04028,0.0348 0.06298,0.05116 0.09312,-0.04685 0.290706,-0.109635 0.336873,-0.200216 0.0076,-0.02158 0.0074,-0.04489 3.45e-4,-0.06456 -0.0071,-0.01966 -0.01958,-0.03537 -0.03377,-0.04876 -0.0497,-0.0509 -0.240089,-0.115122 -0.221045,-0.172245 0.028,-0.084 0.126435,-0.111712 0.203395,-0.139997 0.0731,0.01411 0.172041,0.01602 0.187144,-0.01567 0.0085,-0.01778 -0.101909,0.0081 -0.112304,-0.02912 -0.0046,-0.01641 0.166732,-0.03461 0.129543,-0.05343 -0.02307,-0.01167 -0.08188,-0.03576 -0.131956,-0.03613 z m -0.602822,0.0057 c -0.0085,1.41e-4 -0.01605,0.0025 -0.0222,0.008 -0.02134,0.01982 -0.0043,0.07577 0.02209,0.121828 l 0.03516,-0.02613 -0.0063,0.06769 c 0.01589,0.01813 0.0407,0.02952 0.05987,0.03662 0.02803,0.05718 -0.06081,0.09252 -0.09474,0.119305 -0.0255,-0.176742 -0.34234,-0.139906 -0.331168,0.0065 -0.04766,-0.0157 -0.08526,-0.06118 -0.109981,-0.09329 -2.94e-4,-0.03805 -0.0039,-0.114058 -0.02727,-0.144663 -0.01745,-0.02218 -0.178096,-0.123872 -0.197461,-0.08351 -0.01412,0.02943 0.08571,0.143521 0.127306,0.211027 0.06437,0.09153 0.110405,0.172398 0.214414,0.186804 0.0082,0.06585 0.163227,0.339781 0.260694,0.330751 0.05505,-0.01103 0.145977,-0.06021 0.187898,-0.08755 -0.161312,-0.04661 -0.302152,-0.0763 -0.369679,-0.229588 0.06338,0.0069 0.149391,0.0027 0.198902,-0.02838 -0.02993,0.140805 0.187361,0.210843 0.244692,0.208484 0.06833,-0.0028 0.107332,-0.0581 0.0784,-0.0749 -0.07232,-0.02825 -0.250566,-0.03701 -0.246536,-0.111884 0.01689,-0.09397 0.186316,-0.0886 0.137952,-0.221383 -0.0021,-0.02879 -0.0071,-0.07085 -0.01974,-0.101191 l -0.06598,-0.01691 0.03546,-0.02366 c -0.02213,-0.01309 -0.07513,-0.05466 -0.111814,-0.05404 z m 0.585976,0.01816 0.06133,0.02137 -0.07555,0.01501 z m 0.425103,0.04641 c -0.03244,-4.99e-4 -0.07012,0.02078 -0.09149,0.03341 l 0.02687,0.03467 -0.06789,-0.0049 c -0.01284,0.01131 -0.02209,0.02802 -0.02788,0.04134 a 1.3238188,1.3238188 0 0 0 -0.0512,0.03645 c -0.05718,0.04291 -0.121514,0.09602 -0.151353,0.15731 -0.02668,0.05479 -0.01437,0.111911 -0.007,0.160064 0.0074,0.04816 0.0102,0.08553 -0.006,0.110283 -0.163235,0.04309 -0.200314,0.166391 -0.0269,0.100112 0.03131,-0.01264 0.0648,-0.02903 0.086,-0.06145 0.03392,-0.05186 0.02426,-0.110444 0.01669,-0.159672 -0.0076,-0.04922 -0.01274,-0.09091 6.59e-4,-0.11843 0.01775,-0.03645 0.07566,-0.09062 0.129166,-0.130908 0.02647,-0.0017 0.08046,-0.007 0.116951,-0.02311 l 0.01557,-0.06632 0.02438,0.03498 c 0.03515,-0.04183 0.0653,-0.112162 0.04326,-0.134938 -0.0088,-0.0061 -0.01908,-0.0087 -0.02989,-0.0089 z m -1.577375,0.01365 0.0596,0.02581 -0.01418,0.03641 z m 0.39595,0.193211 c 0.04667,-3.33e-4 0.093,0.01549 0.0956,0.03656 -0.0054,0.06122 -0.159801,0.05005 -0.192375,0.0427 -0.0094,-0.05775 0.04388,-0.07888 0.09677,-0.07925 z m 1.215141,0.03217 c -0.01295,-6.2e-5 -0.026,0.0021 -0.03903,0.0057 -0.02708,0.0075 -0.05284,0.02068 -0.07626,0.03474 -0.02373,-0.003 -0.04648,-0.0032 -0.06209,0.0027 -0.07031,0.02632 -0.158703,0.143685 -0.13716,0.164781 0.0935,0.03797 0.297126,-0.152048 0.326353,-0.134943 0.09989,0.136779 -0.198866,0.149109 -0.230757,0.181098 -0.05728,0.04767 0.0098,0.206652 -0.03611,0.227355 -0.122209,0.05512 -0.302451,0.02717 -0.419017,-0.01162 a 0.73538647,0.73538647 0 0 1 -0.05094,0.02571 c 0.12503,0.04677 0.217517,0.069 0.338196,0.07769 0.06204,0.0043 0.13546,0.0065 0.185512,-0.03803 0.06784,-0.05484 0.0034,-0.189539 0.04063,-0.221987 0.06132,-0.05349 0.176409,-0.02585 0.223518,-0.09057 0.02041,-0.03091 0.03735,-0.06439 0.03688,-0.10351 -4.72e-4,-0.03912 -0.0126,-0.08235 -0.05048,-0.106029 -0.01609,-0.0092 -0.03259,-0.01298 -0.04924,-0.01306 z m -0.178963,0.07627 0.03073,0.02412 -0.07271,0.02544 z m -1.330623,0.01871 a 0.07903162,0.07903162 0 0 0 -0.0092,4.7e-4 c -0.06298,0.0068 -0.114365,0.07822 -0.137007,0.134888 -0.01636,0.01347 -0.03272,0.02891 -0.04424,0.04448 l 0.01944,0.06528 -0.03853,-0.01825 c -0.0097,0.05376 -9.5e-4,0.129782 0.02949,0.1386 0.02797,0.0081 0.06718,-0.03531 0.09312,-0.08161 l -0.0405,-0.01672 0.06127,-0.02943 c 0.0092,-0.03147 0.0018,-0.0687 -0.0055,-0.09671 0.01254,-0.01988 0.02991,-0.07417 0.0585,-0.07001 0.08179,0.01189 0.07666,0.216003 0.09532,0.284282 0.01321,0.04519 0.04986,0.115471 0.09753,0.129457 0.165511,0.04856 0.309534,-0.05054 0.451265,-0.100846 -0.01853,-0.01511 -0.03309,-0.02779 -0.04967,-0.04236 -0.111935,0.02809 -0.255797,0.117735 -0.363149,0.06385 -0.02103,-0.01326 -0.05738,-0.03294 -0.06818,-0.06991 -0.02538,-0.08676 -0.01977,-0.181423 -0.05446,-0.258846 -0.01692,-0.03667 -0.05046,-0.07625 -0.09552,-0.0766 z m 1.574718,0.260855 c -0.0012,0 -0.0027,4.79e-4 -0.0046,0.0015 -0.0263,0.01792 -0.0952,0.07417 -0.107701,0.12866 -0.0063,0.02738 0.009,0.0731 0.01927,0.09924 -0.0098,0.04559 -0.05037,0.180525 -0.08708,0.182683 -0.08198,0.0048 -0.12204,-0.16121 -0.202445,-0.173151 -0.08721,-0.01295 -0.101564,0.03684 -0.08504,0.08995 0.01031,0.03313 0.06374,-0.02484 0.07575,-0.01993 0.08479,0.03467 0.08416,0.122718 0.148449,0.164063 -0.05821,-0.0078 -0.110334,-0.01084 -0.162066,-8.28e-4 -0.117507,-0.201339 -0.241584,-0.157742 -0.137026,0.01175 0.0083,0.01344 0.03503,0.01991 0.05122,0.02642 -0.02222,0.01948 -0.03838,0.04787 -0.03744,0.08045 0.0069,0.05398 0.05865,0.07762 0.102859,0.08436 0.04852,0.0062 0.106524,-0.0068 0.123908,-0.04936 0.0079,-0.02064 0.0067,-0.04374 -8.44e-4,-0.0624 -0.004,-0.0099 -0.0095,-0.01856 -0.01578,-0.02661 0.04451,0.0016 0.08965,0.01001 0.1169,0.02195 0.07137,0.05923 0.102478,0.137795 0.129075,0.225507 -0.0095,0.02092 -0.02822,0.04225 -0.03698,0.06218 l 0.03393,0.0591 -0.04169,-0.0089 c 0.0029,0.05456 0.02888,0.126536 0.06053,0.128126 0.02908,0.0015 0.05727,-0.0498 0.07187,-0.100815 l -0.04325,-0.007 0.05288,-0.04272 c 0.0018,-0.02807 -0.01025,-0.0579 -0.02079,-0.07964 -0.03481,-0.109468 -0.09075,-0.266762 -0.187454,-0.304747 0.102537,-0.0092 0.152314,-0.182165 0.162607,-0.258442 l 9.11e-4,-2.59e-4 c 0.04846,-0.05714 0.100194,-0.145624 0.07936,-0.174694 -0.01148,-0.01601 -0.04213,0.09315 -0.07975,0.08427 -0.02453,-0.03352 0.03789,-0.140739 0.02041,-0.140719 z m -0.03887,0.08249 -0.02335,0.07341 -0.02498,-0.03003 z m -1.61797,0.07521 c -0.01587,4e-6 -0.03124,0.003 -0.0452,0.0096 -0.05202,0.02638 -0.06966,0.08778 -0.06387,0.147833 0.0058,0.06006 0.03558,0.124964 0.09324,0.171339 0.156937,0.10619 0.37655,0.06523 0.477435,-0.06013 0.01871,0.129809 -0.114969,0.267538 -0.226202,0.264406 -0.114639,-0.0032 -0.2544,-0.176557 -0.333494,-0.09056 -0.05914,0.0643 0.0077,0.16161 0.04602,0.21601 0.01165,0.04837 0.0086,0.08113 0.04026,0.115632 0.03963,0.03942 0.12791,0.05025 0.159715,0.05139 0.04165,0.0015 -0.09955,-0.0972 -0.08761,-0.109353 0.02709,-0.02758 0.111225,0.04842 0.112394,0.02876 0.002,-0.03365 -0.07866,-0.07754 -0.147774,-0.101313 -0.01715,-0.02672 -0.09306,-0.12875 -0.07172,-0.152581 0.03448,-0.02524 0.19847,0.121883 0.290506,0.116252 0.104158,-0.0094 0.194675,-0.07049 0.248969,-0.156404 0.01221,-0.02487 0.036,-0.08394 0.037,-0.150274 0.0018,-0.115957 0.0016,-0.177558 -0.096,-0.149814 -0.06293,0.01789 -0.07709,0.140432 -0.209155,0.163156 -0.09266,0.01439 -0.154523,-0.0068 -0.196092,-0.04022 -0.04157,-0.03343 -0.06319,-0.08154 -0.06719,-0.123064 -0.004,-0.04153 0.01022,-0.07032 0.02552,-0.07808 0.0055,-0.0028 0.01253,-0.0045 0.02299,-0.003 0.05844,0.108341 0.214245,0.193914 0.237896,0.18109 0.02651,-0.01437 -0.02626,-0.151498 -0.08664,-0.196104 -0.01338,-0.0099 -0.03525,-0.01593 -0.05883,-0.01961 -0.02997,-0.02072 -0.06727,-0.03495 -0.102172,-0.03494 z m 0.783543,0.01517 c -0.07426,0.02663 -0.127365,0.04503 -0.190308,0.06963 0.03432,0.03665 0.08045,0.06756 0.140849,0.09312 -0.056,-0.0098 -0.109542,0.02572 -0.136442,-0.02804 0.008,0.05352 0.0074,0.107991 0.0023,0.15793 -0.0072,0.07001 -0.02194,0.129448 -0.04148,0.169702 0.05545,0.08082 0.157051,0.149968 0.238417,0.15169 0.08876,0.002 0.239799,-0.112579 0.280928,-0.236137 -0.02954,-0.02149 -0.05804,-0.04847 -0.06879,-0.07825 -0.0101,-0.02938 -0.0076,-0.05868 -0.0019,-0.08522 0.0095,-0.04382 0.02692,-0.0843 0.03351,-0.12111 a 1.1520722,1.1520722 0 0 1 -0.03093,-0.0064 c -0.0037,0.02323 -0.01127,0.05271 -0.02612,0.06475 -0.03222,0.02611 -0.123932,0.01111 -0.123932,0.01111 0.05356,-0.02266 0.09587,-0.04954 0.128707,-0.08089 -0.08957,-0.02205 -0.153841,-0.05077 -0.204819,-0.08186 z m -0.630134,0.07171 0.02676,0.05918 -0.06294,-0.04442 z m 0.580675,0.153825 c 0.06279,0.01754 0.06279,0.01785 0.125571,0 l -0.06279,0.06279 z m -0.125572,0.125572 c 0,0 0.03669,0.01882 0.08071,0.03586 l 0.04486,0.08972 v -0.07425 c 0.02267,0.0068 0.0448,0.01146 0.06279,0.01146 0.01798,0 0.04011,-0.0047 0.06279,-0.01146 v 0.07425 l 0.04486,-0.08972 c 0.04402,-0.01704 0.08071,-0.03586 0.08071,-0.03586 l -0.125572,0.188357 c -0.06279,-0.03073 -0.06279,-0.03056 -0.125571,0 z m 0.63015,0.02315 c 0.0012,4e-6 0.0024,1.57e-4 0.0035,4.63e-4 0.02092,0.0058 0.06456,0.03779 0.04671,0.05303 -0.02314,0.01975 -0.06963,0.0056 -0.09017,-0.01249 -0.01047,-0.0092 0.0213,-0.04108 0.03993,-0.041 z m -0.13621,0.113772 c -0.01318,0.02173 -0.02657,0.04099 -0.04144,0.05924 0.01822,0.0091 0.03283,0.01581 0.04457,0.03093 -0.04478,0.09785 -0.242342,0.07953 -0.19364,0.195947 0.0248,0.04751 0.06397,0.06249 0.112254,0.05632 0.07988,-0.0088 0.272584,-0.131034 0.313972,-0.07588 0.01864,0.02484 -10e-4,0.06556 -0.01091,0.09646 -0.07144,0.02252 -0.162211,0.06971 -0.160088,0.105378 0.0012,0.01966 0.0853,-0.05634 0.112386,-0.02876 0.01194,0.01215 -0.12926,0.11084 -0.08761,0.109353 0.0318,-0.0011 0.12009,-0.01196 0.159724,-0.05139 0.02029,-0.02019 0.03178,-0.06848 0.03693,-0.0958 0.019,-0.0563 0.04287,-0.139801 -3.15e-4,-0.184999 -0.0356,-0.03586 -0.08645,-0.03817 -0.131442,-0.02883 -0.08311,0.0048 -0.211364,0.106163 -0.268719,0.08298 -0.04093,-0.02226 0.117558,-0.0833 0.145427,-0.101764 0.02604,-0.0187 0.05113,-0.04971 0.04707,-0.08829 -0.01222,-0.03953 -0.04673,-0.06666 -0.07818,-0.0809 z m -0.581856,0.04374 c -0.03062,0.09775 -0.02982,0.142956 -0.123138,0.138922 -0.09088,-0.0039 -0.177253,0.05578 -0.177802,0.148456 0.01428,0.150443 0.219625,0.146802 0.310303,0.123948 0.03154,-0.01 0.08157,0.0146 0.121004,0.0087 0.07395,-0.0129 0.182479,-0.111947 0.165197,-0.136653 -0.01558,-0.02227 -0.196766,-0.01508 -0.296898,0.05776 -0.05396,0.005 -0.241486,0.01993 -0.228988,-0.05478 0.01983,-0.118492 0.167403,-0.05517 0.226182,-0.109149 0.03062,-0.0296 0.04917,-0.07067 0.06176,-0.113744 -0.02083,-0.0188 -0.04012,-0.0401 -0.05762,-0.06347 z m -0.499877,0.188412 0.05891,0.04963 -0.06402,-0.01091 z m 0.688297,0.158378 -0.05039,0.04096 -0.02575,-0.02937 z m 0.610117,0.06831 0.0051,0.03873 -0.06403,0.01091 z"
       id="path6682"
       style="stroke-width:0.264583" /></g></svg>
