<?xml version="1.0" encoding="UTF-8" standalone="no"?>
<!-- Created with Inkscape (http://www.inkscape.org/) -->

<svg
   width="26.458334mm"
   height="10.583329mm"
   viewBox="0 0 26.458334 10.583329"
   version="1.1"
   id="svg5"
   sodipodi:docname="seismic-tremors.svg"
   inkscape:version="1.2 (dc2aedaf03, 2022-05-15)"
   xml:space="preserve"
   xmlns:inkscape="http://www.inkscape.org/namespaces/inkscape"
   xmlns:sodipodi="http://sodipodi.sourceforge.net/DTD/sodipodi-0.dtd"
   xmlns="http://www.w3.org/2000/svg"
   xmlns:svg="http://www.w3.org/2000/svg"><sodipodi:namedview
     id="namedview7"
     pagecolor="#ffffff"
     bordercolor="#666666"
     borderopacity="1.0"
     inkscape:showpageshadow="2"
     inkscape:pageopacity="0.0"
     inkscape:pagecheckerboard="0"
     inkscape:deskcolor="#d1d1d1"
     inkscape:document-units="px"
     showgrid="true"
     inkscape:zoom="9.601899"
     inkscape:cx="55.041195"
     inkscape:cy="12.809966"
     inkscape:window-width="1600"
     inkscape:window-height="840"
     inkscape:window-x="0"
     inkscape:window-y="23"
     inkscape:window-maximized="1"
     inkscape:current-layer="layer1"><inkscape:grid
       type="xygrid"
       id="grid9"
       originx="0"
       originy="-5.9604643e-08" /></sodipodi:namedview><defs
     id="defs2" /><g
     inkscape:label="Layer 1"
     inkscape:groupmode="layer"
     id="layer1"><rect
       style="color:#000000;overflow:visible;fill:#ffffff;stroke:#000000;stroke-width:0.264583;stroke-dasharray:none"
       id="rect63"
       width="2.3812504"
       height="2.3812492"
       x="0.1322915"
       y="-2.5135407"
       transform="scale(1,-1)" /><rect
       style="color:#000000;overflow:visible;fill:#ffffff;stroke:#000000;stroke-width:0.264583;stroke-dasharray:none"
       id="rect1033"
       width="2.3812504"
       height="2.3812492"
       x="2.7781248"
       y="-2.5135407"
       transform="scale(1,-1)" /><rect
       style="color:#000000;overflow:visible;fill:#ffffff;stroke:#000000;stroke-width:0.264583;stroke-dasharray:none"
       id="rect1035"
       width="2.3812504"
       height="2.3812492"
       x="5.4239583"
       y="-2.5135407"
       transform="scale(1,-1)" /><rect
       style="color:#000000;overflow:visible;fill:#ffffff;stroke:#000000;stroke-width:0.264583;stroke-dasharray:none"
       id="rect1037"
       width="2.3812504"
       height="2.3812492"
       x="8.0697918"
       y="-2.5135407"
       transform="scale(1,-1)" /><rect
       style="color:#000000;overflow:visible;fill:#ffffff;stroke:#000000;stroke-width:0.264583;stroke-dasharray:none"
       id="rect1072"
       width="2.3812504"
       height="2.3812492"
       x="0.1322915"
       y="-5.1593728"
       transform="scale(1,-1)" /><rect
       style="color:#000000;overflow:visible;fill:#ffffff;stroke:#000000;stroke-width:0.264583;stroke-dasharray:none"
       id="rect1074"
       width="2.3812504"
       height="2.3812492"
       x="2.7781248"
       y="-5.1593728"
       transform="scale(1,-1)" /><rect
       style="color:#000000;overflow:visible;fill:#ffffff;stroke:#000000;stroke-width:0.264583;stroke-dasharray:none"
       id="rect1076"
       width="2.3812504"
       height="2.3812492"
       x="5.4239583"
       y="-5.1593728"
       transform="scale(1,-1)" /><rect
       style="color:#000000;overflow:visible;fill:#ffffff;stroke:#000000;stroke-width:0.264583;stroke-dasharray:none"
       id="rect1078"
       width="2.3812504"
       height="2.3812492"
       x="8.0697918"
       y="-5.1593728"
       transform="scale(1,-1)" /><rect
       style="color:#000000;overflow:visible;fill:#ffffff;stroke:#000000;stroke-width:0.264583;stroke-dasharray:none"
       id="rect1082"
       width="2.3812504"
       height="2.3812492"
       x="0.1322915"
       y="-7.8052053"
       transform="scale(1,-1)" /><rect
       style="color:#000000;overflow:visible;fill:#ffffff;stroke:#000000;stroke-width:0.264583;stroke-dasharray:none"
       id="rect1084"
       width="2.3812504"
       height="2.3812492"
       x="2.7781248"
       y="-7.8052053"
       transform="scale(1,-1)" /><rect
       style="color:#000000;overflow:visible;fill:#ffffff;stroke:#000000;stroke-width:0.264583;stroke-dasharray:none"
       id="rect1086"
       width="2.3812504"
       height="2.3812492"
       x="5.4239583"
       y="-7.8052053"
       transform="scale(1,-1)" /><rect
       style="color:#000000;overflow:visible;fill:#ffffff;stroke:#000000;stroke-width:0.264583;stroke-dasharray:none"
       id="rect1088"
       width="2.3812504"
       height="2.3812492"
       x="8.0697918"
       y="-7.8052053"
       transform="scale(1,-1)" /><rect
       style="color:#000000;overflow:visible;fill:#ffffff;stroke:#000000;stroke-width:0.264583;stroke-dasharray:none"
       id="rect1092"
       width="2.3812504"
       height="2.3812492"
       x="0.1322915"
       y="-10.451037"
       transform="scale(1,-1)" /><rect
       style="color:#000000;overflow:visible;fill:#ffffff;stroke:#000000;stroke-width:0.264583;stroke-dasharray:none"
       id="rect1094"
       width="2.3812504"
       height="2.3812492"
       x="2.7781248"
       y="-10.451037"
       transform="scale(1,-1)" /><rect
       style="color:#000000;overflow:visible;fill:#ffffff;stroke:#000000;stroke-width:0.264583;stroke-dasharray:none"
       id="rect1096"
       width="2.3812504"
       height="2.3812492"
       x="5.4239583"
       y="-10.451037"
       transform="scale(1,-1)" /><rect
       style="color:#000000;overflow:visible;fill:#ffffff;stroke:#000000;stroke-width:0.264583;stroke-dasharray:none"
       id="rect1098"
       width="2.3812504"
       height="2.3812492"
       x="8.0697918"
       y="-10.451037"
       transform="scale(1,-1)" /><rect
       style="color:#000000;overflow:visible;fill:#ffffff;stroke:#000000;stroke-width:0.264583;stroke-dasharray:none"
       id="rect1124"
       width="2.3812504"
       height="2.3812492"
       x="16.007292"
       y="-2.5135407"
       transform="scale(1,-1)" /><rect
       style="color:#000000;overflow:visible;fill:#ffffff;stroke:#000000;stroke-width:0.264583;stroke-dasharray:none"
       id="rect1126"
       width="2.3812504"
       height="2.3812492"
       x="18.653126"
       y="-2.5135407"
       transform="scale(1,-1)" /><rect
       style="color:#000000;overflow:visible;fill:#ffffff;stroke:#000000;stroke-width:0.264583;stroke-dasharray:none"
       id="rect1128"
       width="2.3812504"
       height="2.3812492"
       x="21.298958"
       y="-2.5135407"
       transform="scale(1,-1)" /><rect
       style="color:#000000;overflow:visible;fill:#ffffff;stroke:#000000;stroke-width:0.264583;stroke-dasharray:none"
       id="rect1130"
       width="2.3812504"
       height="2.3812492"
       x="23.944792"
       y="-2.5135407"
       transform="scale(1,-1)" /><rect
       style="color:#000000;overflow:visible;fill:#ffffff;stroke:#000000;stroke-width:0.264583;stroke-dasharray:none"
       id="rect1134"
       width="2.3812504"
       height="2.3812492"
       x="16.007292"
       y="-5.1593728"
       transform="scale(1,-1)" /><rect
       style="color:#000000;overflow:visible;fill:#ffffff;stroke:#000000;stroke-width:0.264583;stroke-dasharray:none"
       id="rect1136"
       width="2.3812504"
       height="2.3812492"
       x="18.653126"
       y="-5.1593728"
       transform="scale(1,-1)" /><rect
       style="color:#000000;overflow:visible;fill:#ffffff;stroke:#000000;stroke-width:0.264583;stroke-dasharray:none"
       id="rect1138"
       width="2.3812504"
       height="2.3812492"
       x="21.298958"
       y="-5.1593728"
       transform="scale(1,-1)" /><rect
       style="color:#000000;overflow:visible;fill:#ffffff;stroke:#000000;stroke-width:0.264583;stroke-dasharray:none"
       id="rect1140"
       width="2.3812504"
       height="2.3812492"
       x="23.944792"
       y="-5.1593728"
       transform="scale(1,-1)" /><rect
       style="color:#000000;overflow:visible;fill:#ffffff;stroke:#000000;stroke-width:0.264583;stroke-dasharray:none"
       id="rect1144"
       width="2.3812504"
       height="2.3812492"
       x="16.007292"
       y="-7.8052053"
       transform="scale(1,-1)" /><rect
       style="color:#000000;overflow:visible;fill:#ffffff;stroke:#000000;stroke-width:0.264583;stroke-dasharray:none"
       id="rect1146"
       width="2.3812504"
       height="2.3812492"
       x="18.653126"
       y="-7.8052053"
       transform="scale(1,-1)" /><rect
       style="color:#000000;overflow:visible;fill:#ffffff;stroke:#000000;stroke-width:0.264583;stroke-dasharray:none"
       id="rect1148"
       width="2.3812504"
       height="2.3812492"
       x="21.298958"
       y="-7.8052053"
       transform="scale(1,-1)" /><rect
       style="color:#000000;overflow:visible;fill:#ffffff;stroke:#000000;stroke-width:0.264583;stroke-dasharray:none"
       id="rect1150"
       width="2.3812504"
       height="2.3812492"
       x="23.944792"
       y="-7.8052053"
       transform="scale(1,-1)" /><rect
       style="color:#000000;overflow:visible;fill:#ffffff;stroke:#000000;stroke-width:0.264583;stroke-dasharray:none"
       id="rect1154"
       width="2.3812504"
       height="2.3812492"
       x="16.007292"
       y="-10.451037"
       transform="scale(1,-1)" /><rect
       style="color:#000000;overflow:visible;fill:#ffffff;stroke:#000000;stroke-width:0.264583;stroke-dasharray:none"
       id="rect1156"
       width="2.3812504"
       height="2.3812492"
       x="18.653126"
       y="-10.451037"
       transform="scale(1,-1)" /><rect
       style="color:#000000;overflow:visible;fill:#ffffff;stroke:#000000;stroke-width:0.264583;stroke-dasharray:none"
       id="rect1158"
       width="2.3812504"
       height="2.3812492"
       x="21.298958"
       y="-10.451037"
       transform="scale(1,-1)" /><rect
       style="color:#000000;overflow:visible;fill:#ffffff;stroke:#000000;stroke-width:0.264583;stroke-dasharray:none"
       id="rect1160"
       width="2.3812504"
       height="2.3812492"
       x="23.944792"
       y="-10.451037"
       transform="scale(1,-1)" /><path
       id="path2372"
       d="m 19.995679,3.0427444 c -0.0226,7.7e-4 -0.04376,0.011282 -0.05788,0.028938 l -0.25623,0.320126 -0.247773,-0.2351171 c -0.06728,-0.061905 -0.167286,0.023845 -0.116355,0.099779 l 0.257126,0.3704708 c 0.02953,0.042536 0.09174,0.044496 0.123886,0.00392 0.02566,-0.032395 0.06813,-0.1046097 0.145294,-0.1046097 0.07717,0 0.122374,0.075733 0.145292,0.1045943 0.02701,0.034016 0.07675,0.039063 0.110027,0.011158 l 0.257435,-0.2161333 c 0.06803,-0.057738 9.3e-5,-0.1656808 -0.08138,-0.1293191 l -0.199866,0.08984 V 3.1199131 c 3.1e-5,-0.04357 -0.03602,-0.078511 -0.07957,-0.077169 z M 19.457906,3.81443 19.006656,4.7286922 c -0.01187,0.011869 -0.01176,0.035652 -0.01176,0.059389 0,0.083111 0.05922,0.1067086 0.106709,0.1067086 h 1.484291 c 0.05936,0 0.106709,-0.023614 0.106709,-0.1067086 0,-0.023737 1.23e-4,-0.035636 -0.01176,-0.059389 L 20.229591,3.81443 c -0.07717,0 -0.154336,0.077169 -0.154336,0.1543371 v 0.077169 c 0,0.042752 -0.03441,0.077169 -0.07717,0.077169 -0.04275,0 -0.07717,-0.034417 -0.07717,-0.077169 v -0.077169 c 0,-0.042612 -0.03454,-0.077169 -0.07717,-0.077169 -0.04263,0 -0.07717,0.034555 -0.07717,0.077169 v 0.3086742 c 0,0.042752 -0.03441,0.077169 -0.07717,0.077169 -0.04275,0 -0.07717,-0.034417 -0.07717,-0.077169 V 3.9687671 c 0,-0.077169 -0.07717,-0.1543371 -0.154337,-0.1543371 z"
       style="stroke-width:0.264583" /><path
       id="path2374"
       d="m 6.766512,3.0427444 c -0.0226,7.7e-4 -0.04376,0.011282 -0.05788,0.028938 L 6.452402,3.3918084 6.204629,3.1566913 C 6.137349,3.0947863 6.037343,3.1805363 6.088274,3.2564703 L 6.3454,3.6269411 c 0.02953,0.042536 0.09174,0.044496 0.123886,0.00392 0.02566,-0.032395 0.06813,-0.1046097 0.145294,-0.1046097 0.07717,0 0.122374,0.075733 0.145292,0.1045943 0.02701,0.034016 0.07675,0.039063 0.110027,0.011158 L 7.127334,3.4258704 c 0.06803,-0.057738 9.3e-5,-0.1656808 -0.08138,-0.1293191 l -0.199866,0.08984 V 3.1199131 c 3.1e-5,-0.04357 -0.03602,-0.078511 -0.07957,-0.077169 z M 6.228739,3.81443 5.777489,4.7286922 c -0.01187,0.011869 -0.01176,0.035652 -0.01176,0.059389 0,0.083111 0.05922,0.1067086 0.106709,0.1067086 h 1.484291 c 0.05936,0 0.106709,-0.023614 0.106709,-0.1067086 0,-0.023737 1.23e-4,-0.035636 -0.01176,-0.059389 L 7.000424,3.81443 c -0.07717,0 -0.154336,0.077169 -0.154336,0.1543371 v 0.077169 c 0,0.042752 -0.03441,0.077169 -0.07717,0.077169 -0.04275,0 -0.07717,-0.034417 -0.07717,-0.077169 v -0.077169 c 0,-0.042612 -0.03454,-0.077169 -0.07717,-0.077169 -0.04263,0 -0.07717,0.034555 -0.07717,0.077169 v 0.3086742 c 0,0.042752 -0.03441,0.077169 -0.07717,0.077169 -0.04275,0 -0.07717,-0.034417 -0.07717,-0.077169 V 3.9687671 c 0,-0.077169 -0.07717,-0.1543371 -0.154337,-0.1543371 z"
       style="stroke-width:0.264583" /><path
       id="path2376"
       d="m 22.641512,3.0427444 c -0.0226,7.7e-4 -0.04376,0.011282 -0.05788,0.028938 l -0.25623,0.320126 -0.247773,-0.2351171 c -0.06728,-0.061905 -0.167286,0.023845 -0.116355,0.099779 L 22.2204,3.6269411 c 0.02953,0.042536 0.09174,0.044496 0.123886,0.00392 0.02566,-0.032395 0.06813,-0.1046097 0.145294,-0.1046097 0.07717,0 0.122374,0.075733 0.145292,0.1045943 0.02701,0.034016 0.07675,0.039063 0.110027,0.011158 l 0.257435,-0.2161333 c 0.06803,-0.057738 9.3e-5,-0.1656808 -0.08138,-0.1293191 l -0.199866,0.08984 V 3.1199131 c 3.1e-5,-0.04357 -0.03602,-0.078511 -0.07957,-0.077169 z M 22.103739,3.81443 21.652489,4.7286922 c -0.01187,0.011869 -0.01176,0.035652 -0.01176,0.059389 0,0.083111 0.05922,0.1067086 0.106709,0.1067086 h 1.484291 c 0.05936,0 0.106709,-0.023614 0.106709,-0.1067086 0,-0.023737 1.23e-4,-0.035636 -0.01176,-0.059389 L 22.875424,3.81443 c -0.07717,0 -0.154336,0.077169 -0.154336,0.1543371 v 0.077169 c 0,0.042752 -0.03441,0.077169 -0.07717,0.077169 -0.04275,0 -0.07717,-0.034417 -0.07717,-0.077169 v -0.077169 c 0,-0.042612 -0.03454,-0.077169 -0.07717,-0.077169 -0.04263,0 -0.07717,0.034555 -0.07717,0.077169 v 0.3086742 c 0,0.042752 -0.03441,0.077169 -0.07717,0.077169 -0.04275,0 -0.07717,-0.034417 -0.07717,-0.077169 V 3.9687671 c 0,-0.077169 -0.07717,-0.1543371 -0.154337,-0.1543371 z"
       style="stroke-width:0.264583" /><path
       id="path2378"
       d="m 4.1206785,3.0427444 c -0.0226,7.7e-4 -0.04376,0.011282 -0.05788,0.028938 l -0.25623,0.320126 -0.247773,-0.2351171 c -0.06728,-0.061905 -0.167286,0.023845 -0.116355,0.099779 l 0.257126,0.3704708 c 0.02953,0.042536 0.09174,0.044496 0.123886,0.00392 0.02566,-0.032395 0.06813,-0.1046097 0.145294,-0.1046097 0.07717,0 0.122374,0.075733 0.145292,0.1045943 0.02701,0.034016 0.07675,0.039063 0.110027,0.011158 l 0.257435,-0.2161333 c 0.06803,-0.057738 9.3e-5,-0.1656808 -0.08138,-0.1293191 l -0.199866,0.08984 V 3.1199131 c 3.1e-5,-0.04357 -0.03602,-0.078511 -0.07957,-0.077169 z M 3.5829055,3.81443 3.1316555,4.7286922 c -0.01187,0.011869 -0.01176,0.035652 -0.01176,0.059389 0,0.083111 0.05922,0.1067086 0.106709,0.1067086 h 1.484291 c 0.05936,0 0.106709,-0.023614 0.106709,-0.1067086 0,-0.023737 1.23e-4,-0.035636 -0.01176,-0.059389 L 4.3545905,3.81443 c -0.07717,0 -0.154336,0.077169 -0.154336,0.1543371 v 0.077169 c 0,0.042752 -0.03441,0.077169 -0.07717,0.077169 -0.04275,0 -0.07717,-0.034417 -0.07717,-0.077169 v -0.077169 c 0,-0.042612 -0.03454,-0.077169 -0.07717,-0.077169 -0.04263,0 -0.07717,0.034555 -0.07717,0.077169 v 0.3086742 c 0,0.042752 -0.03441,0.077169 -0.07717,0.077169 -0.04275,0 -0.07717,-0.034417 -0.07717,-0.077169 V 3.9687671 c 0,-0.077169 -0.07717,-0.1543371 -0.154337,-0.1543371 z"
       style="stroke-width:0.264583" /></g></svg>
