<?xml version="1.0" encoding="UTF-8" standalone="no"?>
<!-- Created with Inkscape (http://www.inkscape.org/) -->

<svg
   width="26.458334mm"
   height="10.583329mm"
   viewBox="0 0 26.458334 10.583329"
   version="1.1"
   id="svg5"
   sodipodi:docname="the-pit.svg"
   inkscape:version="1.2 (dc2aedaf03, 2022-05-15)"
   xml:space="preserve"
   xmlns:inkscape="http://www.inkscape.org/namespaces/inkscape"
   xmlns:sodipodi="http://sodipodi.sourceforge.net/DTD/sodipodi-0.dtd"
   xmlns="http://www.w3.org/2000/svg"
   xmlns:svg="http://www.w3.org/2000/svg"><sodipodi:namedview
     id="namedview7"
     pagecolor="#ffffff"
     bordercolor="#666666"
     borderopacity="1.0"
     inkscape:showpageshadow="2"
     inkscape:pageopacity="0.0"
     inkscape:pagecheckerboard="0"
     inkscape:deskcolor="#d1d1d1"
     inkscape:document-units="px"
     showgrid="true"
     inkscape:zoom="10.550996"
     inkscape:cx="50.84828"
     inkscape:cy="23.599668"
     inkscape:window-width="1600"
     inkscape:window-height="840"
     inkscape:window-x="0"
     inkscape:window-y="23"
     inkscape:window-maximized="1"
     inkscape:current-layer="layer1"><inkscape:grid
       type="xygrid"
       id="grid9"
       originx="0"
       originy="-5.9604643e-08" /></sodipodi:namedview><defs
     id="defs2" /><g
     inkscape:label="Layer 1"
     inkscape:groupmode="layer"
     id="layer1"><rect
       style="color:#000000;overflow:visible;fill:#ffffff;stroke:#999999;stroke-width:0.264583;stroke-dasharray:none"
       id="rect63"
       width="2.3812504"
       height="2.3812492"
       x="8.0697918"
       y="-2.5135407"
       transform="scale(1,-1)" /><rect
       style="color:#000000;overflow:visible;fill:#ffffff;stroke:#999999;stroke-width:0.264583;stroke-dasharray:none"
       id="rect1033"
       width="2.3812504"
       height="2.3812492"
       x="10.715625"
       y="-2.5135407"
       transform="scale(1,-1)" /><rect
       style="color:#000000;overflow:visible;fill:#ffffff;stroke:#999999;stroke-width:0.264583;stroke-dasharray:none"
       id="rect1035"
       width="2.3812504"
       height="2.3812492"
       x="13.361459"
       y="-2.5135407"
       transform="scale(1,-1)" /><rect
       style="color:#000000;overflow:visible;fill:#ffffff;stroke:#999999;stroke-width:0.264583;stroke-dasharray:none"
       id="rect1037"
       width="2.3812504"
       height="2.3812492"
       x="16.007292"
       y="-2.5135407"
       transform="scale(1,-1)" /><rect
       style="color:#000000;overflow:visible;fill:#ff0000;stroke:#999999;stroke-width:0.264583;stroke-dasharray:none"
       id="rect1072"
       width="2.3812504"
       height="2.3812492"
       x="8.0697918"
       y="-5.1593728"
       transform="scale(1,-1)" /><rect
       style="color:#000000;overflow:visible;fill:#00ffff;stroke:#999999;stroke-width:0.264583;stroke-dasharray:none"
       id="rect1074"
       width="2.3812504"
       height="2.3812492"
       x="10.715625"
       y="-5.1593728"
       transform="scale(1,-1)" /><rect
       style="color:#000000;overflow:visible;fill:#ff6600;stroke:#999999;stroke-width:0.264583;stroke-dasharray:none"
       id="rect1076"
       width="2.3812504"
       height="2.3812492"
       x="13.361459"
       y="-5.1593728"
       transform="scale(1,-1)" /><rect
       style="color:#000000;overflow:visible;fill:#00ff00;stroke:#999999;stroke-width:0.264583;stroke-dasharray:none"
       id="rect1078"
       width="2.3812504"
       height="2.3812492"
       x="16.007292"
       y="-5.1593728"
       transform="scale(1,-1)" /><rect
       style="color:#000000;overflow:visible;fill:#00ff00;stroke:#999999;stroke-width:0.264583;stroke-dasharray:none"
       id="rect1082"
       width="2.3812504"
       height="2.3812492"
       x="8.0697918"
       y="-7.8052053"
       transform="scale(1,-1)" /><rect
       style="color:#000000;overflow:visible;fill:#ffffff;stroke:#999999;stroke-width:0.264583;stroke-dasharray:none"
       id="rect1084"
       width="2.3812504"
       height="2.3812492"
       x="10.715625"
       y="-7.8052053"
       transform="scale(1,-1)" /><rect
       style="color:#000000;overflow:visible;fill:#ffffff;stroke:#999999;stroke-width:0.264583;stroke-dasharray:none"
       id="rect1086"
       width="2.3812504"
       height="2.3812492"
       x="13.361459"
       y="-7.8052053"
       transform="scale(1,-1)" /><rect
       style="color:#000000;overflow:visible;fill:#ffffff;stroke:#999999;stroke-width:0.264583;stroke-dasharray:none"
       id="rect1088"
       width="2.3812504"
       height="2.3812492"
       x="16.007292"
       y="-7.8052053"
       transform="scale(1,-1)" /><rect
       style="color:#000000;overflow:visible;fill:#ff0000;stroke:#999999;stroke-width:0.264583;stroke-dasharray:none"
       id="rect1092"
       width="2.3812504"
       height="2.3812492"
       x="8.0697918"
       y="-10.451037"
       transform="scale(1,-1)" /><rect
       style="color:#000000;overflow:visible;fill:#ffffff;stroke:#999999;stroke-width:0.264583;stroke-dasharray:none"
       id="rect1094"
       width="2.3812504"
       height="2.3812492"
       x="10.715625"
       y="-10.451037"
       transform="scale(1,-1)" /><rect
       style="color:#000000;overflow:visible;fill:#ffffff;stroke:#999999;stroke-width:0.264583;stroke-dasharray:none"
       id="rect1096"
       width="2.3812504"
       height="2.3812492"
       x="13.361459"
       y="-10.451037"
       transform="scale(1,-1)" /><rect
       style="color:#000000;overflow:visible;fill:#ffffff;stroke:#999999;stroke-width:0.264583;stroke-dasharray:none"
       id="rect1098"
       width="2.3812504"
       height="2.3812492"
       x="16.007292"
       y="-10.451037"
       transform="scale(1,-1)" /><path
       fill="#000000"
       d="m 14.312629,0.44165643 0.134971,0.322125 c 0.05706,0.02937 0.127028,0.02568 0.182129,-0.0049 l 0.154497,-0.329741 c -0.17482,-0.02787 -0.324127,-0.01896 -0.471597,0.01252 z m 0.526583,0.02917 -0.122875,0.273762 c 0.04808,0.04736 0.142814,0.07238 0.180385,0.05925 l 0.119553,-0.248107 c -0.04764,-0.03219 -0.105194,-0.06093 -0.177067,-0.0849 z m -0.59393,-0.0076 c -0.08366,0.02512 -0.157177,0.06271 -0.215155,0.109654 0.0573,0.06077 0.11069,0.131105 0.146484,0.202625 0.09388,0.02352 0.136072,-0.02627 0.18208,-0.07114 z m -0.28475,0.133586 c -0.140144,0.126219 -0.255133,0.293091 -0.299412,0.48023297 l 0.252963,0.01286 c 0.04605,-0.11709097 0.09416,-0.21586397 0.207991,-0.27903497 -0.0379,-0.07763 -0.09061,-0.151121 -0.161542,-0.214058 z m 1.121828,-0.0011 -0.122161,0.23412 c 0.1248,0.08057 0.167111,0.158581 0.201724,0.26463397 l 0.277919,-0.03233 C 15.402982,0.84776843 15.277971,0.65158243 15.08236,0.59571443 Z M 14.882033,1.1219114 c 0.01824,0.04962 -0.06076,0.113907 -0.03479,0.151217 -0.01538,0.0033 -0.03403,0.0063 -0.05517,-0.03435 -0.0043,0.0479 0.0083,0.07518 0.04667,0.112025 -0.01029,0.003 -0.03086,0.01055 -0.04633,0.0022 -0.0048,0.02833 0.04168,0.05317 0.07949,0.05688 l 0.03218,-0.0083 c -0.02336,-0.0042 -0.03022,-0.01271 -0.04076,-0.02351 0.01139,-0.0051 0.04815,-0.0273 0.0082,-0.05657 0.04845,-0.01055 0.02315,-0.05711 0.01588,-0.08385 0.02886,0.02991 0.05846,0.08645 0.08385,0.02717 0.01602,0.04834 0.02516,0.04648 0.05221,0.03493 0.004,0.03527 -0.01134,0.05673 -0.03372,0.08636 l 0.04792,-0.01915 c 0.02308,-0.01928 0.07732,-0.09781 0.02465,-0.136152 0.01,0.04772 -0.02134,0.05518 -0.07161,-0.04195 -0.01679,0.118023 -0.04693,-0.02873 -0.108714,-0.06689 z m -1.233684,0.0081 v 0.254056 l 0.279369,-0.04548 0.0061,-0.191276 z m 0.550307,0.0014 c 0.01431,0.03344 -0.05556,0.173454 -0.07235,0.05543 -0.05028,0.09713 -0.09169,0.09304 -0.08171,0.04532 -0.05266,0.03834 -0.0052,0.128321 0.01792,0.147597 l 0.04307,0.01151 c -0.02238,-0.02964 -0.04435,-0.05221 -0.04032,-0.08748 0.02705,0.01156 0.04024,0.02149 0.05626,-0.02685 0.02538,0.05928 0.06643,-0.01679 0.09529,-0.04669 -0.006,0.04408 -0.02409,0.08601 0.02801,0.09664 -0.03502,0.03867 0.0073,0.07667 -0.04868,0.08749 l 0.03219,0.0083 c 0.0378,-0.0037 0.07818,-0.04068 0.07342,-0.069 -0.01548,0.0084 -0.02998,0.01295 -0.04027,0.0099 0.03834,-0.03684 0.04089,-0.0823 0.03657,-0.130207 -0.02114,0.04065 -0.03036,0.04502 -0.04507,0.05253 0.02596,-0.03731 -0.02273,-0.123821 -0.05432,-0.15458 z m 1.256097,0.0045 -0.297501,0.02181 0.0044,0.303723 0.289655,0.0109 z m -1.507464,0.279066 -0.306649,0.0375 0.0046,0.382583 0.320398,0.0044 z m 1.076403,0.02818 -0.108661,0.02697 0.08229,0.262007 0.06184,-0.01934 z m -0.947162,0.01284 -0.03547,0.269631 0.06184,0.01934 0.08229,-0.262006 z m 1.074865,0.07592 v 0.320552 l 0.303623,-0.0308 0.0088,-0.289755 z m 0.324483,0.351526 -0.341086,0.03815 -0.0044,0.30961 0.34776,0.0022 z m -1.518084,0.0077 -0.313909,0.0089 -0.01787,0.330539 h 0.345174 z"
       id="path5494"
       style="stroke-width:0.264582" /></g></svg>
