<?xml version="1.0" encoding="UTF-8" standalone="no"?>
<!-- Created with Inkscape (http://www.inkscape.org/) -->

<svg
   width="26.458334mm"
   height="10.583329mm"
   viewBox="0 0 26.458334 10.583329"
   version="1.1"
   id="svg5"
   sodipodi:docname="the-golden-granary.svg"
   inkscape:version="1.2 (dc2aedaf03, 2022-05-15)"
   xml:space="preserve"
   xmlns:inkscape="http://www.inkscape.org/namespaces/inkscape"
   xmlns:sodipodi="http://sodipodi.sourceforge.net/DTD/sodipodi-0.dtd"
   xmlns="http://www.w3.org/2000/svg"
   xmlns:svg="http://www.w3.org/2000/svg"><sodipodi:namedview
     id="namedview7"
     pagecolor="#ffffff"
     bordercolor="#666666"
     borderopacity="1.0"
     inkscape:showpageshadow="2"
     inkscape:pageopacity="0.0"
     inkscape:pagecheckerboard="0"
     inkscape:deskcolor="#d1d1d1"
     inkscape:document-units="px"
     showgrid="true"
     inkscape:zoom="10.550996"
     inkscape:cx="23.647057"
     inkscape:cy="23.220557"
     inkscape:window-width="1600"
     inkscape:window-height="840"
     inkscape:window-x="0"
     inkscape:window-y="23"
     inkscape:window-maximized="1"
     inkscape:current-layer="layer1"><inkscape:grid
       type="xygrid"
       id="grid9"
       originx="0"
       originy="-5.9604643e-08" /></sodipodi:namedview><defs
     id="defs2" /><g
     inkscape:label="Layer 1"
     inkscape:groupmode="layer"
     id="layer1"><rect
       style="color:#000000;overflow:visible;fill:#ffffff;stroke:#999999;stroke-width:0.264583;stroke-dasharray:none"
       id="rect63"
       width="2.3812504"
       height="2.3812492"
       x="8.0697918"
       y="-2.5135407"
       transform="scale(1,-1)" /><rect
       style="color:#000000;overflow:visible;fill:#ffffff;stroke:#999999;stroke-width:0.264583;stroke-dasharray:none"
       id="rect1033"
       width="2.3812504"
       height="2.3812492"
       x="10.715625"
       y="-2.5135407"
       transform="scale(1,-1)" /><rect
       style="color:#000000;overflow:visible;fill:#00ffff;stroke:#000000;stroke-width:0.264583;stroke-dasharray:none"
       id="rect1035"
       width="2.3812504"
       height="2.3812492"
       x="13.361459"
       y="-2.5135407"
       transform="scale(1,-1)" /><rect
       style="color:#000000;overflow:visible;fill:#ffffff;stroke:#999999;stroke-width:0.264583;stroke-dasharray:none"
       id="rect1037"
       width="2.3812504"
       height="2.3812492"
       x="16.007292"
       y="-2.5135407"
       transform="scale(1,-1)" /><rect
       style="color:#000000;overflow:visible;fill:#ffffff;stroke:#999999;stroke-width:0.264583;stroke-dasharray:none"
       id="rect1072"
       width="2.3812504"
       height="2.3812492"
       x="8.0697918"
       y="-5.1593728"
       transform="scale(1,-1)" /><rect
       style="color:#000000;overflow:visible;fill:#ffffff;stroke:#999999;stroke-width:0.264583;stroke-dasharray:none"
       id="rect1074"
       width="2.3812504"
       height="2.3812492"
       x="10.715625"
       y="-5.1593728"
       transform="scale(1,-1)" /><rect
       style="color:#000000;overflow:visible;fill:#ffffff;stroke:#999999;stroke-width:0.264583;stroke-dasharray:none"
       id="rect1076"
       width="2.3812504"
       height="2.3812492"
       x="13.361459"
       y="-5.1593728"
       transform="scale(1,-1)" /><rect
       style="color:#000000;overflow:visible;fill:#00ffff;stroke:#000000;stroke-width:0.264583;stroke-dasharray:none"
       id="rect1078"
       width="2.3812504"
       height="2.3812492"
       x="16.007292"
       y="-5.1593728"
       transform="scale(1,-1)" /><rect
       style="color:#000000;overflow:visible;fill:#ffffff;stroke:#999999;stroke-width:0.264583;stroke-dasharray:none"
       id="rect1082"
       width="2.3812504"
       height="2.3812492"
       x="8.0697918"
       y="-7.8052053"
       transform="scale(1,-1)" /><rect
       style="color:#000000;overflow:visible;fill:#ffffff;stroke:#999999;stroke-width:0.264583;stroke-dasharray:none"
       id="rect1084"
       width="2.3812504"
       height="2.3812492"
       x="10.715625"
       y="-7.8052053"
       transform="scale(1,-1)" /><rect
       style="color:#000000;overflow:visible;fill:#ffffff;stroke:#999999;stroke-width:0.264583;stroke-dasharray:none"
       id="rect1086"
       width="2.3812504"
       height="2.3812492"
       x="13.361459"
       y="-7.8052053"
       transform="scale(1,-1)" /><rect
       style="color:#000000;overflow:visible;fill:#ffffff;stroke:#999999;stroke-width:0.264583;stroke-dasharray:none"
       id="rect1088"
       width="2.3812504"
       height="2.3812492"
       x="16.007292"
       y="-7.8052053"
       transform="scale(1,-1)" /><rect
       style="color:#000000;overflow:visible;fill:#ff6600;stroke:#000000;stroke-width:0.264583;stroke-dasharray:none"
       id="rect1092"
       width="2.3812504"
       height="2.3812492"
       x="8.0697918"
       y="-10.451037"
       transform="scale(1,-1)" /><rect
       style="color:#000000;overflow:visible;fill:#ffffff;stroke:#999999;stroke-width:0.264583;stroke-dasharray:none"
       id="rect1094"
       width="2.3812504"
       height="2.3812492"
       x="10.715625"
       y="-10.451037"
       transform="scale(1,-1)" /><rect
       style="color:#000000;overflow:visible;fill:#ffffff;stroke:#999999;stroke-width:0.264583;stroke-dasharray:none"
       id="rect1096"
       width="2.3812504"
       height="2.3812492"
       x="13.361459"
       y="-10.451037"
       transform="scale(1,-1)" /><rect
       style="color:#000000;overflow:visible;fill:#ffffff;stroke:#999999;stroke-width:0.264583;stroke-dasharray:none"
       id="rect1098"
       width="2.3812504"
       height="2.3812492"
       x="16.007292"
       y="-10.451037"
       transform="scale(1,-1)" /><g
       id="g2881"
       transform="matrix(0.02480469,0,0,0.02480469,8.4666669,8.4666627)"
       style="stroke-width:10.6667"><g
         id="g2827"
         style="stroke-width:10.6667">
	<path
   d="m 63,58 h -3 v -3 c 0,-0.553 -0.448,-1 -1,-1 H 56 V 29 c 0,-0.379 -0.214,-0.725 -0.553,-0.895 l -3.66,-1.83 -1.858,-4.646 C 49.777,21.249 49.409,21 49,21 h -2.001 c -0.379,0 -0.725,0.214 -0.894,0.553 l -2,4 C 44.036,25.691 44,25.845 44,26 V 54 H 38 V 22 c 0,-0.315 -0.148,-0.611 -0.4,-0.8 l -4,-3 C 33.427,18.07 33.217,18 33,18 H 31.535 L 29.831,15.445 C 29.646,15.167 29.334,15 28.999,15 H 27 c -0.552,0 -1,0.447 -1,1 V 54 H 20 V 8.976 C 20.844,9.617 21.884,10 23,10 25.757,10 28,7.757 28,5 28,2.243 25.757,0 23,0 H 5 C 2.243,0 0,2.243 0,5 0,7.757 2.243,10 5,10 6.116,10 7.156,9.617 8,8.976 V 54 H 5 c -0.552,0 -1,0.447 -1,1 v 3 H 1 c -0.552,0 -1,0.447 -1,1 v 4 c 0,0.553 0.448,1 1,1 h 62 c 0.552,0 1,-0.447 1,-1 v -4 c 0,-0.553 -0.448,-1 -1,-1 z m -17,-22.586 2,2 V 42 c 0,0.266 0.105,0.52 0.293,0.707 l 2,2 1.414,-1.414 L 50,41.586 v -4.172 l 2.707,-2.707 -1.414,-1.414 -2.293,2.293 -3,-3 v -6.35 L 47.618,23 h 0.705 l 1.749,4.371 c 0.091,0.228 0.262,0.414 0.481,0.523 L 54,29.618 v 22.968 l -2,-2 V 48 h -2 v 2 h -2 v 2 h 2.586 l 2,2 H 46 Z m -18,12 2,-2 1,1 V 50 c 0,0.266 0.105,0.52 0.293,0.707 l 1.5,1.5 1.414,-1.414 L 33,49.586 V 46 c 0,-0.266 -0.106,-0.52 -0.293,-0.707 l -2,-2 c -0.391,-0.391 -1.023,-0.391 -1.414,0 L 28,44.586 V 28.63 l 2,2.25 V 36 c 0,0.266 0.105,0.52 0.293,0.707 l 2,2 1.414,-1.414 L 32,35.586 V 30.5 c 0,-0.025 -0.012,-0.048 -0.013,-0.073 l 1.72,-1.72 C 33.894,28.52 34,28.266 34,28 v -4 h -2 v 3.586 L 30.808,28.779 28,25.62 V 17 h 0.464 l 1.704,2.555 C 30.354,19.833 30.666,20 31,20 h 1.667 L 36,22.5 V 42.586 L 33.707,40.293 32.293,41.707 36,45.414 V 54 H 28 Z M 10,7 h 8 V 9 H 10 Z M 5,8 C 3.346,8 2,6.654 2,5 2,3.346 3.346,2 5,2 h 18 c 1.654,0 3,1.346 3,3 0,1.654 -1.346,3 -3,3 C 21.641,8 20.453,7.074 20.11,5.749 19.996,5.309 19.597,5 19.142,5 H 19 9 8.858 C 8.403,5 8.004,5.309 7.89,5.749 7.547,7.074 6.359,8 5,8 Z M 10,52.414 12.207,50.207 10.793,48.793 10,49.586 V 29.914 l 1.793,1.793 C 11.98,31.895 12.235,32 12.5,32 H 15 V 30 H 12.914 L 10,27.086 V 23.414 L 12.707,20.707 11.293,19.293 10,20.586 V 11 h 8 v 12.796 l -2,-1.75 V 17 c 0,-0.266 -0.106,-0.52 -0.293,-0.707 l -2.5,-2.5 -1.414,1.414 L 14,17.414 V 22.5 c 0,0.288 0.124,0.562 0.341,0.753 L 18,26.454 v 22.132 l -4,-4 V 39.414 L 16.207,37.207 14.793,35.793 14,36.586 12.707,35.293 11.293,36.707 12.586,38 12.293,38.293 C 12.105,38.48 12,38.734 12,39 v 6 c 0,0.266 0.105,0.52 0.293,0.707 L 18,51.414 V 54 H 10 Z M 6,56 h 3 10 8 10 8 10 3 v 2 H 6 Z m 56,6 H 2 v -2 h 3 54 3 z"
   id="path2825"
   style="stroke-width:10.6667" />
</g><g
         id="g2829"
         style="stroke-width:10.6667">
</g><g
         id="g2831"
         style="stroke-width:10.6667">
</g><g
         id="g2833"
         style="stroke-width:10.6667">
</g><g
         id="g2835"
         style="stroke-width:10.6667">
</g><g
         id="g2837"
         style="stroke-width:10.6667">
</g><g
         id="g2839"
         style="stroke-width:10.6667">
</g><g
         id="g2841"
         style="stroke-width:10.6667">
</g><g
         id="g2843"
         style="stroke-width:10.6667">
</g><g
         id="g2845"
         style="stroke-width:10.6667">
</g><g
         id="g2847"
         style="stroke-width:10.6667">
</g><g
         id="g2849"
         style="stroke-width:10.6667">
</g><g
         id="g2851"
         style="stroke-width:10.6667">
</g><g
         id="g2853"
         style="stroke-width:10.6667">
</g><g
         id="g2855"
         style="stroke-width:10.6667">
</g><g
         id="g2857"
         style="stroke-width:10.6667">
</g></g><g
       id="g2917"
       transform="matrix(0.02480469,0,0,0.02480469,16.404167,0.52916607)"
       style="stroke-width:10.6667"><g
         id="g2885"
         style="stroke-width:10.6667">
	<path
   d="m 63,58 h -3 v -3 c 0,-0.553 -0.448,-1 -1,-1 H 56 V 29 c 0,-0.379 -0.214,-0.725 -0.553,-0.895 l -3.66,-1.83 -1.858,-4.646 C 49.777,21.249 49.409,21 49,21 h -2.001 c -0.379,0 -0.725,0.214 -0.894,0.553 l -2,4 C 44.036,25.691 44,25.845 44,26 V 54 H 38 V 22 c 0,-0.315 -0.148,-0.611 -0.4,-0.8 l -4,-3 C 33.427,18.07 33.217,18 33,18 H 31.535 L 29.831,15.445 C 29.646,15.167 29.334,15 28.999,15 H 27 c -0.552,0 -1,0.447 -1,1 V 54 H 20 V 8.976 C 20.844,9.617 21.884,10 23,10 25.757,10 28,7.757 28,5 28,2.243 25.757,0 23,0 H 5 C 2.243,0 0,2.243 0,5 0,7.757 2.243,10 5,10 6.116,10 7.156,9.617 8,8.976 V 54 H 5 c -0.552,0 -1,0.447 -1,1 v 3 H 1 c -0.552,0 -1,0.447 -1,1 v 4 c 0,0.553 0.448,1 1,1 h 62 c 0.552,0 1,-0.447 1,-1 v -4 c 0,-0.553 -0.448,-1 -1,-1 z m -17,-22.586 2,2 V 42 c 0,0.266 0.105,0.52 0.293,0.707 l 2,2 1.414,-1.414 L 50,41.586 v -4.172 l 2.707,-2.707 -1.414,-1.414 -2.293,2.293 -3,-3 v -6.35 L 47.618,23 h 0.705 l 1.749,4.371 c 0.091,0.228 0.262,0.414 0.481,0.523 L 54,29.618 v 22.968 l -2,-2 V 48 h -2 v 2 h -2 v 2 h 2.586 l 2,2 H 46 Z m -18,12 2,-2 1,1 V 50 c 0,0.266 0.105,0.52 0.293,0.707 l 1.5,1.5 1.414,-1.414 L 33,49.586 V 46 c 0,-0.266 -0.106,-0.52 -0.293,-0.707 l -2,-2 c -0.391,-0.391 -1.023,-0.391 -1.414,0 L 28,44.586 V 28.63 l 2,2.25 V 36 c 0,0.266 0.105,0.52 0.293,0.707 l 2,2 1.414,-1.414 L 32,35.586 V 30.5 c 0,-0.025 -0.012,-0.048 -0.013,-0.073 l 1.72,-1.72 C 33.894,28.52 34,28.266 34,28 v -4 h -2 v 3.586 L 30.808,28.779 28,25.62 V 17 h 0.464 l 1.704,2.555 C 30.354,19.833 30.666,20 31,20 h 1.667 L 36,22.5 V 42.586 L 33.707,40.293 32.293,41.707 36,45.414 V 54 H 28 Z M 10,7 h 8 V 9 H 10 Z M 5,8 C 3.346,8 2,6.654 2,5 2,3.346 3.346,2 5,2 h 18 c 1.654,0 3,1.346 3,3 0,1.654 -1.346,3 -3,3 C 21.641,8 20.453,7.074 20.11,5.749 19.996,5.309 19.597,5 19.142,5 H 19 9 8.858 C 8.403,5 8.004,5.309 7.89,5.749 7.547,7.074 6.359,8 5,8 Z M 10,52.414 12.207,50.207 10.793,48.793 10,49.586 V 29.914 l 1.793,1.793 C 11.98,31.895 12.235,32 12.5,32 H 15 V 30 H 12.914 L 10,27.086 V 23.414 L 12.707,20.707 11.293,19.293 10,20.586 V 11 h 8 v 12.796 l -2,-1.75 V 17 c 0,-0.266 -0.106,-0.52 -0.293,-0.707 l -2.5,-2.5 -1.414,1.414 L 14,17.414 V 22.5 c 0,0.288 0.124,0.562 0.341,0.753 L 18,26.454 v 22.132 l -4,-4 V 39.414 L 16.207,37.207 14.793,35.793 14,36.586 12.707,35.293 11.293,36.707 12.586,38 12.293,38.293 C 12.105,38.48 12,38.734 12,39 v 6 c 0,0.266 0.105,0.52 0.293,0.707 L 18,51.414 V 54 H 10 Z M 6,56 h 3 10 8 10 8 10 3 v 2 H 6 Z m 56,6 H 2 v -2 h 3 54 3 z"
   id="path2883"
   style="stroke-width:10.6667" />
</g><g
         id="g2887"
         style="stroke-width:10.6667">
</g><g
         id="g2889"
         style="stroke-width:10.6667">
</g><g
         id="g2891"
         style="stroke-width:10.6667">
</g><g
         id="g2893"
         style="stroke-width:10.6667">
</g><g
         id="g2895"
         style="stroke-width:10.6667">
</g><g
         id="g2897"
         style="stroke-width:10.6667">
</g><g
         id="g2899"
         style="stroke-width:10.6667">
</g><g
         id="g2901"
         style="stroke-width:10.6667">
</g><g
         id="g2903"
         style="stroke-width:10.6667">
</g><g
         id="g2905"
         style="stroke-width:10.6667">
</g><g
         id="g2907"
         style="stroke-width:10.6667">
</g><g
         id="g2909"
         style="stroke-width:10.6667">
</g><g
         id="g2911"
         style="stroke-width:10.6667">
</g><g
         id="g2913"
         style="stroke-width:10.6667">
</g><g
         id="g2915"
         style="stroke-width:10.6667">
</g></g></g></svg>
