<?xml version="1.0" encoding="UTF-8" standalone="no"?>
<!-- Created with Inkscape (http://www.inkscape.org/) -->

<svg
   width="26.458334mm"
   height="10.583329mm"
   viewBox="0 0 26.458334 10.583329"
   version="1.1"
   id="svg5"
   sodipodi:docname="zombie-plague.svg"
   inkscape:version="1.2 (dc2aedaf03, 2022-05-15)"
   xml:space="preserve"
   xmlns:inkscape="http://www.inkscape.org/namespaces/inkscape"
   xmlns:sodipodi="http://sodipodi.sourceforge.net/DTD/sodipodi-0.dtd"
   xmlns="http://www.w3.org/2000/svg"
   xmlns:svg="http://www.w3.org/2000/svg"><sodipodi:namedview
     id="namedview7"
     pagecolor="#ffffff"
     bordercolor="#666666"
     borderopacity="1.0"
     inkscape:showpageshadow="2"
     inkscape:pageopacity="0.0"
     inkscape:pagecheckerboard="0"
     inkscape:deskcolor="#d1d1d1"
     inkscape:document-units="px"
     showgrid="true"
     inkscape:zoom="10.550996"
     inkscape:cx="51.322169"
     inkscape:cy="12.415889"
     inkscape:window-width="1600"
     inkscape:window-height="840"
     inkscape:window-x="0"
     inkscape:window-y="23"
     inkscape:window-maximized="1"
     inkscape:current-layer="layer1"><inkscape:grid
       type="xygrid"
       id="grid9"
       originx="0"
       originy="-5.9604643e-08" /></sodipodi:namedview><defs
     id="defs2" /><g
     inkscape:label="Layer 1"
     inkscape:groupmode="layer"
     id="layer1"><rect
       style="color:#000000;overflow:visible;fill:#ffffff;stroke:#999999;stroke-width:0.264583;stroke-dasharray:none"
       id="rect63"
       width="2.3812504"
       height="2.3812492"
       x="0.1322915"
       y="-2.5135407"
       transform="scale(1,-1)" /><rect
       style="color:#000000;overflow:visible;fill:#ffffff;stroke:#999999;stroke-width:0.264583;stroke-dasharray:none"
       id="rect1033"
       width="2.3812504"
       height="2.3812492"
       x="2.7781248"
       y="-2.5135407"
       transform="scale(1,-1)" /><rect
       style="color:#000000;overflow:visible;fill:#ffffff;stroke:#999999;stroke-width:0.264583;stroke-dasharray:none"
       id="rect1035"
       width="2.3812504"
       height="2.3812492"
       x="5.4239583"
       y="-2.5135407"
       transform="scale(1,-1)" /><rect
       style="color:#000000;overflow:visible;fill:#ffffff;stroke:#999999;stroke-width:0.264583;stroke-dasharray:none"
       id="rect1037"
       width="2.3812504"
       height="2.3812492"
       x="8.0697918"
       y="-2.5135407"
       transform="scale(1,-1)" /><rect
       style="color:#000000;overflow:visible;fill:#ffffff;stroke:#999999;stroke-width:0.264583;stroke-dasharray:none"
       id="rect1072"
       width="2.3812504"
       height="2.3812492"
       x="0.1322915"
       y="-5.1593728"
       transform="scale(1,-1)" /><rect
       style="color:#000000;overflow:visible;fill:#800080;stroke:#000000;stroke-width:0.264583;stroke-dasharray:none"
       id="rect1074"
       width="2.3812504"
       height="2.3812492"
       x="2.7781248"
       y="-5.1593728"
       transform="scale(1,-1)" /><rect
       style="color:#000000;overflow:visible;fill:#ffffff;stroke:#999999;stroke-width:0.264583;stroke-dasharray:none"
       id="rect1076"
       width="2.3812504"
       height="2.3812492"
       x="5.4239583"
       y="-5.1593728"
       transform="scale(1,-1)" /><rect
       style="color:#000000;overflow:visible;fill:#ffffff;stroke:#999999;stroke-width:0.264583;stroke-dasharray:none"
       id="rect1078"
       width="2.3812504"
       height="2.3812492"
       x="8.0697918"
       y="-5.1593728"
       transform="scale(1,-1)" /><rect
       style="color:#000000;overflow:visible;fill:#ffffff;stroke:#999999;stroke-width:0.264583;stroke-dasharray:none"
       id="rect1082"
       width="2.3812504"
       height="2.3812492"
       x="0.1322915"
       y="-7.8052053"
       transform="scale(1,-1)" /><rect
       style="color:#000000;overflow:visible;fill:#ffffff;stroke:#999999;stroke-width:0.264583;stroke-dasharray:none"
       id="rect1084"
       width="2.3812504"
       height="2.3812492"
       x="2.7781248"
       y="-7.8052053"
       transform="scale(1,-1)" /><rect
       style="color:#000000;overflow:visible;fill:#ffffff;stroke:#999999;stroke-width:0.264583;stroke-dasharray:none"
       id="rect1086"
       width="2.3812504"
       height="2.3812492"
       x="5.4239583"
       y="-7.8052053"
       transform="scale(1,-1)" /><rect
       style="color:#000000;overflow:visible;fill:#ffffff;stroke:#999999;stroke-width:0.264583;stroke-dasharray:none"
       id="rect1088"
       width="2.3812504"
       height="2.3812492"
       x="8.0697918"
       y="-7.8052053"
       transform="scale(1,-1)" /><rect
       style="color:#000000;overflow:visible;fill:#ffffff;stroke:#999999;stroke-width:0.264583;stroke-dasharray:none"
       id="rect1092"
       width="2.3812504"
       height="2.3812492"
       x="0.1322915"
       y="-10.451037"
       transform="scale(1,-1)" /><rect
       style="color:#000000;overflow:visible;fill:#ffffff;stroke:#999999;stroke-width:0.264583;stroke-dasharray:none"
       id="rect1094"
       width="2.3812504"
       height="2.3812492"
       x="2.7781248"
       y="-10.451037"
       transform="scale(1,-1)" /><rect
       style="color:#000000;overflow:visible;fill:#ffffff;stroke:#999999;stroke-width:0.264583;stroke-dasharray:none"
       id="rect1096"
       width="2.3812504"
       height="2.3812492"
       x="5.4239583"
       y="-10.451037"
       transform="scale(1,-1)" /><rect
       style="color:#000000;overflow:visible;fill:#ffffff;stroke:#999999;stroke-width:0.264583;stroke-dasharray:none"
       id="rect1098"
       width="2.3812504"
       height="2.3812492"
       x="8.0697918"
       y="-10.451037"
       transform="scale(1,-1)" /><rect
       style="color:#000000;overflow:visible;fill:#ffffff;stroke:#999999;stroke-width:0.264583;stroke-dasharray:none"
       id="rect1124"
       width="2.3812504"
       height="2.3812492"
       x="16.007292"
       y="-2.5135407"
       transform="scale(1,-1)" /><rect
       style="color:#000000;overflow:visible;fill:#ffffff;stroke:#999999;stroke-width:0.264583;stroke-dasharray:none"
       id="rect1126"
       width="2.3812504"
       height="2.3812492"
       x="18.653126"
       y="-2.5135407"
       transform="scale(1,-1)" /><rect
       style="color:#000000;overflow:visible;fill:#ffffff;stroke:#999999;stroke-width:0.264583;stroke-dasharray:none"
       id="rect1128"
       width="2.3812504"
       height="2.3812492"
       x="21.298958"
       y="-2.5135407"
       transform="scale(1,-1)" /><rect
       style="color:#000000;overflow:visible;fill:#ffffff;stroke:#999999;stroke-width:0.264583;stroke-dasharray:none"
       id="rect1130"
       width="2.3812504"
       height="2.3812492"
       x="23.944792"
       y="-2.5135407"
       transform="scale(1,-1)" /><rect
       style="color:#000000;overflow:visible;fill:#ffffff;stroke:#999999;stroke-width:0.264583;stroke-dasharray:none"
       id="rect1134"
       width="2.3812504"
       height="2.3812492"
       x="16.007292"
       y="-5.1593728"
       transform="scale(1,-1)" /><rect
       style="color:#000000;overflow:visible;fill:#800080;stroke:#000000;stroke-width:0.264583;stroke-dasharray:none"
       id="rect1136"
       width="2.3812504"
       height="2.3812492"
       x="18.653126"
       y="-5.1593728"
       transform="scale(1,-1)" /><rect
       style="color:#000000;overflow:visible;fill:#ffffff;stroke:#999999;stroke-width:0.264583;stroke-dasharray:none"
       id="rect1138"
       width="2.3812504"
       height="2.3812492"
       x="21.298958"
       y="-5.1593728"
       transform="scale(1,-1)" /><rect
       style="color:#000000;overflow:visible;fill:#ffffff;stroke:#999999;stroke-width:0.264583;stroke-dasharray:none"
       id="rect1140"
       width="2.3812504"
       height="2.3812492"
       x="23.944792"
       y="-5.1593728"
       transform="scale(1,-1)" /><rect
       style="color:#000000;overflow:visible;fill:#ffffff;stroke:#999999;stroke-width:0.264583;stroke-dasharray:none"
       id="rect1144"
       width="2.3812504"
       height="2.3812492"
       x="16.007292"
       y="-7.8052053"
       transform="scale(1,-1)" /><rect
       style="color:#000000;overflow:visible;fill:#ffffff;stroke:#999999;stroke-width:0.264583;stroke-dasharray:none"
       id="rect1146"
       width="2.3812504"
       height="2.3812492"
       x="18.653126"
       y="-7.8052053"
       transform="scale(1,-1)" /><rect
       style="color:#000000;overflow:visible;fill:#ffffff;stroke:#999999;stroke-width:0.264583;stroke-dasharray:none"
       id="rect1148"
       width="2.3812504"
       height="2.3812492"
       x="21.298958"
       y="-7.8052053"
       transform="scale(1,-1)" /><rect
       style="color:#000000;overflow:visible;fill:#ffffff;stroke:#999999;stroke-width:0.264583;stroke-dasharray:none"
       id="rect1150"
       width="2.3812504"
       height="2.3812492"
       x="23.944792"
       y="-7.8052053"
       transform="scale(1,-1)" /><rect
       style="color:#000000;overflow:visible;fill:#ffffff;stroke:#999999;stroke-width:0.264583;stroke-dasharray:none"
       id="rect1154"
       width="2.3812504"
       height="2.3812492"
       x="16.007292"
       y="-10.451037"
       transform="scale(1,-1)" /><rect
       style="color:#000000;overflow:visible;fill:#ffffff;stroke:#999999;stroke-width:0.264583;stroke-dasharray:none"
       id="rect1156"
       width="2.3812504"
       height="2.3812492"
       x="18.653126"
       y="-10.451037"
       transform="scale(1,-1)" /><rect
       style="color:#000000;overflow:visible;fill:#ffffff;stroke:#999999;stroke-width:0.264583;stroke-dasharray:none"
       id="rect1158"
       width="2.3812504"
       height="2.3812492"
       x="21.298958"
       y="-10.451037"
       transform="scale(1,-1)" /><rect
       style="color:#000000;overflow:visible;fill:#ffffff;stroke:#999999;stroke-width:0.264583;stroke-dasharray:none"
       id="rect1160"
       width="2.3812504"
       height="2.3812492"
       x="23.944792"
       y="-10.451037"
       transform="scale(1,-1)" /><path
       fill="#000000"
       d="m 18.968155,4.676229 0.215026,-0.07896 0.326734,-0.07623 0.04188,0.070793 0.09714,0.061857 0.160628,-0.021023 0.108255,0.032678 0.15313,0.00548 0.142638,-0.1349064 0.181377,0.074993 0.147028,0.035397 0.227801,0.1272017 h -1.852083 z m 0.927088,-0.7878703 -0.02331,0.03885 c 0.0392,0.023707 0.08385,0.024827 0.127756,0.012472 a 0.35847968,0.35847968 0 0 0 0.06107,-0.024173 c -0.0012,0.024407 -0.0014,0.064423 -7.38e-4,0.1138084 l -0.07313,-0.0112 0.01499,0.446836 0.07663,-0.00327 c 0.0027,0.03703 0.0056,0.071762 0.0089,0.1027367 l -0.04165,0.039398 -0.116916,-0.0042 -0.100205,-0.030193 -0.0136,-0.00408 -0.01407,0.00187 -0.13677,0.017838 -0.01901,-0.012122 C 19.6767,4.4257453 19.713,4.0945821 19.721,4.0223491 c 0.0035,-0.028245 0.0048,-0.056723 0.0038,-0.085167 l 0.03843,-0.020755 0.0027,-0.024827 -0.01167,-0.025328 h -0.03451 l -0.01807,-0.035478 -0.0071,0.00245 a 0.11656613,0.11656613 0 0 0 -0.01027,-0.012087 l -3.11e-4,-3.104e-4 -0.09325,-0.100555 0.0092,-0.02331 -0.0046,-0.02751 -0.03306,-0.00922 -0.0081,-0.03885 -0.05187,0.00338 -0.120256,-0.1297381 c 0.0021,-0.016823 0.01167,-0.038197 0.02681,-0.05502 0.01437,-0.016158 0.0321,-0.02646 0.04617,-0.029295 L 19.684289,3.653225 19.721169,3.62778 19.55374,3.2816555 c 0.0068,-0.01554 0.02219,-0.031628 0.0417,-0.042082 0.01881,-0.01015 0.03928,-0.013557 0.05342,-0.011667 l 0.176792,0.3585181 0.04274,-0.01372 -0.06329,-0.3843575 c 0.01038,-0.010383 0.02976,-0.020323 0.05052,-0.02331 a 0.10545349,0.10545349 0 0 1 0.01379,-0.00105 h 0.0046 a 0.08276195,0.08276195 0 0 1 0.03858,0.010033 l 0.05852,0.3664841 0.04442,0.0014 0.06904,-0.3124359 c 0.02289,0.018025 0.07476,0.061273 0.07476,0.061273 l 0.02818,-0.00898 -0.07623,0.3470952 h 2.33e-4 l -0.0056,0.024512 -0.0024,0.0112 0.0345,0.022458 c 0.05557,-0.034428 0.110273,-0.069942 0.156471,-0.086147 0.03023,-0.0105 0.05517,-0.012437 0.07523,-0.00455 0.01651,0.00653 0.0321,0.02086 0.04623,0.0483 -0.115511,0.056373 -0.217007,0.134245 -0.304044,0.1893805 -0.04612,0.029225 -0.08817,0.051835 -0.124336,0.062172 -0.03618,0.010383 -0.06501,0.00863 -0.09228,-0.00793 z m -0.03823,0.2540756 v 0.1010218 l 0.04422,0.035548 -0.01857,0.024092 0.0011,0.073395 0.03225,0.035548 0.0464,0.038465 -0.01399,-0.4167627 -0.03241,0.021607 -0.03008,0.08715 h -0.02891 z"
       class="cls-2"
       id="path6206"
       style="stroke-width:0.264583" /></g></svg>
